<svg classname="w-full h-auto" viewBox="0 0 430 222" fill="none" xmlns="http://www.w3.org/2000/svg">
<g clip-path="url(#clip0_55_972)">
<path d="M24.9587 90.8C15.3587 90.8 8.03867 88.1 2.99867 82.7C-2.04133 77.18 -4.56133 69.32 -4.56133 59.12V-7.12001C-4.56133 -17.32 -2.04133 -25.12 2.99867 -30.52C8.03867 -36.04 15.3587 -38.8 24.9587 -38.8C34.5587 -38.8 41.8787 -36.04 46.9187 -30.52C51.9587 -25.12 54.4787 -17.32 54.4787 -7.12001V3.67999H35.7587V-8.38C35.7587 -16.66 32.3387 -20.8 25.4987 -20.8C18.6587 -20.8 15.2387 -16.66 15.2387 -8.38V60.56C15.2387 68.72 18.6587 72.8 25.4987 72.8C32.3387 72.8 35.7587 68.72 35.7587 60.56V35.9H25.8587V17.9H54.4787V59.12C54.4787 69.32 51.9587 77.18 46.9187 82.7C41.8787 88.1 34.5587 90.8 24.9587 90.8Z" fill="white"/>
<path d="M24.9587 227.8C15.3587 227.8 8.03866 225.1 2.99866 219.7C-2.04134 214.18 -4.56134 206.32 -4.56134 196.12V129.88C-4.56134 119.68 -2.04134 111.88 2.99866 106.48C8.03866 100.96 15.3587 98.2 24.9587 98.2C34.5587 98.2 41.8787 100.96 46.9187 106.48C51.9587 111.88 54.4787 119.68 54.4787 129.88V140.68H35.7587V128.62C35.7587 120.34 32.3387 116.2 25.4987 116.2C18.6587 116.2 15.2387 120.34 15.2387 128.62V197.56C15.2387 205.72 18.6587 209.8 25.4987 209.8C32.3387 209.8 35.7587 205.72 35.7587 197.56V172.9H25.8587V154.9H54.4787V196.12C54.4787 206.32 51.9587 214.18 46.9187 219.7C41.8787 225.1 34.5587 227.8 24.9587 227.8Z" fill="white"/>
<path d="M70.88 -11H100.22C110.42 -11 117.86 -8.60001 122.54 -3.8C127.22 0.879992 129.56 8.13999 129.56 17.98V25.72C129.56 38.8 125.24 47.08 116.6 50.56V50.92C121.4 52.36 124.76 55.3 126.68 59.74C128.72 64.18 129.74 70.12 129.74 77.56V99.7C129.74 103.3 129.86 106.24 130.1 108.52C130.34 110.68 130.94 112.84 131.9 115H111.74C111.02 112.96 110.54 111.04 110.3 109.24C110.06 107.44 109.94 104.2 109.94 99.52V76.48C109.94 70.72 108.98 66.7 107.06 64.42C105.26 62.14 102.08 61 97.52 61H90.68V115H70.88V-11ZM97.88 43C101.84 43 104.78 41.98 106.7 39.94C108.74 37.9 109.76 34.48 109.76 29.68V19.96C109.76 15.4 108.92 12.1 107.24 10.06C105.68 8.02 103.16 7 99.68 7H90.68V43H97.88Z" fill="white"/>
<path d="M70.88 126H100.22C110.42 126 117.86 128.4 122.54 133.2C127.22 137.88 129.56 145.14 129.56 154.98V162.72C129.56 175.8 125.24 184.08 116.6 187.56V187.92C121.4 189.36 124.76 192.3 126.68 196.74C128.72 201.18 129.74 207.12 129.74 214.56V236.7C129.74 240.3 129.86 243.24 130.1 245.52C130.34 247.68 130.94 249.84 131.9 252H111.74C111.02 249.96 110.54 248.04 110.3 246.24C110.06 244.44 109.94 241.2 109.94 236.52V213.48C109.94 207.72 108.98 203.7 107.06 201.42C105.26 199.14 102.08 198 97.52 198H90.68V252H70.88V126ZM97.88 180C101.84 180 104.78 178.98 106.7 176.94C108.74 174.9 109.76 171.48 109.76 166.68V156.96C109.76 152.4 108.92 149.1 107.24 147.06C105.68 145.02 103.16 144 99.68 144H90.68V180H97.88Z" fill="white"/>
<path d="M173 109.8C163.28 109.8 155.84 107.04 150.68 101.52C145.52 96 142.94 88.2 142.94 78.12V11.88C142.94 1.79999 145.52 -6.00001 150.68 -11.52C155.84 -17.04 163.28 -19.8 173 -19.8C182.72 -19.8 190.16 -17.04 195.32 -11.52C200.48 -6.00001 203.06 1.79999 203.06 11.88V78.12C203.06 88.2 200.48 96 195.32 101.52C190.16 107.04 182.72 109.8 173 109.8ZM173 91.8C179.84 91.8 183.26 87.66 183.26 79.38V10.62C183.26 2.34 179.84 -1.8 173 -1.8C166.16 -1.8 162.74 2.34 162.74 10.62V79.38C162.74 87.66 166.16 91.8 173 91.8Z" fill="white"/>
<path d="M173 246.8C163.28 246.8 155.84 244.04 150.68 238.52C145.52 233 142.94 225.2 142.94 215.12V148.88C142.94 138.8 145.52 131 150.68 125.48C155.84 119.96 163.28 117.2 173 117.2C182.72 117.2 190.16 119.96 195.32 125.48C200.48 131 203.06 138.8 203.06 148.88V215.12C203.06 225.2 200.48 233 195.32 238.52C190.16 244.04 182.72 246.8 173 246.8ZM173 228.8C179.84 228.8 183.26 224.66 183.26 216.38V147.62C183.26 139.34 179.84 135.2 173 135.2C166.16 135.2 162.74 139.34 162.74 147.62V216.38C162.74 224.66 166.16 228.8 173 228.8Z" fill="white"/>
<path d="M331.55 -27H310.85V-45H372.05V-27H351.35V81H331.55V-27Z" fill="white"/>
<path d="M331.55 114H310.85V96H372.05V114H351.35V222H331.55V114Z" fill="white"/>
<path d="M210.39 -8.58307e-06H229.47L238.29 96.84H238.65L248.01 -8.58307e-06H269.61L278.97 96.84H279.33L288.15 -8.58307e-06H305.25L292.47 126H267.81L258.81 41.04H258.45L249.45 126H223.17L210.39 -8.58307e-06Z" fill="white"/>
<path d="M210.39 142H229.47L238.29 238.84H238.65L248.01 142H269.61L278.97 238.84H279.33L288.15 142H305.25L292.47 268H267.81L258.81 183.04H258.45L249.45 268H223.17L210.39 142Z" fill="white"/>
<path d="M384.07 -13H403.87V38.3H425.11V-13H444.91V113H425.11V56.3H403.87V113H384.07V-13Z" fill="white"/>
<path d="M384.07 123H403.87V174.3H425.11V123H444.91V249H425.11V192.3H403.87V249H384.07V123Z" fill="white"/>
</g>
<defs>
<clipPath id="clip0_55_972">
<rect width="430" height="222" fill="white"/>
</clipPath>
</defs>
</svg>
