<svg width="36" height="36" viewBox="0 0 36 36" fill="none" xmlns="http://www.w3.org/2000/svg">
<g filter="url(#filter0_d_55_1000)">
<path d="M1.06667 9.6H0V22.4H1.06667V24.5333H2.13333V25.6H3.2V27.7333H4.26667V28.8H6.4V29.8667H7.46667V30.9333H9.6V32H22.4V30.9333H24.5333V29.8667H25.6V28.8H27.7333V27.7333H28.8V25.6H29.8667V24.5333H30.9333V22.4H32V9.6H30.9333V7.46667H29.8667V6.4H28.8V4.26666H27.7333V3.2H25.6V2.13333H24.5333V1.06667H22.4V0H9.6V1.06667H7.46667V2.13333H6.4V3.2H4.26667V4.26666H3.2V6.4H2.13333V7.46667H1.06667V9.6Z" fill="white"/>
</g>
<path d="M16 9.48145C17.7743 9.48145 17.9928 9.4943 18.6871 9.52002C19.3685 9.54573 19.8442 9.66144 20.2685 9.82859C20.7057 9.99573 21.0657 10.2143 21.4257 10.5743C21.7857 10.9343 22.0042 11.2943 22.1714 11.7314C22.3385 12.1557 22.4542 12.6314 22.4799 13.3128C22.5057 14.0071 22.5185 14.2257 22.5185 16C22.5185 17.7742 22.5057 17.9928 22.4799 18.6871C22.4542 19.3685 22.3385 19.8442 22.1714 20.2685C22.0042 20.7056 21.7857 21.0656 21.4257 21.4256C21.0657 21.7856 20.7057 22.0042 20.2685 22.1713C19.8442 22.3385 19.3685 22.4542 18.6871 22.4799C17.9928 22.5056 17.7743 22.5185 16 22.5185C14.2257 22.5185 14.0072 22.5056 13.3129 22.4799C12.6315 22.4542 12.1557 22.3385 11.7315 22.1713C11.2943 22.0042 10.9343 21.7856 10.5743 21.4256C10.2143 21.0656 9.99576 20.7056 9.82862 20.2685C9.66147 19.8442 9.54576 19.3685 9.52005 18.6871C9.49433 17.9928 9.48148 17.7742 9.48148 16C9.48148 14.2257 9.49433 14.0071 9.52005 13.3128C9.54576 12.6314 9.66147 12.1557 9.82862 11.7314C9.99576 11.2943 10.2143 10.9343 10.5743 10.5743C10.9343 10.2143 11.2943 9.99573 11.7315 9.82859C12.1557 9.66144 12.6315 9.54573 13.3129 9.52002C14.0072 9.4943 14.2257 9.48145 16 9.48145ZM16 10.33C14.1486 10.33 13.93 10.3429 13.21 10.3686C12.5415 10.3943 12.1686 10.5229 11.9243 10.6129C11.2943 10.87 10.87 11.2943 10.6129 11.9243C10.5229 12.1686 10.3943 12.5414 10.3686 13.21C10.3429 13.93 10.33 14.1486 10.33 16C10.33 17.8514 10.3429 18.0699 10.3686 18.7899C10.3943 19.4585 10.5229 19.8314 10.6129 20.0756C10.87 20.7056 11.2943 21.1299 11.9243 21.3871C12.1686 21.4771 12.5415 21.6056 13.21 21.6313C13.93 21.6571 14.1486 21.6699 16 21.6699C17.8514 21.6699 18.07 21.6571 18.79 21.6313C19.4585 21.6056 19.8314 21.4771 20.0757 21.3871C20.7057 21.1299 21.13 20.7056 21.3871 20.0756C21.4771 19.8314 21.6057 19.4585 21.6314 18.7899C21.6571 18.0699 21.6699 17.8514 21.6699 16C21.6699 14.1486 21.6571 13.93 21.6314 13.21C21.6057 12.5414 21.4771 12.1686 21.3871 11.9243C21.13 11.2943 20.7057 10.87 20.0757 10.6129C19.8314 10.5229 19.4585 10.3943 18.79 10.3686C18.07 10.3429 17.8514 10.33 16 10.33ZM16 18.6099C17.44 18.6099 18.61 17.44 18.61 16C18.61 14.56 17.44 13.39 16 13.39C14.56 13.39 13.39 14.56 13.39 16C13.39 17.44 14.56 18.6099 16 18.6099ZM16 12.6571C17.8514 12.6571 19.3428 14.1486 19.3428 16C19.3428 17.8514 17.8514 19.3428 16 19.3428C14.1486 19.3428 12.6572 17.8514 12.6572 16C12.6572 14.1486 14.1486 12.6571 16 12.6571ZM20.2685 12.5286C20.2685 12.9657 19.9085 13.3 19.4714 13.3C19.0343 13.3 18.7 12.9657 18.7 12.5286C18.7 12.0914 19.0343 11.7314 19.4714 11.7314C19.9085 11.7314 20.2685 12.0914 20.2685 12.5286Z" fill="#F68333"/>
<defs>
<filter id="filter0_d_55_1000" x="0" y="0" width="36" height="36" filterUnits="userSpaceOnUse" color-interpolation-filters="sRGB">
<feFlood flood-opacity="0" result="BackgroundImageFix"/>
<feColorMatrix in="SourceAlpha" type="matrix" values="0 0 0 0 0 0 0 0 0 0 0 0 0 0 0 0 0 0 127 0" result="hardAlpha"/>
<feOffset dx="4" dy="4"/>
<feComposite in2="hardAlpha" operator="out"/>
<feColorMatrix type="matrix" values="0 0 0 0 0 0 0 0 0 0 0 0 0 0 0 0 0 0 1 0"/>
<feBlend mode="normal" in2="BackgroundImageFix" result="effect1_dropShadow_55_1000"/>
<feBlend mode="normal" in="SourceGraphic" in2="effect1_dropShadow_55_1000" result="shape"/>
</filter>
</defs>
</svg>
