<svg width="36" height="36" viewBox="0 0 36 36" fill="none" xmlns="http://www.w3.org/2000/svg">
<g filter="url(#filter0_d_55_994)">
<path d="M1.06667 9.6H0V22.4H1.06667V24.5333H2.13333V25.6H3.2V27.7333H4.26667V28.8H6.4V29.8667H7.46667V30.9333H9.6V32H22.4V30.9333H24.5333V29.8667H25.6V28.8H27.7333V27.7333H28.8V25.6H29.8667V24.5333H30.9333V22.4H32V9.6H30.9333V7.46667H29.8667V6.4H28.8V4.26666H27.7333V3.2H25.6V2.13333H24.5333V1.06667H22.4V0H9.6V1.06667H7.46667V2.13333H6.4V3.2H4.26667V4.26666H3.2V6.4H2.13333V7.46667H1.06667V9.6Z" fill="white"/>
</g>
<path d="M21.4758 9.48145H10.5955C10.0009 9.48145 9.48148 9.90922 9.48148 10.4968V21.4013C9.48148 21.9921 10.0009 22.5185 10.5955 22.5185H21.4726C22.0704 22.5185 22.5185 21.9886 22.5185 21.4013V10.4968C22.522 9.90922 22.0704 9.48145 21.4758 9.48145ZM13.5227 20.3485H11.655V14.5414H13.5227V20.3485ZM12.6534 13.6585H12.6401C12.0423 13.6585 11.6553 13.2136 11.6553 12.6566C11.6553 12.0894 12.0525 11.655 12.6636 11.655C13.2747 11.655 13.6487 12.0862 13.6621 12.6566C13.6618 13.2136 13.2747 13.6585 12.6534 13.6585ZM20.3485 20.3485H18.4808V17.1733C18.4808 16.4126 18.209 15.8929 17.5333 15.8929C17.0171 15.8929 16.7115 16.2421 16.5756 16.5823C16.5247 16.7045 16.511 16.8709 16.511 17.0409V20.3485H14.6433V14.5414H16.511V15.3496C16.7828 14.9625 17.2074 14.4055 18.1953 14.4055C19.4214 14.4055 20.3488 15.2137 20.3488 16.9559L20.3485 20.3485Z" fill="#F68333"/>
<defs>
<filter id="filter0_d_55_994" x="0" y="0" width="36" height="36" filterUnits="userSpaceOnUse" color-interpolation-filters="sRGB">
<feFlood flood-opacity="0" result="BackgroundImageFix"/>
<feColorMatrix in="SourceAlpha" type="matrix" values="0 0 0 0 0 0 0 0 0 0 0 0 0 0 0 0 0 0 127 0" result="hardAlpha"/>
<feOffset dx="4" dy="4"/>
<feComposite in2="hardAlpha" operator="out"/>
<feColorMatrix type="matrix" values="0 0 0 0 0 0 0 0 0 0 0 0 0 0 0 0 0 0 1 0"/>
<feBlend mode="normal" in2="BackgroundImageFix" result="effect1_dropShadow_55_994"/>
<feBlend mode="normal" in="SourceGraphic" in2="effect1_dropShadow_55_994" result="shape"/>
</filter>
</defs>
</svg>
