<svg width="36" height="36" viewBox="0 0 36 36" fill="none" xmlns="http://www.w3.org/2000/svg">
<g filter="url(#filter0_d_55_997)">
<path d="M1.06667 9.6H0V22.4H1.06667V24.5333H2.13333V25.6H3.2V27.7333H4.26667V28.8H6.4V29.8667H7.46667V30.9333H9.6V32H22.4V30.9333H24.5333V29.8667H25.6V28.8H27.7333V27.7333H28.8V25.6H29.8667V24.5333H30.9333V22.4H32V9.6H30.9333V7.46667H29.8667V6.4H28.8V4.26666H27.7333V3.2H25.6V2.13333H24.5333V1.06667H22.4V0H9.6V1.06667H7.46667V2.13333H6.4V3.2H4.26667V4.26666H3.2V6.4H2.13333V7.46667H1.06667V9.6Z" fill="white"/>
</g>
<path d="M24.1481 11.0262C23.5368 11.2918 22.8901 11.4668 22.2282 11.5456C22.9238 11.1384 23.4469 10.4913 23.6993 9.72589C23.0417 10.1104 22.3235 10.3802 21.5754 10.5237C21.2603 10.1936 20.8815 9.93092 20.4618 9.75175C20.0421 9.57257 19.5903 9.48061 19.134 9.48145C17.2864 9.48145 15.7912 10.9549 15.7912 12.7713C15.7899 13.0239 15.8189 13.2758 15.8775 13.5216C14.5526 13.4595 13.2553 13.1215 12.0685 12.5293C10.8818 11.9371 9.83171 11.1037 8.9855 10.0824C8.68864 10.5829 8.53164 11.1539 8.5309 11.7358C8.5309 12.8765 9.12605 13.8848 10.0247 14.4756C9.49229 14.4629 8.97076 14.322 8.50442 14.0648V14.1055C8.50442 15.7012 9.65874 17.0287 11.1865 17.3308C10.8992 17.4074 10.6032 17.4462 10.3058 17.4462C10.0949 17.4466 9.88436 17.4261 9.67741 17.3851C10.1021 18.6922 11.3383 19.6428 12.8026 19.67C11.6127 20.587 10.1519 21.0826 8.64973 21.0789C8.38309 21.0786 8.11669 21.0627 7.85189 21.0314C9.38008 22.0072 11.1565 22.5233 12.9696 22.5184C19.1269 22.5184 22.4907 17.504 22.4907 13.1549C22.4907 13.0123 22.4869 12.8697 22.4801 12.7305C23.133 12.2661 23.6979 11.6889 24.1481 11.0262Z" fill="#F68333"/>
<defs>
<filter id="filter0_d_55_997" x="0" y="0" width="36" height="36" filterUnits="userSpaceOnUse" color-interpolation-filters="sRGB">
<feFlood flood-opacity="0" result="BackgroundImageFix"/>
<feColorMatrix in="SourceAlpha" type="matrix" values="0 0 0 0 0 0 0 0 0 0 0 0 0 0 0 0 0 0 127 0" result="hardAlpha"/>
<feOffset dx="4" dy="4"/>
<feComposite in2="hardAlpha" operator="out"/>
<feColorMatrix type="matrix" values="0 0 0 0 0 0 0 0 0 0 0 0 0 0 0 0 0 0 1 0"/>
<feBlend mode="normal" in2="BackgroundImageFix" result="effect1_dropShadow_55_997"/>
<feBlend mode="normal" in="SourceGraphic" in2="effect1_dropShadow_55_997" result="shape"/>
</filter>
</defs>
</svg>
