<svg width="563" height="489" viewBox="0 0 563 489" fill="none" xmlns="http://www.w3.org/2000/svg">
<path fill-rule="evenodd" clip-rule="evenodd" d="M145.242 199.876C153.914 192.925 176.028 189.347 185.621 195.597C195.099 201.876 196.376 212.378 200.957 221.955C205.006 219.922 211.839 222.522 213.121 226.295C214.638 228.052 214.829 233.089 215.905 235.474C260.276 241.418 267.84 275.723 274.129 314.726C282.15 354.263 299.107 393.492 293.183 434.528C294.119 435.813 294.863 437.067 295.559 438.561C297.205 441.209 295.265 445.063 292.078 444.995C287.947 444.735 283.854 444.341 279.71 444.289C268.221 444.175 256.733 444.507 245.254 444.937L243.688 444.996C185.834 447.15 128.001 450.003 70.1363 451.812C68.0368 451.868 66.9622 450.009 67.1966 448.144C67.6686 444.389 68.0997 440.633 68.5538 436.876C54.9546 440.832 40.4248 442.103 26.6721 438.294C25.6931 437.344 28.8859 437.793 29.3868 437.633C16.6118 429.356 19.9155 411.173 20.7057 398.115C26.5197 353.296 27.736 303.836 53.5274 265.075C64.7083 249.24 81.3601 236.51 100.776 233.258L101.315 233.171C106.993 232.27 113.336 231.868 118.241 228.644C123.732 224.031 125.915 215.705 131.807 215.481C133.753 215.408 136.461 217.805 139.352 219.407C139.473 215.723 141.378 212.569 141.745 209.706L141.775 209.461C142.149 206.125 141.449 203.148 145.242 199.876ZM243.177 316.672C230.542 308.348 198.564 313.48 197.842 313.981C196.251 315.085 195.557 315.197 194.716 316.6C193.856 316.736 192.996 316.877 192.136 317.02C190.421 317.628 191.755 319.725 193.734 318.916C192.661 324.13 196.289 327.73 197.823 332.82C198.322 334.473 197.955 337.477 197.981 339.178C198.171 341.343 200.631 343.844 200.285 346.029C199.057 353.797 191.539 361.531 194.973 368.95C197.23 373.132 203.755 375.132 208.094 376.465C217.094 379.667 232.539 375.731 237.528 367.897C240.189 363.718 243.133 353.27 244.701 350.013L244.94 344.902C245.526 332.198 245.989 318.525 243.177 316.672Z" fill="white"/>
<path fill-rule="evenodd" clip-rule="evenodd" d="M129.625 214.787C130.463 214.006 131.756 214.929 131.236 215.969C130.069 218.306 128.867 220.522 127.274 222.602C126.308 223.862 125.27 225.058 124.217 226.241C127.052 228.574 129.507 231.498 131.824 234.238C134.787 237.742 137.597 241.401 140.906 244.592C144.168 247.74 147.743 249.908 152.035 251.306L152.902 251.584C157.213 252.979 161.832 254.893 164.342 258.882C164.836 259.669 163.904 260.679 163.088 260.201C158.837 257.711 153.905 257.311 149.305 255.71C144.862 254.164 140.961 251.712 137.49 248.545C134.025 245.383 131.091 241.76 128.037 238.219C125.017 234.717 121.785 231.742 118.242 228.804C112.98 232.538 106.911 234.256 100.738 235.949L100.064 236.134C93.884 237.828 87.7431 239.77 81.9756 242.596C76.8905 245.088 71.9012 248.037 67.8067 251.988C63.4602 256.182 60.1277 261.482 57.0857 266.661C50.2811 278.247 45.608 290.871 41.5349 303.632C37.2986 316.905 33.8149 330.424 31.0707 344.083C29.6749 351.032 28.5747 358.022 27.7024 365.055C27.2825 368.442 26.9191 371.835 26.6102 375.234C26.2806 378.864 26.2765 382.59 25.2527 386.098C24.8138 387.601 23.7056 388.248 22.5796 388.223L22.422 391.086C22.2134 394.904 22.0254 398.723 22.025 402.559C22.0246 408.938 22.2537 415.293 22.8696 421.643L22.956 422.509C23.4312 427.143 24.3652 432.339 27.9392 435.652C31.6405 439.084 37.2258 440.053 42.0986 439.996C53.4476 439.863 64.2358 434.23 74.1589 429.277C84.3785 424.176 94.3024 418.548 103.974 412.473C108.9 409.379 113.769 406.187 118.572 402.907C120.93 401.297 123.269 399.662 125.591 398.001C126.92 397.05 128.177 396.012 129.533 395.164C128.843 394.552 128.518 393.572 129.061 392.695C124.996 389.338 123.187 383.212 122.87 378.227C122.614 374.203 123.107 370.172 123.475 366.171C123.662 364.153 123.903 362.138 124.156 360.127C124.256 359.333 124.327 358.484 124.446 357.646C113.846 363.819 102.929 369.354 91.7052 374.308C85.952 376.848 80.1184 379.148 74.1991 381.27L72.9993 381.698C67.3902 383.69 61.6433 385.582 55.8235 386.786C55.5123 386.85 55.247 386.395 55.5771 386.239C61.212 383.583 67.0539 381.316 72.7794 378.857L73.72 378.446C73.6107 378.443 73.4971 378.431 73.3783 378.405C69.9666 377.67 66.5705 376.492 63.218 375.512C60.1065 374.602 56.6228 374.069 53.7005 372.652C53.4756 372.543 53.5922 372.231 53.8081 372.211C57.0457 371.905 60.5898 372.764 63.7833 373.241L64.9831 373.421C66.9929 373.725 69.0478 374.053 71.0514 374.499C71.1068 373.83 71.463 373.15 71.9835 372.744C77.7115 368.277 76.9028 359.561 77.3674 353.107L77.7118 348.315C78.3187 339.93 78.9727 331.544 80.0754 323.209C80.1343 322.764 80.8231 322.874 80.8363 323.292C81.1586 333.583 80.6356 343.847 80.5008 354.133L80.4822 355.82C80.424 362.166 80.4184 368.755 76.5472 373.733C77.0973 373.393 77.852 373.374 78.3176 373.901C78.8896 374.549 79.2288 375.284 79.2368 376.013C82.8067 374.41 86.3598 372.769 89.8945 371.097C101.259 365.72 112.368 359.742 123.167 353.304C124.33 352.611 125.463 353.105 126.067 353.966L126.151 353.952C126.165 353.949 126.179 353.948 126.194 353.947L126.277 353.941C126.281 353.941 126.284 353.941 126.287 353.941C127.807 353.056 129.923 353.607 131.276 354.811C131.316 354.847 131.35 354.886 131.386 354.925C133.042 354.131 134.581 353.077 135.969 351.755C138.808 349.05 141.187 345.732 143.251 342.414C147.052 336.302 150.241 329.532 155.454 324.449C159.689 320.32 165.001 317.683 170.601 315.971C170.573 315.807 170.631 315.63 170.742 315.51C171.025 315.206 171.229 315.098 171.607 315.269C171.638 315.283 171.656 315.303 171.669 315.324L172.196 314.37C172.483 313.852 172.779 313.33 172.882 313.193C173.503 312.371 174.142 311.554 174.791 310.754C175.892 309.4 177.152 308.059 178.625 307.102C181.852 305.008 185.324 306.062 188.719 307.079C190.771 307.693 192.816 308.33 194.864 308.955L195.076 309.018C196.602 309.467 198.386 309.849 199.103 311.438C199.387 312.067 199.445 312.725 199.335 313.368C213.632 309.352 229.654 310.638 243.801 314.587C244.344 314.738 244.893 315.168 245.021 315.748C246.834 323.961 247.76 332.407 247.24 340.818C246.791 348.079 245.362 355.219 242.502 361.927L242.339 362.306C239.65 368.524 235.333 376.213 228.502 378.31C224.377 379.577 219.766 379.005 215.524 378.896C211.402 378.791 207.193 378.865 203.099 378.318C199.452 377.832 196.23 376.282 193.912 373.383C191.913 370.882 190.817 367.827 189.905 364.783C189.526 364.915 189.149 365.053 188.779 365.209C187.216 365.865 185.904 366.893 184.724 368.094C182.233 370.63 180.328 373.682 177.715 376.108C175.351 378.304 172.637 380.033 169.714 381.384C163.656 384.182 157.114 385.402 150.672 386.966L150.223 387.075C145.373 388.266 140.429 389.704 136.188 392.35C136.123 393.099 135.799 393.811 135.265 394.285C136.042 394.98 136.391 396.101 135.751 397.177C133.961 400.181 130.793 401.944 127.959 403.907L127.774 404.035C124.986 405.985 122.173 407.898 119.336 409.775C113.567 413.59 107.671 417.206 101.687 420.671C92.0618 426.245 82.2198 431.522 72.1859 436.336C72.8691 439.318 72.7231 442.414 73.2556 445.42L73.3364 445.849C73.5597 446.964 73.3187 447.908 72.5658 448.658L72.4861 448.735L72.4872 448.725L72.4166 448.793L72.3929 448.814L72.4008 448.808C72.3139 448.891 72.2241 448.969 72.1322 449.037L72.0151 449.116C71.2836 449.586 70.3273 449.605 69.557 449.225L69.469 449.179L69.3209 449.099C68.3019 448.546 67.5736 447.131 67.9622 445.982C68.9173 443.16 69.2304 440.166 70.1067 437.327L69.3645 437.681L68.3861 438.137C57.8031 443.03 46.0167 447.221 34.2828 444.355C29.0982 443.088 24.2116 440.258 21.5157 435.514C18.8629 430.847 18.3686 425.363 18.1037 420.105C17.7767 413.615 17.9615 407.013 18.6582 400.553C19.1258 396.217 19.7117 391.796 20.6778 387.493C20.1144 387.02 19.6918 386.332 19.5633 385.47C18.9563 381.397 19.7366 377.128 20.178 373.051C20.6093 369.07 21.0963 365.095 21.6602 361.131C22.7987 353.125 24.1538 345.131 25.7658 337.207C28.6345 323.104 32.5402 309.225 37.3202 295.653L37.7389 294.471C42.1592 282.065 47.3318 269.903 54.6817 258.919C58.1976 253.663 61.9335 248.885 66.99 245.036C71.7272 241.429 77.1059 238.783 82.6732 236.725C88.2466 234.665 93.9921 233.235 99.8517 232.289C105.803 231.328 112.093 230.674 117.602 228.086C116.866 226.84 117.429 225.119 118.595 224.306C122.521 221.569 126.126 218.046 129.625 214.787ZM260.216 326.322C260.377 326.064 260.778 326.215 260.712 326.517C258.968 334.52 257.344 342.536 256.355 350.672C254.569 365.357 255.331 380.17 255.872 394.906L255.9 395.668C256.186 403.605 256.508 411.542 256.967 419.472C257.199 423.48 257.561 427.523 257.518 431.54C257.494 433.719 256.965 435.793 256.813 437.949C256.68 439.834 256.887 441.74 257.024 443.621C257.115 444.872 255.266 444.864 255.111 443.668L254.912 442.122C254.654 440.164 254.348 438.22 253.659 436.358C252.83 434.118 252.404 431.909 252.077 429.543C251.576 425.919 251.303 422.252 251.053 418.596L250.882 416.067C249.842 400.788 249.484 385.419 250.178 370.113L250.229 369.02C250.933 354.55 252.388 338.899 260.216 326.322ZM216.589 236.315C216.077 236.119 216.235 235.348 216.8 235.468L217.827 235.686C225.353 237.294 232.746 239.054 239.811 242.217C246.881 245.381 252.92 250.217 257.772 256.228C267.204 267.912 271.36 282.292 274.716 296.678C278.445 312.664 281.877 328.717 285.635 344.697L286.333 347.674C289.813 362.558 293.119 377.455 295.657 392.54L295.839 393.634C298.406 409.147 300.117 425.221 298.123 440.887C297.729 443.987 292.573 443.345 292.699 440.289C293.06 431.455 293.258 422.672 292.638 413.843C292.017 405.011 290.971 396.23 289.518 387.497C288.296 380.147 286.565 372.902 285.012 365.62L284.769 364.469C283.466 358.275 282.128 352.088 280.793 345.9L278.796 336.635C275.805 322.762 272.762 308.879 269.37 295.104L269.169 294.294C265.855 281.042 261.111 267.193 251.9 256.833C242.552 246.319 229.417 241.233 216.589 236.315ZM187.089 378.471C187.295 377.979 188.06 378.013 188.306 378.441C189.268 380.117 189.424 382.282 189.646 384.196L189.669 384.393C189.948 386.727 190.202 389.07 190.38 391.415C190.718 395.865 190.937 400.312 191.033 404.773C191.132 409.345 191.153 413.914 191.02 418.485L190.983 419.71C190.857 423.683 190.589 428.117 188.791 431.632C188.137 432.91 186.265 432.585 185.837 431.32C184.434 427.177 184.978 422.211 185.206 417.926L185.382 414.583C185.556 411.24 185.718 407.896 185.829 404.55C185.981 399.973 186.087 395.393 186.185 390.815C186.216 389.328 186.254 387.84 186.295 386.353L186.36 384.123C186.417 382.257 186.358 380.212 187.089 378.471ZM41.1004 388.006L41.662 387.436C43.3854 385.663 45.5515 382.945 48.1666 383.045C49.2094 383.085 49.8943 383.934 49.7038 384.964C49.2968 387.166 47.0911 388.358 45.5163 389.735C43.791 391.243 42.1695 392.85 40.5516 394.472C39.1163 395.91 37.7382 397.386 36.3952 398.907L35.8931 399.479C35.4119 400.031 31.9687 403.305 32.37 404.123L32.3916 404.159C32.5015 404.315 32.3304 404.537 32.1532 404.486C30.6204 404.043 30.683 402.736 31.2253 401.401C32.2673 398.835 34.144 396.438 35.78 394.228C37.4115 392.024 39.1854 389.965 41.1004 388.006V388.006ZM191.17 320.583C189.925 317.831 185.594 317.997 183.138 318.224C176.954 318.796 170.291 320.53 164.852 323.563C159.212 326.707 155.482 331.613 152.17 337.018L152.015 337.272C148.788 342.575 145.708 348.834 140.541 352.553C137.909 354.448 134.824 356.195 131.594 356.999C131.381 357.396 131.027 357.716 130.556 357.84L130.337 357.896C129.417 358.124 127.986 358.385 126.741 358.281C126.764 358.888 126.773 359.491 126.802 360.066C126.887 361.715 126.946 363.371 126.987 365.021C127.074 368.479 126.974 371.949 127.204 375.403C127.407 378.459 127.918 381.644 129.454 384.342C130.58 386.321 132.034 387.613 133.781 388.838C137.937 386.16 142.67 384.474 147.483 383.175C153.305 381.604 159.278 380.504 164.954 378.429C167.686 377.43 170.304 376.146 172.663 374.432C175.166 372.612 177.052 370.187 178.996 367.813L179.3 367.444C181.285 365.049 183.458 362.752 186.313 361.41C188.772 360.254 192.044 359.978 194.175 358.23C195.29 357.316 195.353 356.028 195.44 354.708C194.053 354.942 192.572 354.659 191.18 354.531L190.459 354.464C189.143 354.341 187.857 354.201 186.558 353.899C186.316 353.843 186.307 353.481 186.546 353.413C188.062 352.981 189.571 352.776 191.131 352.554L191.498 352.499C192.909 352.278 194.39 351.961 195.787 352.238C196.012 351.283 196.35 350.369 196.832 349.45C197.509 348.158 198.814 346.68 198.959 345.188C199.002 344.742 198.885 344.22 198.666 343.833L198.59 343.7C198.499 343.544 198.39 343.388 198.235 343.293C198.219 343.313 198.184 343.337 198.107 343.363C197.046 343.726 196.101 343.226 195.586 342.431C193.492 342.744 191.197 342.713 189.229 342.849L187.24 342.995C185.114 343.145 182.89 343.243 180.88 342.862C180.599 342.809 180.503 342.346 180.78 342.22C183.212 341.107 186.186 340.698 188.809 340.228C190.273 339.966 191.75 339.757 193.219 339.522C194.198 339.365 195.234 339.121 196.25 339.043C198.722 335.804 197.224 330.827 193.641 329.548C192.362 330.148 191.191 329.846 189.775 329.76C188.362 329.674 186.947 329.627 185.531 329.668C182.695 329.751 179.707 330.572 176.89 330.32C176.432 330.278 175.992 329.681 176.437 329.298C178.544 327.49 181.612 326.841 184.332 326.399L184.896 326.31C185.808 326.167 186.917 325.964 188.068 325.831C188.317 325.316 188.776 324.919 189.477 324.806C189.685 324.772 189.895 324.75 190.104 324.727L190.101 324.706V324.706C191.814 324.581 191.668 321.684 191.17 320.583ZM75.05 377.73C75.0209 377.777 74.9888 377.822 74.9546 377.866L74.9017 377.931L75.181 377.809L75.05 377.73V377.73ZM220.957 313.628C213.716 313.03 206.488 313.373 199.249 313.761C198.717 315.671 196.741 317.336 194.788 317.445C196.376 319.737 196.612 322.887 195.6 325.385C197.901 326.236 199.904 327.817 201.153 330.108C202.885 333.285 202.758 336.871 201.198 339.885C202.623 341.112 203.496 343.142 203.462 345.076C203.423 347.233 202.185 349.105 201.163 350.915C200.058 352.873 200.061 354.572 199.761 356.742C199.321 359.916 197.237 361.887 194.523 363.153L194.683 363.723C195.459 366.459 196.411 369.343 198.482 371.307C201.146 373.833 205.179 373.709 208.618 373.788L208.784 373.792C211.934 373.871 215.083 373.978 218.231 374.078L220.593 374.152C224.219 374.261 227.696 374.199 230.593 371.731C235.321 367.704 238.469 361.153 240.421 355.375C244.518 343.247 244.244 330.056 241.917 317.588C235.098 315.574 228.04 314.212 220.957 313.628ZM161.392 335.056L161.446 335.058C162.937 335.191 163.988 336.37 164.387 337.79C164.967 339.854 164.754 341.738 166.072 343.581C167.428 345.476 168.27 347 168.519 349.377C168.622 350.355 168.61 351.333 168.852 352.287L169.027 352.955C169.212 353.667 169.367 354.354 169.302 355.126C169.243 355.829 168.915 356.384 168.217 356.627C165.943 357.417 164.131 355.771 163.486 353.648C162.929 351.815 163.557 349.598 162.792 347.882C162.369 346.931 161.611 346.146 161.171 345.189C160.734 344.24 160.502 343.243 160.41 342.203C160.235 340.234 161.92 337.822 160.903 336.06C160.686 335.684 160.906 335.056 161.392 335.056ZM130.436 315.465C131.981 315.111 133.724 314.344 135.27 314.908C136.065 315.198 136.477 316.148 135.829 316.832C134.703 318.018 133.027 318.124 131.479 318.435L131.343 318.463C129.513 318.849 127.679 319.218 125.842 319.569C122.386 320.23 118.921 320.824 115.442 321.343C111.868 321.875 108.283 322.359 104.69 322.746L103.3 322.895C100.265 323.213 97.1054 323.475 94.1103 323.083C93.675 323.026 93.7292 322.393 94.0902 322.273C97.3343 321.202 100.913 320.848 104.282 320.346C107.864 319.811 111.438 319.251 115.002 318.604C118.56 317.957 122.112 317.27 125.649 316.52C127.247 316.182 128.843 315.83 130.436 315.465ZM186.375 310.901C185.001 310.452 183.484 309.774 182.014 310.05C179.478 310.526 177.274 313.063 175.3 314.747L176.307 314.525C181.459 313.401 188.288 312.159 192.716 315.345C192.726 315.325 192.734 315.306 192.746 315.287C193.084 314.745 193.48 314.319 193.913 313.852C193.954 313.811 193.994 313.769 194.033 313.726L194.266 313.465L193.714 313.289C192.531 312.903 191.129 312.402 190.907 312.33L190.892 312.325C189.385 311.855 187.876 311.391 186.375 310.901ZM141.151 203.398C140.87 200.662 145.135 200.579 145.414 203.292C146.022 209.216 144.832 215.128 142.087 220.402C142.067 220.441 142.045 220.475 142.023 220.511C143.844 221.402 145.684 222.255 147.562 223.011C149.964 223.979 152.409 224.854 154.894 225.586C157.142 226.248 159.896 226.464 161.808 227.911C165.839 230.962 164.516 237.534 163.86 241.789L163.758 242.461C163.433 244.65 163.215 246.894 164.185 248.963C165.222 251.174 167.247 252.782 169.056 254.337L169.421 254.653C171.025 256.043 172.859 257.735 174.057 259.643C175.053 257.446 176.44 255.636 177.904 253.601C178.948 252.149 178.168 251.698 177.358 250.324C176.578 249.002 176.179 247.583 176.374 246.048C176.735 243.213 178.941 241.118 181.148 239.529C183.755 237.654 186.682 236.241 189.382 234.49C194.93 230.892 200.318 226.803 205.152 222.29C205.286 222.165 205.526 222.318 205.421 222.487C201.664 228.524 197.212 233.772 191.694 238.269C189.456 240.092 187.095 241.617 184.721 243.218L184.038 243.68C183.085 244.332 181.897 245.201 181.486 246.28C181.072 247.366 182.032 248.155 182.56 249.032C184.236 251.82 183.526 254.478 181.681 256.923L181.595 257.036C179.76 259.416 178.38 261.621 177.768 264.619C176.452 271.059 178.67 277.678 180.968 283.636L181.059 283.871C182.302 287.082 183.617 290.268 184.709 293.535L185.009 294.438C185.999 297.445 186.823 300.413 185.873 303.553C185.55 304.621 184.113 304.907 183.488 303.925C181.285 300.462 180.653 296.245 179.231 292.413C177.846 288.678 176.27 285.016 174.928 281.265C173.2 276.436 171.994 271.22 172.451 266.098C172.434 266.069 172.414 266.042 172.399 266.01L171.967 265.125C170.791 262.728 169.661 260.637 167.584 258.754C165.417 256.791 163.075 255.063 161.349 252.663C157.6 247.451 159.692 241.498 159.985 235.691L160.018 234.979C160.067 233.773 160.07 232.136 159.264 231.323C158.356 230.407 156.277 230.219 155.094 229.833C152.036 228.835 149.018 227.658 146.136 226.227C143.393 224.865 140.73 223.351 138.242 221.562L136.981 220.661C134.991 219.235 132.925 217.675 131.567 215.701C131.41 215.473 131.657 215.094 131.933 215.198C134.141 216.031 136.173 217.393 138.248 218.57C138.278 218.494 138.313 218.418 138.353 218.341C140.769 213.698 141.684 208.597 141.151 203.398ZM211.741 233.051C212.552 230.641 216.525 230.727 216.437 233.569C216.37 235.753 215.493 237.744 214.696 239.745L214.611 239.959C213.789 242.044 212.828 244.005 211.667 245.926C209.45 249.597 206.831 253.018 204.023 256.254C201.477 259.189 198.086 261.029 194.122 260.835C192.451 260.754 190.757 260.371 189.276 259.574C187.516 258.627 185.557 255.701 183.361 256.476C183.149 256.551 182.941 256.242 183.123 256.088C185.628 253.966 188.608 257.087 191.074 257.796C194.79 258.863 198.543 257.488 200.842 254.447C203.243 251.272 205.438 247.73 207.437 244.288C208.452 242.54 209.372 240.73 210.16 238.868C210.955 236.988 211.096 234.964 211.741 233.051ZM205.433 218.498C205.317 218.171 205.719 217.847 206.013 218.028C207.72 219.08 209.211 220.489 210.792 221.718C212.545 223.081 214.311 224.415 216.103 225.727C218.715 227.641 215.832 231.353 213.523 229.25C210.362 226.372 206.884 222.593 205.433 218.498ZM195.925 207.164C196.542 204.515 200.605 205.501 200.081 208.117L200.064 208.196C199.056 212.521 200.751 216.856 204.207 219.558L204.334 219.656C206.519 221.319 203.558 224.393 201.394 222.746C196.671 219.153 194.588 212.902 195.925 207.164Z" fill="black"/>
<path fill-rule="evenodd" clip-rule="evenodd" d="M228.903 122.501C227.312 111.925 222.858 100.763 218.222 90.9808C207.832 70.3123 185.158 67.9927 164.79 64.1825C144.723 61.7656 123.485 59.6604 103.936 65.9581C92.9317 68.9454 88.9342 82.243 90.9392 92.6089C92.097 99.0705 95.2003 105.136 97.8659 111.085C103.174 123.307 106.675 136.445 107.011 149.811C106.884 158.554 105.898 168.554 116.024 172.005C125.689 176.519 126.815 189.375 138.951 196.384C144.028 206.06 157.218 206.597 166.752 208.634C172.771 209.633 178.85 210.327 184.938 210.722C202.583 212.541 216.528 207.094 225.347 191.191C231.272 181.499 235.588 170.371 234.168 158.837C232.738 146.69 230.557 134.626 228.903 122.501Z" fill="white"/>
<path fill-rule="evenodd" clip-rule="evenodd" d="M164.312 38.7626C165.288 37.5995 166.844 37.9516 167.805 38.8285C168.421 38.9935 169.02 39.2468 169.588 39.5875C170.848 39.394 172.173 39.3612 173.413 39.376C173.71 39.1998 174.029 39.0417 174.376 38.9041C176.86 37.9255 179.091 38.3361 180.952 39.518C181.813 38.6616 182.913 38.1103 184.337 38.1543C185.608 38.1938 186.527 38.7688 187.322 39.5366C188.067 38.4024 189.297 37.5759 190.851 37.4267C193.023 37.2181 195.136 38.0392 196.903 39.3477C197.885 38.1636 199.245 37.4633 200.78 37.4189C201.785 37.2105 202.852 37.2565 203.822 37.5235C205.23 37.9111 206.477 38.672 207.48 39.6747C208.99 38.155 210.857 37.0421 213.043 37.1435C215.873 37.2778 218.266 39.2976 219.418 41.8281C221.349 42.5469 223.141 43.596 224.655 45.1176C224.735 45.1977 224.813 45.2818 224.894 45.3661C225.696 45.6398 226.454 46.0371 227.127 46.5685C229.257 48.2544 229.785 50.7573 229.155 53.2383C229.261 53.6303 229.354 54.0294 229.439 54.4284C231.401 54.6773 233.205 55.7619 234.26 57.5744C235.705 60.0618 235.515 63.3921 234.078 65.8365C233.46 66.888 232.665 67.7807 231.766 68.5664C232.862 70.8975 232.434 73.7223 230.809 75.67C230.418 76.3373 229.932 76.9429 229.383 77.4937C230.064 79.9151 229.021 82.4565 226.848 83.8131L226.671 84.2901C226.641 84.3694 226.611 84.4483 226.58 84.5265C226.558 84.6274 226.53 84.7252 226.503 84.8238C226.472 85.6897 226.208 86.5453 225.663 87.3588C224.547 89.0258 223.14 90.1297 222.427 92.0612L222.355 92.264C222.051 93.1773 221.011 93.842 220.105 93.5849C225.353 103.72 228.253 115.07 230.328 126.212C231.362 131.771 232.192 137.354 232.892 142.962L233.581 148.547C234.188 153.511 234.743 158.493 234.869 163.485C235.156 174.779 232.195 185.722 225.486 194.881C219.141 203.539 210.016 209.926 199.596 212.61C188.838 215.378 176.121 214.707 166.276 209.224C163.374 207.612 165.78 203.502 168.724 204.784C174.298 207.212 179.945 208.979 186.064 209.254C192.029 209.525 197.979 208.633 203.577 206.544C212.838 203.086 220.619 196.13 225.52 187.587C227.935 183.376 229.646 178.829 230.498 174.048C231.559 168.089 231.225 161.965 230.633 155.972L230.592 155.563C229.429 144.015 227.984 132.403 225.831 120.995C223.928 110.906 221.142 101.046 217.604 91.4229C216.284 90.3173 214.816 89.4118 213.252 88.7352C201.916 88.5424 190.575 88.9615 179.286 90.0231C169.657 90.9328 160.087 92.3055 150.602 94.1957L149.586 94.4002C147.487 94.8281 145.151 95.101 143.184 95.9995C141.498 96.7724 140.842 98.1935 140.455 99.9303C139.482 104.323 139.435 109.106 139.364 113.588C139.293 117.969 139.807 122.372 139.564 126.743C139.357 130.4 138.515 134.159 135.877 136.866C134.497 138.284 132.776 139.082 131.169 140.172C130.13 140.876 129.7 141.585 129.867 142.835C130.228 145.572 132.523 148.973 130.1 151.385C129.673 151.807 128.919 151.88 128.478 151.425C127.426 150.336 125.991 149.522 124.755 148.653C124.237 148.294 124.642 147.56 125.225 147.803C125.992 148.125 126.776 148.507 127.576 148.838C125.793 147.442 123.29 146.797 121.21 146.429C120.163 146.247 119.066 146.214 117.984 146.338C117.191 146.74 116.38 147.116 115.569 147.483C114.538 147.946 113.495 148.369 112.444 148.772C108.842 151.861 107.208 156.779 108.092 161.528C108.576 164.15 109.861 166.982 112.187 168.462C114.942 170.214 118.553 169.343 121.516 170.621C124.29 171.818 126.021 174.331 127.336 176.943L127.885 178.031C129.105 180.439 130.356 182.781 131.995 184.959C133.892 187.482 136.194 189.733 138.692 191.654C139.904 192.583 141.192 193.414 142.52 194.167L142.883 194.371C144.227 195.115 145.194 195.833 145.324 197.475C145.367 198.047 145.019 198.579 144.56 198.888C142.587 200.209 140.553 198.668 138.857 197.599C137.027 196.447 135.271 195.143 133.641 193.714C130.543 191.003 127.841 187.758 125.736 184.215C124.132 181.517 123.163 177.688 120.683 175.627C119.169 174.371 117.074 174.412 115.217 174.221C113.489 174.042 111.851 173.724 110.298 172.913C103.979 169.604 102.009 161.263 103.328 154.747C103.551 153.648 103.876 152.575 104.284 151.54C101.973 151.984 99.3072 149.649 100.189 147.204C100.256 147.02 100.334 146.846 100.408 146.668C98.8547 145.7 97.6103 144.204 96.988 142.223C96.6689 141.199 96.6001 140.157 96.7292 139.147C95.9757 138.668 95.3465 137.999 94.9318 137.167C93.686 136.628 92.5729 135.802 91.8911 134.601C90.9472 132.943 91.0235 131.393 91.6765 129.982C91.5754 129.81 91.4779 129.633 91.3839 129.452C88.82 127.914 86.9902 125.199 87.1149 122.135C87.1543 121.12 87.3823 120.2 87.7486 119.367C87.7138 119.264 87.6789 119.157 87.6477 119.054C85.5086 118.032 83.7177 116.31 83.0363 113.968C82.3546 111.612 83.0301 109.23 84.453 107.374C82.2658 105.855 80.9189 103.691 81.6208 100.351C81.906 98.9933 82.5165 97.7485 83.3573 96.6919C83.353 96.6601 83.345 96.6281 83.337 96.5957L83.1322 96.4447C80.4283 94.4168 78.8377 91.7865 80.3843 88.4649C81.0781 86.9715 82.0946 85.9173 83.3023 85.2101L83.3584 85.0151V85.0151C82.4346 83.1564 82.0858 81.0755 82.6365 78.8649C83.0858 77.0442 84.221 75.5749 85.6939 74.5819C85.5736 73.7745 85.5666 72.9113 85.7045 71.9721C85.934 70.3862 86.6839 68.9878 87.8055 67.9816C87.8433 67.7724 87.8919 67.5673 87.9477 67.3613C88.3035 66.102 88.9931 64.7266 89.806 63.699C90.4764 62.8473 91.2422 62.5237 92.1866 62.468C92.1103 61.6997 92.1303 60.9175 92.2683 60.1221C92.6912 57.6676 94.1882 55.3328 96.4646 54.2335C97.3993 53.7839 98.3916 53.6342 99.3537 53.714C100.127 51.9745 101.69 50.6889 103.642 50.3718C104.402 50.2455 105.111 50.2347 105.765 50.3156C106.129 50.1342 106.509 49.9711 106.906 49.8211C107.169 49.7214 107.435 49.6288 107.702 49.5365C108.58 48.3894 109.75 47.4605 111.129 46.8855C112.721 46.2189 114.359 46.2425 115.822 46.7331L116.282 46.625V46.625C116.974 45.3534 118.103 44.3542 119.864 43.8698C121.864 43.3221 123.947 43.9658 125.561 45.1913C125.568 45.1912 125.575 45.191 125.586 45.1868C126.367 43.3145 127.75 41.99 130.126 42.0208C131.606 42.0415 132.959 42.743 134.016 43.7634C134.588 43.6772 135.159 43.5986 135.734 43.5202C136.325 42.792 136.985 42.1094 137.718 41.4927C138.919 40.4806 140.514 40.5203 141.45 41.8802C141.655 42.1762 141.845 42.4761 142.035 42.776L142.861 42.6982V42.6982C143.802 41.3596 145.108 40.4384 146.925 40.3221C148.592 40.2124 149.801 41 150.735 42.1198C151.472 42.0836 152.213 42.0513 152.954 42.0218C153.792 41.0011 154.787 40.0948 155.929 39.3354C156.803 38.7547 158.119 38.9124 158.857 39.6396C159.355 40.134 159.821 40.6515 160.255 41.1884C161.31 39.9452 162.755 39.1076 164.312 38.7626ZM114.432 153.808C116.081 152.814 118.355 153.79 119.993 154.56C121.99 155.496 123.986 156.934 125.238 158.766C126.944 161.262 123.132 163.406 121.346 161.174C120.248 159.8 119.365 158.41 118.045 157.217C116.84 156.121 115.113 155.412 114.4 153.945C114.373 153.896 114.379 153.838 114.432 153.808ZM114.083 92.2252L114.112 92.135C114.555 90.8219 112.466 90.3124 112.026 91.6146C111.36 93.5883 112.237 95.6945 114.189 96.4913C114.73 96.7123 115.339 96.6158 115.649 96.0695C115.908 95.6097 115.763 94.8276 115.227 94.609C114.129 94.1606 113.744 93.3305 114.083 92.2252V92.2252ZM96.1149 89.0292C97.1308 88.0865 95.5691 86.6088 94.5581 87.5474C93.6146 88.423 92.9279 89.5976 93.1466 90.9237C93.3696 92.2751 94.4155 93.2072 95.5512 93.8561C96.7548 94.5442 97.7897 92.6599 96.5894 91.9735L96.4545 91.8955C95.9505 91.5994 95.3589 91.1897 95.2599 90.585C95.1548 89.9425 95.6876 89.4257 96.1149 89.0292ZM101.61 72.7034L101.683 72.6474C102.779 71.8232 101.661 69.985 100.552 70.8185C99.5357 71.583 98.7295 72.5635 98.6749 73.8895C98.6219 75.1782 99.304 76.2774 100.182 77.1614C101.159 78.1446 102.639 76.5855 101.664 75.6043C100.714 74.648 100.506 73.584 101.61 72.7034V72.7034Z" fill="black"/>
<path fill-rule="evenodd" clip-rule="evenodd" d="M200.874 178.851C201.4 177.882 202.643 176.965 203.803 177.073C209.003 177.552 209.149 183.84 207.238 187.56C205.544 190.859 201.918 192.861 198.235 192.673C194.365 192.475 191.018 190.285 189.481 186.706C188.464 184.339 187.912 179.936 190.42 178.267C190.466 178.235 190.545 178.241 190.583 178.283C191.84 179.675 191.941 181.808 193.05 183.364C194.081 184.812 195.656 185.989 197.471 186.132C198.827 186.239 200.182 185.717 200.681 184.49C200.951 183.826 200.909 183.47 200.791 183.021L200.683 182.631C200.31 181.263 200.132 180.219 200.874 178.851ZM201.578 151.242C204.322 152.819 208.537 156.55 205.729 160.698C202.394 164.377 197.363 160.378 194.888 158.575C192.599 157.186 190.161 160.964 192.292 162.598C210.167 175.164 216.703 151.297 202.897 149.275C201.377 149.052 200.857 150.751 201.578 151.242ZM172.747 140.675C174.345 138.143 178.142 138.416 179.129 141.349C179.664 142.938 179.016 144.394 179.091 145.992C179.154 147.342 179.103 148.849 178.721 150.168C177.851 153.174 175.222 155.347 172.047 155.338C168.883 155.33 166.048 153.396 164.654 150.609C163.255 147.811 163.463 144.875 164.362 141.972C164.406 141.833 164.585 141.762 164.697 141.875C165.874 143.066 166.746 144.333 167.648 145.677L168.573 147.054C169.28 148.091 170.302 149.413 171.57 149.297L171.761 149.273C172.113 149.234 172.061 149.305 172.321 148.817C172.441 148.591 172.408 148.178 172.463 147.913L172.482 147.824V147.824L172.469 147.777C172.439 147.65 172.406 147.411 172.374 146.995L172.367 146.903C172.227 144.958 171.615 142.469 172.747 140.675ZM214.855 141.292C214.479 138.113 218.938 137.295 220.485 139.615C221.292 140.825 221.556 142.364 221.764 143.823L221.861 144.515C222.075 146.013 222.183 147.575 221.566 148.992C220.594 151.225 218.389 152.448 215.976 152.322C213.671 152.202 211.539 150.92 210.383 148.922C209.352 147.139 208.284 143.634 209.435 141.72C209.504 141.604 209.649 141.585 209.75 141.671C210.907 142.648 211.137 144.478 211.842 145.771C212.57 147.105 213.656 148.395 215.257 148.561C216.788 148.72 217.351 147.871 216.925 146.425C216.376 144.557 215.094 143.31 214.855 141.292ZM173.487 121.705L174.213 121.407C176.698 120.397 180.114 119.216 182.204 121.206C183.494 122.433 183.779 124.281 182.919 125.838C181.877 127.725 179.927 127.819 178.049 128.14C175.913 128.505 173.747 129.151 171.772 130.045C169.548 131.053 167.491 132.291 165.48 133.666C163.568 134.973 161.683 137.079 159.367 137.524C159.273 137.543 159.164 137.504 159.137 137.401C158.552 135.139 159.964 132.865 161.23 131.058C162.762 128.87 164.638 127.059 166.745 125.425C168.779 123.848 171.118 122.686 173.487 121.705ZM219.255 128.664L219.477 128.619C220.992 128.328 222.372 128.352 223.549 129.529C224.446 130.427 224.813 131.61 224.426 132.836C224.069 133.967 223.236 135.128 221.993 135.394C217.795 136.292 213.121 136.277 208.867 135.78C206.921 135.553 204.956 135.265 203.054 134.781L202.179 134.551C200.591 134.139 198.774 133.713 197.6 132.581C197.178 132.174 197.4 131.572 197.888 131.366C199.867 130.534 202.617 130.883 204.747 130.769C207.224 130.636 209.703 130.389 212.163 130.072C214.568 129.761 216.888 129.159 219.255 128.664Z" fill="black"/>
<path fill-rule="evenodd" clip-rule="evenodd" d="M170.591 188.862C173.322 181.996 179.525 176.847 186.764 174.841C192.081 173.371 197.695 173.275 203.162 173.671C206.025 173.876 209.095 174.026 211.814 175.021C214.136 175.871 216.052 177.538 217.51 179.516C219.246 181.858 220.455 184.559 221.325 187.336C221.448 187.73 221.565 188.128 221.675 188.528C221.379 190.647 220.684 192.462 218.763 193.837C216.889 195.179 214.627 195.766 212.364 196.01C212.139 195.909 211.921 195.804 211.721 195.697C208.137 193.76 205.532 189.039 201.087 189.797C197.121 190.474 194.625 195.549 192.331 198.545C184.754 199.619 177.105 197.523 170.815 193.33C170.464 191.85 170.409 190.35 170.591 188.862M226.689 182.316C226.039 180.625 225.232 178.991 224.286 177.457C221.159 172.382 216.451 168.394 210.926 166.184C197.856 160.965 181.218 165.284 170.999 174.628C167.508 177.823 164.013 182.476 163.044 187.413C162.72 187.485 162.416 187.662 162.169 187.908C154.505 183.342 146.621 178.961 140.377 172.523C135.843 167.846 132.631 162.257 130.596 156.079C130.43 155.57 129.605 155.665 129.644 156.232C129.655 156.364 129.665 156.496 129.676 156.629C129.591 156.387 129.222 156.522 129.2 156.759C128.375 164.346 127.308 172.395 128.661 179.968C129.471 184.486 131.613 187.756 134.455 191.274C137.5 195.044 140.928 198.536 144.428 201.88C146.649 204.002 148.974 206.456 151.667 207.986C154.799 209.764 158.334 211.086 161.663 212.435C165.049 213.812 168.483 215.076 171.977 216.159C178.961 218.332 186.16 219.776 193.461 220.305C199.307 220.728 205.987 221.18 211.522 218.847C215.764 217.059 219.146 213.933 221.798 210.207C224.685 206.15 226.933 201.554 228.119 196.736C229.352 191.732 226.994 183.11 226.689 182.316" fill="black"/>
<path fill-rule="evenodd" clip-rule="evenodd" d="M510.264 228.206C510.239 229.911 510.069 233.827 509.642 235.478C514.399 227.836 521.528 219.484 522.612 210.124C522.274 210.031 520.775 209.893 520.513 209.696C518.052 210.842 518.518 207.315 518.154 205.684C517.172 202.23 515.108 198.833 514.211 195.357C511.853 194.335 516.587 193.903 517.275 193.882C514.416 190.692 513.101 186.306 511.065 182.585C508.073 176.26 505.394 169.795 503.002 163.228C502.479 167.342 502.385 171.502 502.704 175.639C503.687 193.361 510.331 210.402 510.264 228.206ZM345.143 196.725C346.623 196.975 349.089 197.211 350.567 197.332C348.628 196.174 342.897 193.967 346.509 191.984C347.622 191.576 348.817 192.158 349.94 192.337C354.603 193.106 360.361 193.066 365.078 192.678C363.359 191.264 361.094 189.227 359.416 187.763C358.524 186.985 357.659 186.69 358.663 185.529C360.431 183.879 363.594 185.094 365.638 185.819C371.278 188.986 377.647 192.421 383.7 194.857C383.764 194.007 383.724 192.908 384.542 192.337C386.941 191.205 388.707 191.536 391.259 191.234C394.234 190.787 396.878 190.279 399.824 189.491C401.751 188.018 402.926 183.675 406.007 184.16C403.278 177.279 407.437 170.099 409 163.509C410.949 156.766 411.974 149.762 412.002 142.75C412.021 131.524 418.51 122.91 427.885 117.15C431.581 114.648 434.063 108.564 438.639 107.346C439.221 105.108 439.257 104.125 439.768 101.87C440.024 101.222 440.215 97.7079 440.86 97.8275C441.572 94.3462 445.198 92.95 448.335 92.2209C452.415 91.3736 458.108 90.3473 461.776 92.7381C462.838 93.6238 463.304 95.107 463.382 96.4319C463.79 98.1962 464.637 100.024 465.625 101.555C467.312 100.984 466.357 99.9199 468.025 99.6722C483.253 97.4104 500.155 108.606 510.035 119.527C527.944 137.957 542.251 163.116 539.909 189.383C540.539 189.29 543.331 188.851 543.29 189.735C543.154 193.579 542.448 196.785 542.253 200.626C542.447 205.714 537.172 206.327 533.361 207.582C533.596 222.345 528.244 237.111 519.868 249.246C517.833 251.634 514.779 259.921 511.065 256.62C510.627 256.107 514.022 252.552 514.626 251.674C516.688 249.073 522.15 236.191 518.29 233.618C517.432 236.399 509.121 249.77 507.639 242.18C505.672 243.325 502.42 244.106 500.068 243.988C495.646 246.388 491.344 248.98 487.097 251.674C485.119 255.567 482.218 259.306 479.787 263.044C496.609 301.984 513.028 366.075 534.676 402.751C536.563 405.146 526.18 409.217 524.346 410.096C527.853 415.803 528.292 422.417 530.961 428.562C531.469 428.48 531.982 428.588 532.44 428.834C535.731 431.068 536.974 439.065 537.161 443.008C537.009 444.767 537.66 447.427 536.24 448.722C536.438 448.937 536.586 449.2 536.692 449.469C537.691 450.248 537.568 451.971 537.034 453.039C535.154 456.948 521.417 456.585 516.959 457.422C501.167 458.762 487.913 458.973 472.124 457.508C470.186 457.101 471.651 454.071 472.608 453.249C472.166 452.98 471.884 452.488 472.077 451.855C475.667 441.568 488.64 442.264 496.49 436.77C494.426 435.573 495.758 435.955 497.055 436.421C498.432 435.554 499.771 434.578 501.011 433.501C500.058 432.911 500.528 432.522 501.559 433.015C503.183 431.71 504.448 429.692 506.517 429.06C508.544 428.562 508.544 427.693 508.544 427.146C507.337 422.286 506.02 417.302 505.343 412.373C504.621 413.441 498.389 404.887 497.055 402.751C491.874 394.528 491.888 386.424 488.262 377.481C480.817 358.006 465.565 317.189 456.264 298.563C434.502 334.102 445.102 382.167 431.677 420.064C431.08 421.203 429.958 425.473 428.404 424.241C427.8 424.383 427.158 424.459 426.583 424.54C426.749 428.683 427.059 432.815 427.746 436.914C428.385 437.084 428.929 437.42 429.211 438.009C430.288 437.216 432.351 448.914 432.528 450.106C432.531 451.643 433.853 455.065 432.645 455.979C434.385 456.692 434.669 459.329 433.446 460.685C429.812 465.579 412.102 464.234 405.568 465.055C397.306 464.849 362.741 467.95 360.341 460.095C359.864 458.301 360.682 456.038 362.345 455.348C361.68 453.79 363.274 452.287 364.249 451.194C370 445.199 378.842 444.255 386.499 441.646C386.213 441.353 396.493 436.074 398.722 434.769C398.575 432.997 402.25 434.774 402.26 434.769C404.012 431.666 405.254 426.836 406.429 423.488C404.26 422.814 399.036 422.216 398.067 420.064C394.955 419.018 398.077 414.495 398.722 412.373C416.965 366.628 399.657 308.928 426.583 265.752C421.647 262.92 415.985 256.72 420.86 251.519C421.836 250.269 424.223 246.377 424.183 247.056C425.09 243.35 427.115 236.966 427.746 233.219C430.062 219.46 428.544 206.574 426.583 192.678C423.861 203.134 414.478 211.845 404.934 216.622C401.209 218.163 396.29 221.342 392.201 220.339C388.51 219.245 381.806 211.651 381.016 208.004C370.257 209.286 359.085 208.257 348.802 204.868C347.482 204.367 345.92 204.41 346.328 202.532C346.735 200.939 349.638 201.345 350.886 201.641C348.978 200.582 344.026 200.304 344.064 197.533C344.128 196.956 344.554 196.626 345.143 196.725Z" fill="white"/>
<path fill-rule="evenodd" clip-rule="evenodd" d="M347.986 199.351C351.426 200.818 354.977 202.227 358.725 202.601C359.58 202.687 359.591 204.036 358.725 203.952C355.611 203.649 352.489 203.359 349.416 202.753C349.029 202.676 347.019 201.963 346.907 202.638C347.35 204.255 355.446 205.905 357.246 206.236C367.908 208.877 378.62 206.793 389.325 206.675C390.394 206.356 391.493 206.373 392.522 206.704C393.09 206.722 393.659 206.747 394.227 206.781C392.143 202.318 389.162 198.34 385.631 194.936C383.056 196.114 375.973 192.571 373.314 191.429C368.875 189.491 364.9 185.269 359.698 186.13C362.206 188.387 364.94 190.354 367.491 192.561C368.145 193.132 367.599 194.197 366.809 194.211C361.269 194.592 355.718 194.63 350.233 193.629C346.345 192.882 346.283 193.004 349.633 195.175C351.405 196.308 353.479 197.382 355.649 197.141C356.834 197.108 356.756 198.793 355.649 198.936C352.434 199.051 349.16 198.957 345.982 198.416C346.652 198.852 347.621 199.189 347.986 199.351M395.013 208.927C395.058 208.976 395.104 209.022 395.149 209.068C395.171 209.077 395.192 209.086 395.213 209.095C395.124 208.869 395.037 208.645 394.954 208.428C394.951 208.427 394.948 208.427 394.946 208.426C395.002 208.59 395.023 208.759 395.013 208.927M420.568 280.22C404.504 324.86 417.404 375.002 398.888 418.896C399.09 419.064 399.237 419.356 399.247 419.669C401.648 419.901 403.986 421.008 406.385 421.431C413.362 423.063 420.543 423.401 427.685 423.485C427.687 423.484 427.689 423.483 427.691 423.482C427.885 423.42 428.169 423.463 428.448 423.488C429.958 417.581 432.24 411.867 433.362 405.846C444.921 328.498 433.161 320.586 486.845 253.494C469.508 265.418 446.433 279.429 425.786 267.056C423.908 271.385 422.093 275.753 420.568 280.22M404.631 433.463C404.372 434.159 404.15 434.881 403.765 435.468C411.735 444.705 415.716 440.083 425.296 437.312C425.052 433.1 425.517 428.926 426.259 424.779C419.852 425.771 413.294 425.309 406.946 424.107C406.642 427.319 405.732 430.443 404.631 433.463M398.722 434.769C397.111 436.368 395.37 437.868 393.42 439.058C394.668 440.089 397.463 440.837 397.64 442.605C397.611 444.204 395.053 444.334 395.667 442.832C394.587 441.721 393.223 440.928 392.07 439.887C390.896 440.58 389.693 441.205 388.466 441.779C389.609 442.693 391.307 443.412 391.558 444.987C391.647 445.756 390.806 446.114 390.201 446.023C388.642 445.467 387.781 443.599 386.381 442.702C377.909 446.124 368.191 448.234 362.505 456.038C362.71 456.143 362.857 456.296 362.952 456.475C365.17 456.127 367.442 456.988 369.662 457.197C376.528 458.23 383.457 458.852 390.395 459.103C402.051 459.461 413.741 458.799 425.307 457.374C426.983 457.094 428.658 456.651 430.272 456.07C429.95 452.012 429.488 447.883 429.317 443.771C429.126 443.617 429.013 443.35 429.057 443.079C429.19 442.247 429.155 441.059 428.878 440.076C428.835 440.009 428.791 439.942 428.742 439.879C428.171 439.14 427.206 438.933 426.317 438.988C426.245 438.992 426.172 439.001 426.099 439.012C425.978 439.075 425.861 439.15 425.751 439.238C425.704 439.245 425.658 439.25 425.61 439.258C425.578 439.264 425.55 439.273 425.523 439.283C425.501 439.246 425.481 439.206 425.462 439.166C424.911 439.335 424.35 439.562 423.813 439.588C419.498 441.478 415.149 443.864 410.325 442.962C406.653 442.365 404.516 439.195 401.859 436.942C400.919 436.078 399.598 435.675 398.722 434.769M362.205 458.251C351.105 466.355 416.739 462.933 420.342 462.548C423.721 462.237 434.249 462.583 432.309 457.057C431.725 457.242 431.065 457.073 430.685 456.685C418.782 463.775 375.227 463.226 362.205 458.251M458.604 300.715C459.358 302.156 460.156 303.572 460.897 305.019C461.07 305.358 461.241 305.697 461.41 306.038C461.639 306.38 461.867 306.723 462.092 307.066C466.223 313.432 468.473 321.188 471.896 329.603C480.419 350.557 488.512 375.589 494.627 393.379C496.886 398.282 499.377 403.106 502.502 407.519C503.194 408.859 504.923 409.949 504.988 411.478C505.006 411.496 505.025 411.514 505.044 411.533C505.149 411.636 505.253 411.739 505.358 411.842C506.986 410.988 511.586 410.964 513.194 410.424C520.121 409.067 526.817 406.561 532.924 403.018C516.716 369.062 500.289 321.033 486.906 285.201C486.003 282.976 485.109 280.748 484.207 278.524C482.877 275.245 481.393 271.989 480.233 268.646C479.872 267.603 479.605 266.484 479.64 265.375C472.177 276.348 464.357 287.146 457.795 298.699C457.964 299.409 458.283 300.101 458.604 300.715M506.86 415.78C508.092 419.571 509.408 423.378 510.353 427.253C510.394 427.43 510.403 427.597 510.388 427.753C510.398 427.778 510.407 427.804 510.417 427.83C510.581 428.26 510.797 428.629 510.741 429.04C520.073 433.137 518.395 438.03 528.114 430.712C528.437 430.526 528.779 430.342 529.134 430.184C529.119 430.142 529.105 430.098 529.094 430.051C528.868 429.034 528.721 428.006 528.653 426.969C528.299 425.439 527.96 423.905 527.576 422.383C527.068 420.918 526.553 419.455 526.062 417.989C526.012 417.867 525.962 417.745 525.911 417.624C525.166 415.861 524.447 413.966 524.291 412.055C524.199 411.685 524.112 411.314 524.028 410.943C523.793 410.87 523.63 410.705 523.539 410.504C517.971 412.439 512.119 414.018 506.202 414.094C506.435 414.651 506.663 415.209 506.86 415.78M505.854 429.784C504.099 430.248 503.174 431.98 502.066 433.374C503.342 434.258 504.394 435.533 505.125 436.915C505.609 437.364 506.062 437.843 506.464 438.363C506.966 439.117 505.822 440.001 505.21 439.332C503.937 437.654 502.637 435.926 500.867 434.724C500.014 435.66 499.103 436.541 498.157 437.386C499.013 438 499.756 438.745 500.345 439.62C501.465 440.459 502.373 441.417 501.908 442.175C501.457 442.905 500.591 442.507 500.17 441.98C499.242 440.683 498.21 439.392 496.901 438.471C493.881 441.041 490.45 443.041 486.723 444.383C481.791 446.219 475.333 447.693 473.437 453.272C481.771 453.373 490.118 453.475 498.45 453.033C510.623 452.633 522.669 450.737 534.785 449.737C534.707 449.636 534.681 449.501 534.771 449.382C535.021 449.054 535.392 448.906 535.653 448.592C535.322 447.239 535.944 445.21 535.711 443.969C535.75 440.318 534.45 432.865 534.372 432.73C533.524 431.273 531.872 430.292 530.314 431.344C530.206 431.417 523.479 437.918 518.993 436.565C517.697 436.143 516.621 435.3 515.494 434.566C512.461 432.603 509.276 430.964 505.854 429.784M471.798 456.852C492.763 458.057 513.927 457.788 534.691 454.467C535.373 454.268 535.987 453.938 536.467 453.505C536.512 452.979 536.545 452.453 536.561 451.925C536.569 451.655 536.72 450.742 536.428 450.573C536.264 450.478 536.153 450.356 536.085 450.221C528.659 452.769 520.527 453.192 512.765 454.215C499.489 455.315 485.917 456.497 472.663 455.367C472.302 455.833 471.894 456.293 471.798 456.852M536.007 449.346C535.923 449.463 535.828 449.573 535.72 449.662C535.824 449.654 535.928 449.646 536.031 449.637C536.048 449.574 536.07 449.511 536.1 449.451C536.067 449.417 536.036 449.382 536.007 449.346M526.508 414.114C526.38 413.558 526.233 412.977 526.099 412.386C526.193 413.129 526.381 413.867 526.62 414.594C526.583 414.434 526.545 414.275 526.508 414.114M487.959 252.871C487.937 252.855 487.918 252.836 487.9 252.814C487.732 252.922 487.563 253.029 487.395 253.138C486.858 254.214 486.252 255.279 485.607 256.335C486.394 255.191 487.157 254.011 487.959 252.871M507.661 241.312C507.694 240.987 507.748 240.659 507.813 240.334C507.636 240.598 507.442 240.85 507.235 241.086C507.058 241.287 506.869 241.477 506.67 241.656C506.998 241.535 507.328 241.419 507.661 241.312M507.623 242.081C507.621 241.908 507.627 241.732 507.639 241.554C507.457 241.674 507.274 241.792 507.089 241.907C507.272 241.952 507.45 242.009 507.623 242.081M510.155 220.715C510.556 225.235 511.015 229.894 509.864 234.339C514.622 226.555 520.64 220.349 521.724 210.815C521.387 210.721 521.072 210.58 520.811 210.379C518.349 211.546 517.926 207.954 517.562 206.293C516.58 202.775 515.405 199.315 514.508 195.774C512.151 194.733 516.885 194.293 517.572 194.272C517.544 194.249 517.517 194.225 517.49 194.199C514.711 190.927 513.371 186.534 511.362 182.765C508.371 176.322 505.691 169.736 503.299 163.048C500.975 182.571 508.189 201.483 510.155 220.715M514.529 238.816C515.704 237.225 516.697 235.488 517.461 233.661C517.574 233.391 517.831 233.072 518.173 233.118C520.114 233.378 520.753 235.235 520.718 236.993C519.859 243.542 516.908 249.795 513.113 255.151C525.307 242.696 529.683 225.169 532.745 208.51C529.588 209.385 526.483 210.631 523.211 210.978C521.298 226.572 509.62 231.24 509.235 242.562C509.788 244.92 513.931 239.604 514.529 238.816M398.075 190.65C398.103 190.657 398.131 190.667 398.158 190.683C398.182 190.697 398.206 190.713 398.23 190.727C398.274 190.663 398.32 190.6 398.368 190.539C398.271 190.576 398.173 190.614 398.075 190.65M384.346 194.82C384.733 194.88 385.108 194.873 385.448 194.759C385.37 194.684 385.294 194.608 385.216 194.534C385.159 194.48 385.017 194.33 384.842 194.166C384.753 194.434 384.579 194.673 384.346 194.82M343.626 197.235C343.691 196.647 344.116 196.311 344.705 196.412C346.185 196.666 347.66 196.85 349.137 196.973C347.199 195.793 343.02 193.436 346.631 191.416C347.745 191 349.069 191.439 350.191 191.622C354.854 192.405 359.587 192.733 364.304 192.338C362.585 190.897 360.804 189.53 359.126 188.039C358.234 187.247 357.221 186.191 358.225 185.008C359.993 183.326 363.896 184.565 365.94 185.303C371.581 188.529 377.017 191.957 383.07 194.439C383.134 193.573 382.841 192.524 383.659 191.942C386.057 190.788 389.008 191.126 391.561 190.819C394.535 190.364 397.179 189.695 400.125 188.892C402.052 187.392 402.338 183.421 405.419 183.916C402.69 176.907 407.738 170.046 409.3 163.334C411.25 156.465 412.275 149.332 412.302 142.19C412.321 130.757 418.811 121.98 428.185 116.113C428.343 115.984 428.499 115.852 428.655 115.72C429.061 115.292 429.457 114.853 429.844 114.401C430.661 113.447 431.451 112.469 432.279 111.525C432.656 110.936 433.056 110.363 433.522 109.84C433.935 109.328 434.398 108.866 434.992 108.504C435.038 108.476 435.087 108.452 435.134 108.424C436.123 107.747 437.242 107.274 438.425 107.04C438.985 104.879 439.581 102.729 440.067 100.55C440.29 100.002 440.579 96.0307 441.178 96.4721C441.93 98.3801 441.244 115.646 437.575 113.39C437.213 117.881 437.143 124.333 442.084 126.318C450.743 129.021 461.883 109.617 465.467 103.055C464.478 103.438 463.638 101.131 463.218 98.7583C463.042 98.1965 462.898 97.6236 462.78 97.0471C462.654 96.431 462.475 95.7831 462.618 95.1627C462.665 94.9596 462.821 94.8247 463.003 94.7677C463.07 94.3929 463.181 94.1435 463.345 94.077C463.476 94.3699 463.582 94.6747 463.674 94.9859C463.682 94.9979 463.69 95.0086 463.697 95.0215C463.954 95.5153 463.98 96.0813 464.087 96.6249C464.182 97.0062 464.285 97.3834 464.418 97.7472C464.753 98.6731 465.229 99.4983 465.692 100.338C466.584 99.3698 467.991 98.8804 469.319 98.7294C470.6 98.5835 471.909 98.5746 473.198 98.5336C474.435 98.4942 475.766 98.444 476.971 98.7576C477.031 98.7731 477.041 98.8318 477.018 98.8752C503.629 100.315 530.665 140.187 537.23 162.31C539.731 170.955 541.133 180.089 540.205 189.084C540.835 188.989 543.627 188.543 543.587 189.443C543.45 193.358 542.744 197.229 542.55 201.141C542.743 206.324 537.468 206.948 533.658 208.226C533.892 223.263 528.541 238.304 520.165 250.665C518.13 253.097 514.231 260.48 510.516 257.117C510.079 256.595 510.178 255.973 510.714 255.575C511.59 254.926 512.212 253.874 512.816 252.98C514.878 250.33 521.263 237.366 518.587 234.746C517.24 237.628 512.355 246.264 508.522 244.357C507.946 243.847 507.698 243.16 507.638 242.401C507.487 242.439 507.334 242.474 507.182 242.505C505.844 243.693 501.917 245.45 500.496 245.326C500.021 245.56 499.547 245.795 499.074 246.031C497.762 246.771 496.46 247.528 495.167 248.3C494.143 248.98 493.09 249.609 492.021 250.21C491.402 250.594 490.785 250.981 490.169 251.37C489.692 252.613 488.855 253.803 488.198 254.879C487.787 255.55 487.327 256.383 486.777 257.111C486.171 258.093 485.494 259.028 484.8 259.904C483.883 261.061 482.736 262.081 481.922 263.314C481.013 264.691 481.141 266.197 481.62 267.71C482.117 269.282 482.828 270.794 483.458 272.315C484.14 273.96 484.822 275.604 485.504 277.249C486.829 280.447 488.155 283.645 489.481 286.843C490.238 288.669 490.982 290.501 491.714 292.336C491.965 292.965 492.193 293.599 492.409 294.237C506.234 326.771 520.979 371.448 536.043 402.83C537.531 404.77 530.324 407.76 526.342 409.37C526.325 409.425 526.309 409.48 526.293 409.535C526.889 410.821 527.185 412.337 527.529 413.682C527.961 415.369 528.403 417.054 528.855 418.737C529.307 420.421 529.758 422.114 530.19 423.812C530.773 425.306 531.36 426.793 531.978 428.254C532.002 428.315 532.027 428.377 532.052 428.439C532.846 428.484 533.541 428.821 534.07 429.354C534.132 429.373 534.191 429.413 534.241 429.477C537.269 433.541 538.274 438.868 538.528 443.835C538.387 445.322 538.956 448.276 537.799 449.448C538.084 449.783 538.245 450.211 538.327 450.681C539.03 451.554 538.882 453.073 538.401 454.052C536.562 459.449 494.995 459.65 487.965 459.581C482.231 459.476 476.536 459.138 470.827 458.604C469.942 458.416 469.767 457.672 469.928 456.84C469.753 455.853 470.112 454.567 470.89 453.852C470.723 453.583 470.661 453.242 470.78 452.847C474.37 442.368 487.639 443.077 495.489 437.481C495.382 437.418 495.286 437.36 495.196 437.305C495.024 437.245 494.851 437.189 494.676 437.139C493.852 436.901 494.21 435.594 495.03 435.851C495.666 436.05 496.277 436.298 496.855 436.594C497.949 435.849 499.011 435.034 500.009 434.151C499.714 433.964 499.414 433.786 499.112 433.609C498.678 433.529 498.229 433.486 497.763 433.484C497.169 433.481 497.005 432.89 497.235 432.503C497.188 432.474 497.14 432.447 497.094 432.418C497.162 432.406 497.234 432.402 497.308 432.401C497.413 432.282 497.565 432.196 497.763 432.176C499.057 432.048 500.269 432.351 501.349 432.935C502.628 431.676 503.793 430.163 505.515 429.627C504.132 429.121 503.484 427.587 505.234 427.143C506.005 427.074 506.796 427.362 507.542 427.678C506.468 423.271 505.661 418.765 505.018 414.287C504.835 414.318 504.654 414.338 504.476 414.343C503.752 414.361 503.264 413.808 502.913 413.15C502.874 413.144 502.835 413.138 502.798 413.132C501.483 412.577 500.873 411.058 499.965 410.025C497.122 406.097 494.731 401.845 492.697 397.446C485.221 375.924 474.072 340.123 465.041 319.798C462.15 313.29 459.568 307.361 456.564 300.897C434.802 337.097 445.401 381.521 431.977 420.122C431.394 421.255 430.31 425.427 428.812 424.452C428.803 424.459 428.794 424.466 428.784 424.472C428.503 424.63 428.222 424.824 427.917 424.929C427.773 424.978 427.644 424.928 427.554 424.836C427.419 425.382 427.449 426.017 427.423 426.551C427.388 427.278 427.369 428.005 427.36 428.732C427.344 430.172 427.38 431.611 427.474 433.048C427.608 434.27 427.764 435.49 427.954 436.707C428.663 436.839 429.317 437.202 429.788 437.79C430.481 438.654 430.725 439.759 430.891 440.83C430.931 441.091 430.964 441.348 430.981 441.6C431.866 445.001 432.717 449.962 432.828 450.722C432.831 452.288 434.153 455.774 432.945 456.704C434.685 457.431 434.969 460.117 433.746 461.498C430.112 466.483 412.403 465.113 405.869 465.949C397.607 465.74 360.822 468.897 358.422 460.896C357.945 459.07 358.763 456.764 360.426 456.061C359.761 454.475 361.354 452.944 362.33 451.831C368.08 445.725 376.501 443.644 384.157 440.986C383.872 440.688 382.142 439.604 382.369 439.324C383.627 439.379 384.847 439.781 385.99 440.332C387.496 439.778 388.991 439.187 390.45 438.511C386.296 435.086 388.724 436.142 391.6 437.956C391.916 437.79 392.234 437.624 392.552 437.458C392.52 437.319 392.552 437.168 392.68 437.048C393.082 436.671 393.606 436.52 394.1 436.29C394.63 436.044 395.145 435.762 395.64 435.452C396.556 434.878 397.326 433.966 398.283 433.489C398.429 433.417 398.579 433.374 398.73 433.355C399.348 432.795 400.845 433.326 401.543 433.841C401.554 433.835 401.564 433.831 401.575 433.827C403.327 430.665 404.633 427.292 405.808 423.881C403.64 423.195 398.76 422.936 397.792 420.745C394.68 419.679 396.939 414.951 397.584 412.79C415.826 366.196 398.436 310.774 425.361 266.796C420.509 263.96 415.084 257.179 419.535 251.918C419.66 251.673 419.796 251.435 419.934 251.205C420.603 250.092 421.323 249.017 421.98 247.899C422.014 247.757 422.044 247.613 422.064 247.465C422.103 247.194 422.272 247.061 422.471 247.029C423.131 245.814 423.717 244.567 424.273 243.3C427.707 227.053 428.632 210.405 426.344 193.892C423.623 204.542 414.779 212.569 405.235 217.435C401.51 219.003 396.591 222.242 392.502 221.22C388.811 220.106 382.108 212.371 381.318 208.656C370.559 209.962 359.388 208.914 349.105 205.461C347.785 204.952 345.213 204.179 345.621 202.267C346.028 200.644 347.957 200.987 349.205 201.289C347.298 200.209 343.589 200.057 343.626 197.235" fill="black"/>
<path fill-rule="evenodd" clip-rule="evenodd" d="M440.996 48.2499C458.044 47.6267 474.333 59.1043 479.818 75.3273C480.216 76.5998 478.976 77.7886 477.725 77.5734C479.005 84.0291 476.207 92.7187 468.921 93.6345C467.429 93.8231 465.929 93.7145 464.434 93.8518C463.102 93.974 455.851 98.0606 453.135 99.018C447.418 101.019 433.032 100.652 427.31 99.018C427.101 99.4928 422.657 81.2344 421.645 75.5735C421.276 73.1207 424.648 71.3048 424.399 68.7773C424.08 65.5306 420.289 61.5721 421.451 58.4812C424.512 50.6143 433.397 48.4192 440.996 48.2499Z" fill="white"/>
<path fill-rule="evenodd" clip-rule="evenodd" d="M449.462 33.9491C448.697 34.0129 447.926 34.1212 447.169 34.2637C444.869 33.8868 442.489 34.3052 440.258 35.0308C435.034 36.7299 430.005 39.6798 426.068 43.5304C424.041 45.5129 422.384 47.7966 421.363 50.4527C420.845 51.8 420.553 53.2379 420.468 54.6787L420.459 54.8534C420.435 55.3314 420.425 55.9046 420.482 56.4724C420.299 57.6187 420.137 58.7744 420.125 59.9337C420.119 60.4707 420.154 61.0069 420.219 61.5394L420.196 61.59V61.59C420.291 62.2258 420.404 62.859 420.532 63.4889L420.564 63.5306C420.582 63.6587 420.602 63.7864 420.622 63.9142C420.691 64.238 420.764 64.561 420.842 64.8829C421.01 65.5798 421.195 66.2722 421.395 66.9604C421.43 67.0811 421.396 67.1762 421.331 67.2387C421.477 67.7625 421.636 68.2824 421.812 68.7967C421.726 69.2468 421.638 69.6967 421.545 70.1451C421.061 72.4778 420.651 74.8252 420.1 77.1445C418.983 81.8513 417.285 86.4825 416.819 91.3214C416.456 95.0741 417.059 99.177 419.387 102.243C421.394 104.884 424.413 106.444 427.673 106.859C429.233 107.059 430.833 106.967 432.358 106.573L432.525 106.529C433.289 106.323 434.261 106 434.971 105.48C435.742 105.209 436.469 104.707 436.907 104.218C437.506 103.548 438.159 102.404 437.996 101.453C438.886 101.526 439.782 101.547 440.664 101.544C442.835 101.539 445.026 101.367 447.115 100.735C448.978 100.171 451.149 99.2289 452.252 97.5284C452.303 97.4483 452.217 97.3326 452.127 97.3637C451.237 97.6768 450.404 98.0997 449.486 98.3386C448.582 98.5731 447.679 98.7942 446.747 98.8906C444.926 99.0787 443.077 99.0534 441.249 98.9631L440.622 98.9304C438.666 98.8255 436.645 98.6759 434.816 97.9424C434.098 97.6548 433.434 97.2534 432.828 96.7764L432.733 96.7004C432.409 96.4363 432.074 96.2137 431.733 96.003C431.684 95.9407 431.636 95.8784 431.587 95.8146C430.812 94.8189 429.98 93.8588 429.282 92.8068C427.895 90.719 427.361 88.5495 427.288 86.0596C427.212 83.4314 427.203 80.7995 427.172 78.1706L427.161 77.2944C427.121 74.2881 427.115 71.2714 426.884 68.2725C426.777 66.8792 426.626 65.4924 426.393 64.1157L426.342 63.8209L425.965 61.6974C425.875 61.186 425.822 60.6589 425.706 60.1496C425.836 59.9359 425.987 59.7303 426.161 59.5344C426.322 59.3538 426.485 59.1786 426.648 59.0045L426.765 58.9007C427.034 58.6607 427.264 58.4317 427.481 58.1016L427.533 58.02V58.02C427.765 57.7394 427.984 57.4459 428.177 57.1234L428.213 57.0608V57.0608C428.261 57.0001 428.309 56.9393 428.359 56.8793C428.514 56.6925 428.677 56.5161 428.845 56.3471C429.435 57.4882 430.269 58.4766 431.45 59.0944C431.877 59.3179 432.398 59.1265 432.538 58.6511C432.891 57.4509 433.427 56.3349 434.137 55.3242C435.323 57.3004 437.202 58.8462 439.418 59.6004C439.971 59.7889 440.459 59.2072 440.329 58.6877C439.929 57.0909 439.849 55.4671 440.084 53.8619C440.92 54.4605 441.783 55.0242 442.668 55.5468C444.639 57.0727 446.726 58.4458 449.023 59.4319C449.554 59.6598 450.352 59.2768 450.111 58.5941C449.908 58.0192 449.741 57.4348 449.634 56.8346L449.611 56.6958C449.61 56.6916 449.61 56.6875 449.609 56.6832C454.928 64.033 467.825 71.1157 468.815 71.1839L468.842 71.1841V71.1841C468.224 71.7757 467.725 72.5067 467.399 73.3467C467.056 74.229 468.454 74.6131 468.815 73.7695L468.827 73.7413C469.383 72.3099 470.759 71.284 472.256 71.0414C473.16 71.2059 474.016 71.6429 474.599 72.3056C475.747 73.6099 475.757 75.1828 474.974 76.6667L474.859 76.8829C474.435 77.6756 473.988 78.4701 473.749 79.3406C473.457 80.409 473.678 81.4923 473.487 82.5592L473.476 82.6157C473.386 83.0901 473.19 83.6298 472.626 83.4999C472.582 83.4898 472.54 83.4763 472.498 83.4619C472.38 83.5569 472.236 83.6354 472.058 83.6875C471.621 83.815 471.139 83.7531 470.704 83.6501C470.285 83.5507 469.877 83.3947 469.485 83.2122C469.441 83.3196 469.414 83.432 469.412 83.54C469.398 84.092 469.627 84.5461 469.978 84.9155C469.418 85.6248 468.939 86.4053 468.4 87.1295C467.625 88.1682 466.833 89.1846 465.99 90.1684C465.113 91.1938 464.158 92.1628 463.167 93.0783C462.472 93.7193 461.324 94.4049 460.889 95.3353C460.388 95.4911 459.963 95.8754 459.807 96.5075C459.524 97.6531 459.441 100.337 459.664 101.502C459.884 102.657 460.726 103.376 461.656 103.985C461.914 104.154 462.205 104.136 462.442 104.01C462.651 104.213 462.887 104.4 463.156 104.566C464.152 105.182 465.309 105.406 466.455 105.535C468.003 106.031 469.672 106.162 471.323 105.853C471.862 105.917 472.401 105.975 472.942 106.022C478.472 106.504 484.095 106.093 489.49 104.774C491.965 104.169 494.302 103.068 496.48 101.655C500.233 99.219 501.822 92.3813 499.644 85.8444L499.471 85.329C498.49 82.4088 497.432 79.5039 496.013 76.7795L495.844 76.4554C494.54 73.9706 493.106 71.4884 491.201 69.415C490.247 68.3778 489.139 67.4356 487.887 66.7767C487.412 66.5268 486.857 66.3535 486.315 66.1569L486.304 66.021V66.021L486.292 65.8852C486.257 65.4499 486.211 65.0152 486.153 64.5816C485.934 62.9601 485.625 61.3624 485.186 59.7849C484.746 58.2053 484.206 56.6523 483.556 55.1471C482.471 52.6358 481.109 50.2536 479.537 48.0183C479.424 47.7874 479.311 47.5574 479.194 47.3291C477.868 44.7339 476.151 42.2588 473.937 40.3431C471.395 38.144 468.333 36.7788 465.138 35.8203C461.825 34.8275 458.368 34.1479 454.915 33.9194C453.097 33.7992 451.277 33.7977 449.462 33.9491ZM473.695 75.6429C472.032 74.5523 469.766 75.3 468.923 77.0719C468.314 78.3554 470.327 79.0781 470.646 77.799C470.963 76.5169 472.324 75.5984 473.632 75.7943C473.722 75.8091 473.778 75.6963 473.695 75.6429Z" fill="black"/>
<path fill-rule="evenodd" clip-rule="evenodd" d="M447.699 81.9803C445.16 81.6715 442.699 82.4503 440.217 82.8428C438.906 83.05 437.594 83.2046 436.268 83.2621C436.001 83.2738 435.734 83.2806 435.467 83.2861C435.442 83.0507 435.311 82.8346 435.026 82.705C434.441 82.4398 433.974 82.3202 433.333 82.3458C432.746 82.369 432.156 82.4294 431.578 82.5354C430.529 82.7282 429.474 83.1657 428.706 83.9258C426.929 85.6847 427.2 88.5099 428.573 90.4256C431.41 94.3842 436.587 94.5679 441.022 94.5163L441.431 94.5109C445.469 94.4531 451.246 95.0562 453.08 90.4541C453.755 88.7618 453.661 86.8002 452.835 85.1771C451.85 83.2411 449.776 82.2328 447.699 81.9803ZM435.087 88.5714L435.123 88.5729C436.985 88.6447 438.846 88.6953 440.709 88.7282C440.653 89.2074 440.596 89.6868 440.531 90.1649C440.48 90.5412 440.425 90.9171 440.368 91.2924C440.344 91.4514 440.256 91.6982 440.281 91.8556L440.29 91.9179V91.9179C440.194 91.9612 440.107 92.031 440.043 92.1323C440.02 92.1673 440.004 92.2026 439.988 92.2378C438.542 92.2492 436.986 92.2211 435.511 91.9578L435.508 91.9257V91.9257C435.482 91.737 435.403 91.61 435.299 91.523C435.196 90.9213 435.205 90.2803 435.165 89.6834C435.14 89.3126 435.113 88.942 435.087 88.5714ZM442.131 88.7537C443.473 88.7765 444.815 88.7942 446.157 88.7777L446.766 88.7683V88.7683C446.637 89.4595 446.497 90.1484 446.381 90.8442C446.26 91.5694 446.897 92.0304 447.448 92.0118C447.386 92.022 447.325 92.0325 447.263 92.0412C445.54 92.2853 443.751 92.2205 442.002 92.2186C442.096 91.6686 442.058 91.0479 442.072 90.5888L442.075 90.5177C442.102 89.9294 442.12 89.3415 442.131 88.7537ZM451.246 88.6268C451.199 88.9862 451.108 89.338 450.973 89.6655C450.4 91.0491 449.087 91.6948 447.698 91.9667C447.939 91.8833 448.13 91.6829 448.178 91.3398C448.299 90.4865 448.342 89.6191 448.345 88.7526C449.314 88.7436 450.288 88.7229 451.246 88.6268ZM430.037 88.3314C430.727 88.4943 431.528 88.4197 432.204 88.4504C432.838 88.4793 433.472 88.5044 434.105 88.5301C434.076 88.9635 434.046 89.3967 434.015 89.8297C433.974 90.3895 433.97 90.9811 433.863 91.5385C432.588 91.1025 431.445 90.4033 430.588 89.2852C430.374 89.0066 430.183 88.6797 430.037 88.3314ZM447.991 84.2504C449.138 84.5226 450.224 85.0976 450.808 86.1495C451.154 86.7738 451.307 87.5136 451.278 88.2427C450.308 88.1296 449.321 88.0867 448.339 88.0512C448.336 87.8741 448.332 87.6972 448.327 87.5206L448.311 87.0681C448.285 86.205 448.271 85.1212 447.991 84.2504ZM442.051 84.3557L442.556 84.2988C443.959 84.1387 445.362 83.9705 446.765 84.0669C446.968 84.0809 447.174 84.1031 447.381 84.1334C447.133 85.03 447.154 86.083 447.05 86.9706C447.01 87.3137 446.959 87.6541 446.903 87.9931L446.66 87.9817V87.9817C445.154 87.9 443.647 87.8497 442.14 87.7898C442.14 87.5064 442.139 87.2228 442.134 86.9391L442.129 86.6554C442.112 85.9307 442.158 85.1144 442.051 84.3557ZM435.005 84.2406C436.474 84.4782 437.993 84.5288 439.437 84.5306C440.013 84.5313 440.59 84.4958 441.166 84.4447C441.128 84.7519 441.109 85.0627 441.08 85.3656C441.024 85.9779 440.959 86.5891 440.888 87.1999L440.825 87.7342V87.7342C438.973 87.6501 437.121 87.5592 435.269 87.465L435.008 87.4509V87.4509L434.934 86.424C434.885 85.7392 434.83 85.0545 434.752 84.3728L434.81 84.3518V84.3518C434.879 84.3237 434.943 84.285 435.005 84.2406ZM434.367 84.4955C434.286 85.4638 434.241 86.4361 434.181 87.406L432.96 87.3407C432.757 87.3296 432.554 87.3182 432.35 87.3065C431.559 87.2608 430.543 87.0208 429.761 87.2447C429.701 86.5325 429.904 85.8386 430.546 85.3602C431.672 84.5198 433.107 84.819 434.367 84.4955ZM438.537 75.8396C436.719 74.7967 432.159 73.7309 431.87 77.008C431.737 78.516 432.856 79.7656 434.163 80.3231L434.212 80.3437C435.438 80.8485 437.61 81.4186 438.671 80.324C439.554 79.4129 438.383 77.7793 437.286 78.5257C436.722 78.9091 435.536 78.6266 434.906 78.4442L434.867 78.4327C434.188 78.2328 433.283 77.5931 433.564 76.7557C433.812 76.015 434.869 75.8797 435.531 75.8556C436.519 75.8202 437.481 76.05 438.46 76.1248C438.615 76.1367 438.663 75.9117 438.537 75.8396ZM431.007 70.57C428.54 70.4542 427.005 73.1528 427.573 75.3639C427.671 75.7454 428.097 76.1199 428.508 76.0771L428.612 76.0675C428.664 76.0624 428.717 76.0558 428.766 76.0423C429.156 75.934 429.506 75.5271 429.478 75.1054L429.47 74.9825C429.413 73.938 429.526 72.7346 430.765 72.4816C431.816 72.2671 432.403 73.2804 432.415 74.2132C432.417 74.3788 432.603 74.4944 432.749 74.4053C433.509 73.9422 433.641 73.0209 433.35 72.2275C432.983 71.2221 432.062 70.6194 431.007 70.57ZM449.316 71.1487C447.521 70.5487 445.584 71.5074 444.714 73.0975C444.409 73.1859 444.105 73.4214 444.147 73.782C444.208 74.3008 444.3 74.6278 444.659 75.0212C445.221 75.6366 446.273 75.3219 446.506 74.5644L446.516 74.5302C446.781 73.551 447.857 72.9049 448.837 73.2477C449.982 73.648 449.949 74.8595 450.752 75.5652C450.847 75.6481 450.96 75.6613 451.073 75.6066C451.926 75.1936 451.773 73.9507 451.469 73.2394C451.07 72.3059 450.294 71.4756 449.316 71.1487ZM451.761 65.687C450.306 64.1999 446.513 62.7608 445.517 65.507C445.328 66.0301 445.731 66.7354 446.275 66.8438C447.165 67.0213 447.955 66.6342 448.839 66.7036C449.555 66.7602 450.302 66.9998 450.874 67.4441C452.459 68.6745 452.808 70.7556 453.913 72.3217C453.966 72.398 454.071 72.3659 454.081 72.276C454.332 69.996 453.355 67.3157 451.761 65.687ZM432.787 64.2231C431.822 63.8815 430.728 63.9107 429.758 64.2137C428.78 64.5191 427.883 65.099 427.191 65.8566C426.878 66.2006 426.587 66.5802 426.354 66.9842C426.231 67.1984 426.101 67.6407 425.96 67.9041C425.2 68.344 424.874 69.3463 425.555 70.0594L425.586 70.0907L425.677 70.1812C426.043 70.5442 426.595 70.7015 427.095 70.5565C428.213 70.2324 428.349 69.3503 428.736 68.4139C428.991 67.7955 429.429 67.2482 429.96 66.8462C431.215 65.8966 433.273 65.594 434.784 66.0415C434.865 66.0654 434.959 65.9627 434.902 65.8883C434.616 65.5167 434.451 65.2118 434.067 64.912C433.678 64.6078 433.253 64.3881 432.787 64.2231Z" fill="black"/>
<path fill-rule="evenodd" clip-rule="evenodd" d="M423.741 73.5156C424.16 74.6576 424.798 75.8465 425.577 76.8076C428.731 79.4833 431.796 78.0018 433.353 74.3754C433.944 71.8126 432.374 69.052 430.71 67.1668C428.308 64.7544 424.387 66.0205 423.282 68.8882C423.215 69.2598 423.174 69.6304 423.155 69.9999C423.178 71.2005 423.322 72.2266 423.741 73.3673M454.059 71.2125C449.904 66.2613 442.131 65.9966 442.329 73.617C443.222 83.2627 458.252 80.8952 454.059 71.2125ZM422.434 67.0822C422.58 66.8351 422.742 66.5961 422.918 66.3674C422.983 66.3285 423.021 65.9837 423.26 65.9581C426.464 62.4178 432.092 64.4265 434.125 67.9542C434.496 68.4003 434.799 68.9225 435.023 69.4742C437.026 69.106 439.362 69.1775 441.225 69.9357C443.073 65.1024 448.667 64.6709 452.353 66.736C454.646 67.8657 456.133 70.2314 458.363 71.531C463.605 71.9089 469.231 70.7323 474.378 72.0496C478.437 72.8951 475.044 74.9543 474.363 73.58C469.51 72.1437 463.761 73.3575 458.722 73.0338C458.198 73.9216 457.193 74.6481 456.192 74.6171C455.11 84.2209 441.13 82.6284 440.648 74.0912C440.101 73.2248 439.42 72.3956 438.447 71.8558C438.074 71.7785 437.714 71.678 437.384 71.5225C436.822 71.443 435.955 71.6819 435.438 72.1511C433.665 82.8076 423.451 81.5665 421.625 72.2309C421.589 72.1938 421.488 72.0546 421.41 71.8313C420.785 71.0037 419.255 70.6961 419.5 69.2991C419.717 67.9017 421.479 67.9183 422.434 67.0822Z" fill="black"/>
</svg>
