<svg width="156" height="84" viewBox="0 0 156 84" fill="none" xmlns="http://www.w3.org/2000/svg">
<path d="M71.637 35.0528C70.1206 31.3917 69.2549 30.727 66.2384 30.4315C59.1957 29.7408 54.1818 30.3847 51.429 30.2335C48.5583 30.0754 46.3491 30.4223 44.719 30.8299C43.0222 31.2543 41.2817 31.6634 40.1795 35.5056C39.5964 37.5403 40.4901 36.4489 70.6008 36.4489C71.6131 36.4489 72.0036 35.9392 71.6362 35.0535L71.637 35.0528ZM62.9741 33.1156C60.9247 34.065 46.6605 31.9758 43.177 34.8885C42.3261 35.6 41.8401 34.9277 42.4159 34.2024C44.5946 31.46 52.0764 31.6872 58.1414 31.9919C59.3399 32.0533 61.7492 32.1001 62.9831 32.6819C63.2723 32.8185 63.2953 32.9667 62.9749 33.1156H62.9741Z" fill="white"/>
<path d="M18.6436 65.0534C28.1344 65.0534 38.9399 64.9391 38.958 64.9391C57.2748 64.7809 56.106 65.21 57.5903 64.081C75.3577 50.565 74.8116 41.7202 76.7959 42.503C77.3841 42.7348 77.2169 43.18 77.0052 43.6397C73.4509 51.3701 66.4238 59.6716 57.5936 65.2507C55.961 66.2822 54.1019 65.6559 39.5552 65.9629C18.6412 66.405 19.5019 65.9337 17.7631 66.1594C16.7359 66.2929 16.3809 65.5822 17.175 64.8585C18.352 63.7855 19.6535 62.8499 20.9327 61.8897C21.4303 61.5167 50.1934 61.6479 53.6431 62.1898C54.3457 62.3003 53.7996 62.7793 53.6554 62.78C50.494 62.7915 21.955 62.2712 21.3429 62.7647C20.4558 63.48 19.5349 64.1646 18.6436 65.0534Z" fill="white"/>
<path d="M46.0839 56.9906C46.088 60.8935 39.7562 60.9349 39.6927 57.0321C39.631 53.2252 46.079 52.9013 46.0839 56.9906Z" fill="white"/>
<path d="M64.2887 44.4011C64.2558 48.3054 57.9017 48.2793 57.9066 44.4556C57.9116 40.4568 64.3225 40.4491 64.2887 44.4011Z" fill="white"/>
<path d="M36.234 41.2643C40.6804 41.2796 40.2199 47.2532 36.0775 47.1933C34.4556 47.1695 32.9803 45.7688 32.9894 44.2583C32.9944 43.4607 33.3389 42.6975 33.9472 42.1363C34.5555 41.5751 35.3779 41.2618 36.234 41.265V41.2643Z" fill="white"/>
<path d="M52.6274 47.2379C50.9158 47.2455 49.5476 45.9384 49.5443 44.2921C49.541 42.7233 51.0467 41.3172 52.7403 41.3065C56.9157 41.2796 57.0788 47.2171 52.6274 47.2379Z" fill="white"/>
<path d="M56.5862 47.7882C60.5853 47.8895 60.7146 53.7732 56.2402 53.7149C54.6744 53.6942 53.1612 52.2021 53.2106 50.7293C53.2666 49.0315 54.7501 47.7413 56.5862 47.7882Z" fill="white"/>
<path d="M64.5515 53.7617C62.8209 53.7663 61.3975 52.4485 61.4049 50.8498C61.4123 49.2656 62.9057 47.8488 64.5894 47.828C68.726 47.7774 68.9592 53.7494 64.5515 53.7609V53.7617Z" fill="white"/>
<path d="M51.2362 50.6502C51.1975 54.6305 44.7726 54.477 44.8591 50.6364C44.9455 46.7957 51.2749 46.6983 51.2362 50.6502Z" fill="white"/>
<path d="M62.6265 57.2255C62.5589 61.057 56.1587 61.1237 56.2427 57.1127C56.3218 53.2905 62.6973 53.2114 62.6265 57.2255Z" fill="white"/>
<path d="M31.5487 53.4854C29.7967 53.5107 28.3173 52.1921 28.2909 50.5803C28.2662 49.0814 29.7967 47.6085 31.4276 47.5617C35.6343 47.442 35.8337 53.424 31.5487 53.4854Z" fill="white"/>
<path d="M39.7529 53.4854C37.9975 53.5084 36.6343 52.2497 36.6145 50.5865C36.5956 49.0024 38.1219 47.5356 39.7743 47.551C43.9661 47.5901 44.1342 53.4279 39.7529 53.4854Z" fill="white"/>
<path d="M29.5158 56.8679C29.5125 60.8574 23.2185 60.7584 23.1469 57.006C23.1164 55.4342 24.6197 53.9198 26.2786 53.926C28.4211 53.9337 29.6863 55.4932 29.5166 56.8686L29.5158 56.8679Z" fill="white"/>
<path d="M37.8295 56.8947C37.743 60.9088 31.3765 60.7185 31.4441 56.9055C31.4721 55.3013 32.9515 53.9229 34.6516 53.9183C36.3971 53.9137 37.8641 55.2891 37.8295 56.8947Z" fill="white"/>
<path d="M51.2329 60.0024C47.0312 60.04 46.9875 54.1915 51.3095 54.1355C55.3869 54.0825 55.6011 59.9625 51.2329 60.0024Z" fill="white"/>
<path d="M47.6168 44.1808C47.5839 48.1919 41.2734 48.1612 41.3047 44.167C41.3352 40.3371 47.649 40.2834 47.6177 44.1808H47.6168Z" fill="white"/>
<path d="M72.3981 44.5078C72.6024 46.1234 70.8059 47.4934 69.1519 47.4213C65.0301 47.2409 65.0383 41.6219 69.3916 41.5268C70.7977 41.4961 72.6378 42.843 72.3981 44.5078Z" fill="white"/>
<path d="M109.566 28.0285C109.575 26.32 110.184 24.0358 111.281 24.0389C112.5 24.042 113.099 26.6792 113.049 27.9302C112.852 32.8515 109.856 33.1194 109.566 28.0285Z" fill="white"/>
<path fillRule="evenodd" clipRule="evenodd" d="M46.0971 18.0822C45.1556 18.1659 44.5971 18.2488 44.4966 18.3278C42.2808 20.0778 41.5172 21.7747 41.3542 22.1378C41.3393 22.1708 41.3294 22.193 41.3237 22.203C40.0931 24.4073 39.841 25.9631 39.682 26.9417C39.537 27.832 39.4703 28.2449 38.8155 28.2349C35.0824 28.1797 34.8427 28.2365 34.2859 28.6394C30.7975 31.1622 28.8906 36.3038 27.7102 40.0178C24.2951 50.763 15.8686 58.8404 9.30194 65.134C4.53018 69.7084 0.740293 73.341 0.57308 76.3704C0.490709 77.8448 1.16615 79.0514 1.84571 80.2686V80.2694C1.89925 80.363 1.95197 80.4574 2.00386 80.5518L2.00881 80.5603C2.17108 80.8527 2.31028 81.1037 2.49644 81.3194C3.62493 82.6211 6.48237 82.6234 26.6163 82.6357C29.412 82.638 32.5405 82.6395 36.0437 82.6456C41.6004 82.6548 45.7223 82.6817 48.7725 82.7024C55.7081 82.7485 57.0969 82.7577 57.1966 82.4284C57.2213 82.3463 57.1653 82.2419 57.0953 82.1122C57.0541 82.0347 57.0071 81.948 56.9692 81.8512C56.0623 79.5088 55.989 78.1426 55.9462 77.3597C55.9033 76.5577 55.8926 76.3681 55.0524 76.3689H3.29627C1.83583 76.3789 1.9355 76.1287 2.28887 75.2345C2.36383 75.0457 2.45031 74.8277 2.53516 74.5783C3.04256 73.0893 5.56888 70.7062 8.91973 67.544C13.8315 62.909 20.5168 56.6015 25.216 48.9878C27.347 45.5347 28.3305 42.5391 29.2357 39.7837C30.3741 36.3161 31.3881 33.2276 34.4078 30.0839L34.5009 29.9856C34.6162 29.8636 34.7134 29.7615 34.8246 29.674C35.4251 29.2058 36.4391 29.1959 42.9316 29.1383C46.635 29.1053 52.12 29.0562 60.3267 28.8973C61.1248 28.8819 61.9222 28.9172 62.7187 28.9809C63.5655 29.0477 65.1124 29.0086 67.9221 28.9364C72.1642 28.8274 79.286 28.6448 91.2273 28.6448C91.2059 28.7323 91.0049 28.9011 90.6944 29.1621C89.8913 29.8375 88.3575 31.1269 87.3048 33.2092C86.2661 35.2638 85.6047 37.1696 84.921 39.1405C83.4219 43.464 81.8131 48.1028 75.866 55.3228C71.1379 61.0631 67.1346 64.6566 64.0918 67.389C58.3778 72.5183 56.0508 74.6074 58.6735 82.156L58.685 82.189C58.718 82.2841 58.7451 82.3632 58.7929 82.4292C59.0318 82.7561 59.7896 82.7554 64.3134 82.7508C65.2829 82.75 66.4271 82.7485 67.7755 82.7508H67.8661H67.8677C69.011 82.7554 80.515 82.803 89.6994 82.6679C86.4811 79.2348 86.5314 73.4063 90.4596 70.4728C90.8567 70.1766 95.1087 70.0292 101.262 69.9801L101.258 69.8389L100.88 69.8473H100.879C91.7759 70.0438 91.1178 70.0576 89.8699 69.0169C86.4729 66.1832 86.4119 61.1567 90.4349 58.6408C90.8212 58.3998 94.9571 58.2762 100.969 58.2325C100.773 50.1513 100.643 42.7233 100.925 41.0424C101.42 38.0929 104.271 37.9095 107.868 37.6777C109.511 37.5717 111.31 37.4566 113.112 37.0621C123.663 34.7519 116.373 17.6263 107.081 17.2449H107.08C102.37 17.0522 95.9843 16.9801 89.084 16.9924C88.9423 17.4593 88.8045 17.9272 88.6705 18.3961C93.229 18.3639 98.0485 18.3447 103.077 18.3447C101.765 19.7401 100.478 21.1553 99.2157 22.5898C97.121 24.9507 95.9966 26.2179 94.5535 26.8849C92.883 27.6577 90.7834 27.6255 86.2538 27.5572C82.4342 27.4989 76.8865 27.4152 68.4106 27.7644V27.766C68.1552 27.7759 67.8883 27.7744 67.3686 27.7706C65.5292 27.7575 60.5153 27.7222 41.5774 28.1313C40.9925 28.1436 40.8344 28.0446 40.9893 27.462C41.5675 25.2831 43.6564 20.2244 45.658 19.3632C45.7981 18.9418 45.9447 18.5143 46.0971 18.0822ZM113.62 30.2143C112.678 32.8262 111.639 32.8638 108.225 32.9866C107.723 33.0043 107.169 33.025 106.557 33.0549C106.404 33.0549 106.256 33.0565 106.113 33.0572C104.588 33.0718 103.568 33.081 102.826 31.3902C101.487 28.3408 102.281 23.5185 105.21 23.4264C106.315 23.3882 107.42 23.3255 108.522 23.2384C111.736 23.0028 112.851 22.9206 113.613 25.2071C114.164 26.8565 114.218 28.555 113.62 30.2143Z" fill="white"/>
<path d="M65.7277 11.3519C65.3373 11.3626 64.8299 11.4478 64.8315 10.8783C64.8332 10.3825 65.1404 10.1553 65.7195 10.1476C86.7884 9.85906 86.7768 9.53133 86.7851 10.4508C86.7958 11.6896 83.9911 10.8553 65.7277 11.3519Z" fill="white"/>
<path d="M105.922 4.52788C104.786 2.24068 101.76 0.563661 99.0715 0.705652C63.9831 2.5592 57.2394 1.15004 55.0212 3.45489C48.2618 10.4754 43.9513 26.9455 44.8689 26.9662C44.8607 27.0015 46.4612 27.1266 46.9883 27.112C78.6056 26.2148 85.7834 26.8549 86.0009 25.8733C86.019 25.841 88.4267 12.6421 92.7323 6.73141C93.2809 5.97848 93.1647 6.3561 98.8656 6.01456C105.336 5.62696 106.662 6.01763 105.923 4.52941L105.922 4.52788ZM89.5972 9.7562C87.3707 14.9753 85.1764 22.906 85.2645 25.2063C83.1888 24.986 46.5641 25.917 46.2635 25.9684C45.6449 26.0736 49.3277 11.6328 55.2057 5.00988C56.9758 3.0151 56.4692 3.60072 78.4005 2.71961C90.8443 2.21919 84.678 2.40647 95.6169 2.09716C92.715 4.1587 90.8674 6.78207 89.598 9.75696L89.5972 9.7562ZM94.1943 5.06207C97.6284 1.19456 101.18 0.832292 104.438 4.65913C96.2973 4.89015 95.9167 4.81416 94.1943 5.06207Z" fill="white"/>
<path d="M75.922 6.69998C75.8948 7.72615 75.9417 7.37155 57.4363 7.62099C55.8127 7.64325 55.7114 7.58108 55.6793 7.34776C55.6093 6.83966 56.7864 6.70305 57.0203 6.69767C77.1765 6.175 75.9384 6.07138 75.922 6.69998Z" fill="white"/>
<path d="M58.7905 10.2889C63.3398 10.2029 63.3464 10.0379 63.283 10.6465C63.1759 11.6766 62.8991 11.4095 56.5582 11.4409C54.3227 11.4524 53.8894 11.4486 53.9042 10.8975C53.924 10.1354 56.1167 10.3395 58.7905 10.2889Z" fill="white"/>
<path d="M77.3314 6.85733C77.3379 5.96087 77.506 6.19342 88.1417 5.99924C88.5536 5.99157 89.0396 6.06295 89.0445 6.55186C89.0495 7.09372 88.5676 7.106 88.1071 7.11521C77.9417 7.32014 77.3264 7.51509 77.3314 6.85656V6.85733Z" fill="white"/>
<path d="M153.427 80.7629C153.46 79.8925 153.357 79.0099 153.427 78.1441C153.487 77.3973 153.183 77.2162 152.436 77.2177C127.615 77.2669 127.019 76.9077 127.016 77.7182C127.014 78.1656 127.494 78.115 127.837 78.1257C151.742 78.861 152.652 77.3544 152.667 78.6875C152.679 79.7252 152.69 79.1557 133.76 79.6339C133.388 79.6431 132.682 79.4482 132.699 79.9793C132.714 80.4705 133.402 80.2824 133.789 80.2809C152.664 80.2226 152.574 79.8027 152.654 80.7084C152.728 81.5465 154.14 81.2756 131.804 81.4874C130.996 81.4951 130.162 81.664 129.384 81.4491C122.864 79.6423 125.342 72.1805 130.218 72.2857C137.028 72.4323 143.841 72.4054 150.652 72.4561C151.231 72.4607 151.975 72.3011 152.343 72.5704C152.725 72.8506 152.422 73.5866 152.529 74.1116C152.754 75.2253 152.622 74.8814 142.94 74.8039C140.835 74.787 132.695 74.6565 131.355 74.8438C130.614 74.9474 130.569 75.5215 131.307 75.6428C131.667 75.7019 138.642 75.8416 139.465 75.8516C153.399 76.0304 153.484 76.3581 153.431 75.1485C153.404 74.5598 153.475 73.965 153.421 73.3802C153.359 72.714 153.527 72.344 154.34 72.4599C155.068 72.5635 155.226 71.7469 154.729 71.4192C154.712 71.4084 92.2553 70.1259 90.9769 71.0815C87.3411 73.7985 87.4276 79.2824 90.5017 82.344C92.341 84.1753 91.9637 82.4606 154.674 82.3471C155.076 82.3471 155.401 82.288 155.407 81.842C155.422 80.5595 153.38 81.9549 153.426 80.7629H153.427ZM92.1375 81.9242C90.0503 81.8889 87.7439 75.6589 91.3245 72.245C91.8064 71.7853 91.4761 71.8996 98.1589 71.8996C96.4299 75.2805 96.6696 78.5264 98.0757 81.9349C96.0279 81.9349 94.0815 81.9572 92.1367 81.9242H92.1375ZM102.268 81.7975C99.2503 81.7476 99.1901 81.9602 98.9809 81.4521C97.7182 78.3913 97.7956 75.3842 99.3368 72.4216C99.6308 71.8559 99.7536 72.0155 102.993 72.0155C102.152 73.3395 101.664 74.6251 101.517 76.0281C101.029 80.6961 103.759 81.8213 102.268 81.7968V81.7975ZM105.729 81.7699C103.947 81.7868 103.772 81.73 103.174 80.1558C102.165 77.5025 102.586 74.9712 104.022 72.5451C104.398 71.9104 104.572 72.0432 106.286 72.0432C104.524 75.1332 104.786 78.1349 106.132 81.1298C106.348 81.6102 106.37 81.763 105.729 81.7691V81.7699ZM107.272 81.2142C105.914 78.3429 105.751 75.4832 107.295 72.6249C107.474 72.2918 107.669 72.027 108.196 72.0362C126.593 72.3571 126.168 72.2128 126.61 72.3694C123.675 75.0518 123.55 79.1342 126.843 81.6663C107.26 81.6663 107.707 82.1352 107.272 81.2142Z" fill="white"/>
<path d="M153.402 67.2554C153.435 66.5263 153.333 65.7871 153.402 65.0626C153.462 64.4371 153.157 64.2867 152.411 64.2882C127.589 64.3335 126.994 64.0295 126.99 64.7065C126.989 65.081 127.469 65.0381 127.812 65.0473C151.717 65.6705 152.627 64.4018 152.642 65.5177C152.653 66.3866 152.665 65.91 133.735 66.3091C133.363 66.3167 132.657 66.1525 132.673 66.5984C132.688 67.009 133.377 66.8517 133.764 66.8509C152.638 66.7957 152.548 66.4495 152.628 67.2086C152.702 67.9101 154.114 67.6875 131.779 67.861C130.971 67.8671 130.136 68.0083 129.359 67.8287C122.839 66.3183 125.317 60.0699 130.193 60.1582C142.946 60.3884 151.945 60.1682 152.317 60.3969C152.699 60.631 152.397 61.2473 152.503 61.6871C152.729 62.6196 152.596 62.331 142.914 62.2666C140.81 62.2527 132.669 62.1422 131.33 62.2988C130.588 62.3855 130.543 62.866 131.281 62.9681C131.642 63.0179 138.616 63.1338 139.44 63.1431C153.373 63.295 153.459 63.5675 153.405 62.5544C153.379 62.0616 153.45 61.5635 153.395 61.0738C153.333 60.5166 153.501 60.2073 154.314 60.304C155.043 60.3907 155.198 59.7092 154.703 59.4337C154.687 59.4244 92.2298 58.3515 90.9514 59.152C87.3155 61.4284 87.4012 66.0166 90.4761 68.5809C92.3146 70.1136 91.9382 68.6784 154.648 68.5824C155.05 68.5824 155.375 68.5325 155.381 68.1595C155.397 67.0865 153.355 68.2539 153.4 67.2569L153.402 67.2554ZM92.112 68.2263C90.0247 68.1964 87.72 62.9849 91.299 60.1252C91.7817 59.7399 91.4506 59.8358 98.1333 59.8358C96.4044 62.6672 96.6441 65.3834 98.0501 68.2363C96.0024 68.2363 94.056 68.2547 92.1112 68.2271L92.112 68.2263ZM102.243 68.1212C99.2247 68.0797 99.1646 68.257 98.9554 67.8318C97.6935 65.2698 97.7709 62.7524 99.3112 60.2725C99.6053 59.799 99.728 59.9333 102.968 59.9333C102.127 61.0424 101.638 62.1184 101.492 63.2927C101.004 67.2001 103.734 68.1419 102.243 68.1219V68.1212ZM105.703 68.0997C103.922 68.115 103.747 68.0644 103.149 66.7473C102.14 64.5269 102.561 62.4062 103.996 60.3777C104.372 59.8466 104.547 59.9579 106.26 59.9579C104.498 62.5444 104.76 65.0572 106.107 67.5639C106.323 67.9654 106.345 68.0943 105.703 68.0997ZM107.244 67.6338C105.887 65.2299 105.725 62.8368 107.267 60.4429C107.447 60.1643 107.641 59.9425 108.169 59.9502C126.566 60.2181 126.141 60.0991 126.583 60.2288C123.648 62.4745 123.523 65.8908 126.816 68.0114C107.233 68.0114 107.68 68.4044 107.244 67.6338Z" fill="white"/>
<path d="M145.783 41.4462C147.745 42.2651 146.377 43.5392 146.979 44.2614C147.338 44.6935 149.1 43.5507 151.721 44.6705C156.02 46.5072 153.974 51.9158 147.253 53.2129C144.098 53.8216 143.997 52.6365 143.121 53.4962C133.099 63.3357 116.521 55.7181 117.623 43.3864C117.734 42.1415 118.051 41.7877 119.508 41.4216C124.276 40.2204 141.362 39.5987 145.784 41.4454L145.783 41.4462ZM145.642 43.8017C139.292 45.5654 125.331 45.8241 118.524 44.0181C118.584 51.1422 124.957 57.0766 132.966 56.6199C140.707 56.1786 145.836 50.1106 145.642 43.8009V43.8017ZM146.544 52.1538C148.28 52.1039 151.598 50.8797 152.656 48.6209C153.781 46.2224 150.819 44.7764 147.754 45.2538C146.066 45.5171 147.579 46.5018 145.15 50.8536C144.813 51.4576 143.308 52.6281 146.544 52.153V52.1538Z" fill="white"/>
<path d="M137.163 4.83644C137.351 4.6507 137.679 4.82569 137.602 5.07053C136.411 8.85208 131.095 11.8201 132.457 19.2719C133.319 23.9906 136.503 28.7967 134.414 34.3551C134.129 35.1172 132.715 37.9363 131.991 37.4942C131.537 37.2179 132.611 35.6837 133.244 33.3826C135.343 25.7482 126.524 18.3716 132.579 10.1192C135.172 6.58484 135.778 6.20645 137.163 4.83644Z" fill="white"/>
<path d="M139.512 18.8259C137.928 23.5416 142.226 26.9002 140.452 33.0495C139.54 36.2148 136.985 37.2479 137.624 35.9907C138.881 33.5147 139.544 33.1378 139.064 28.5926C138.715 25.28 135.818 21.3657 139.172 17.0031C139.768 16.2279 140.294 16.4965 139.512 18.8267V18.8259Z" fill="white"/>
<path d="M127.999 19.7209C129.251 21.2544 130.207 25.3084 128.624 29.5612C128.045 31.1162 128.456 32.4064 129.36 33.7825C129.837 34.5063 129.235 35.0581 128.485 34.4809C127.27 33.5453 126.415 31.3456 127.079 29.3555C128.772 24.2784 127.575 20.8315 127.999 19.7209H127.999Z" fill="white"/>
</svg>
