<svg width="96" height="17" viewBox="0 0 96 17" fill="none" xmlns="http://www.w3.org/2000/svg">
<path d="M6.53869 4.34877L6.53866 4.34883L6.32009 4.74065C6.30617 4.76563 6.29243 4.79038 6.27883 4.81487C6.07977 5.17337 5.911 5.47732 5.6387 5.68372C5.3628 5.89285 5.02717 5.96821 4.6362 6.056C4.61138 6.06158 4.58634 6.0672 4.56108 6.07291C4.56102 6.07292 4.56096 6.07293 4.5609 6.07295L4.13708 6.16891L4.13689 6.16895C3.29998 6.35811 2.73041 6.48844 2.34034 6.64218C1.95957 6.79225 1.87935 6.9152 1.84887 7.01344C1.81656 7.11754 1.81576 7.27677 2.04323 7.63815C2.27409 8.00491 2.66358 8.46239 3.23325 9.12819L3.23349 9.12847L3.52249 9.46675C3.52257 9.46685 3.52265 9.46694 3.52274 9.46704C3.53965 9.48679 3.55641 9.50632 3.57301 9.52566C3.84092 9.83779 4.06604 10.1001 4.16795 10.4317C4.27 10.7595 4.23618 11.1047 4.19531 11.5218C4.19278 11.5476 4.19023 11.5737 4.18767 11.6001L4.18763 11.6005L4.14368 12.0507C4.14367 12.0508 4.14366 12.0509 4.14365 12.051C4.05777 12.9393 3.9998 13.5508 4.0195 13.9913C4.03916 14.431 4.13205 14.5526 4.20624 14.6089C4.27144 14.6583 4.39282 14.7133 4.78838 14.5999C5.19038 14.4847 5.72472 14.2404 6.50828 13.8797L6.50848 13.8796L6.90505 13.6973C6.92814 13.6867 6.95101 13.676 6.9737 13.6655C7.33917 13.4962 7.65475 13.3499 8 13.3499C8.34525 13.3499 8.66083 13.4962 9.0263 13.6655C9.04889 13.676 9.07167 13.6866 9.09466 13.6972C9.09476 13.6972 9.09485 13.6973 9.09495 13.6973L9.4919 13.8795L9.49246 13.8798C10.2757 14.2404 10.8098 14.4847 11.2117 14.5998C11.6073 14.7132 11.7288 14.658 11.7945 14.6082C11.8681 14.5524 11.961 14.4311 11.9806 13.9913C12.0002 13.5508 11.9422 12.9391 11.8563 12.0507L11.8124 11.5998L11.8123 11.5995C11.8098 11.5734 11.8073 11.5476 11.8048 11.5221C11.7637 11.1035 11.7299 10.7584 11.8318 10.4298L11.8319 10.4294C11.9343 10.1 12.1583 9.83864 12.4257 9.52659C12.4427 9.50675 12.4599 9.4867 12.4772 9.46642L12.4775 9.4661L12.7667 9.12829C12.7667 9.12823 12.7668 9.12816 12.7668 9.1281C13.3364 8.46205 13.7259 8.00444 13.9568 7.63765C14.1843 7.2761 14.1834 7.11718 14.1512 7.01358L14.6287 6.86525M6.53869 4.34877L11.4399 6.07298L11.8636 6.16891C12.7006 6.35843 13.2698 6.48874 13.6597 6.64242C14.0401 6.79235 14.1205 6.91521 14.1513 7.0139L14.6287 6.86525M6.53869 4.34877C6.96919 3.57679 7.26547 3.04801 7.52796 2.70526C7.79017 2.36288 7.92409 2.33325 8 2.33325C8.0759 2.33325 8.20982 2.36288 8.47204 2.70526C8.73453 3.04801 9.03081 3.57679 9.46131 4.34877L9.46134 4.34883M6.53869 4.34877L9.46134 4.34883M14.6287 6.86525C14.4334 6.23811 13.6145 6.0527 11.9755 5.6816L11.974 5.68125L11.55 5.58525L13.1467 9.45325C14.2647 8.14592 14.8233 7.49192 14.6287 6.86525ZM9.46134 4.34883L9.67991 4.74065M9.46134 4.34883L9.67991 4.74065M9.67991 4.74065C9.67994 4.74071 9.67997 4.74077 9.68001 4.74083C9.69315 4.76441 9.70613 4.78777 9.71898 4.8109M9.67991 4.74065L9.71898 4.8109M9.71898 4.8109C9.91948 5.17183 10.0886 5.47627 10.3606 5.6832M9.71898 4.8109L10.3606 5.6832M10.3606 5.6832C10.6361 5.89275 10.9729 5.96824 11.3635 6.05582M10.3606 5.6832L11.3635 6.05582M11.3635 6.05582C11.3887 6.06146 11.414 6.06714 11.4396 6.07291L11.3635 6.05582Z" fill="#F1FF00" stroke="black"/>
<path d="M26.5387 4.34877L26.5387 4.34883L26.3201 4.74065C26.3062 4.76563 26.2924 4.79038 26.2788 4.81487C26.0798 5.17337 25.911 5.47732 25.6387 5.68372C25.3628 5.89285 25.0272 5.96821 24.6362 6.056C24.6114 6.06158 24.5863 6.0672 24.5611 6.07291C24.561 6.07292 24.561 6.07293 24.5609 6.07295L24.1371 6.16891L24.1369 6.16895C23.3 6.35811 22.7304 6.48844 22.3403 6.64218C21.9596 6.79225 21.8794 6.9152 21.8489 7.01344C21.8166 7.11754 21.8158 7.27677 22.0432 7.63815C22.2741 8.00491 22.6636 8.46239 23.2332 9.12819L23.2335 9.12847L23.5225 9.46675C23.5226 9.46685 23.5227 9.46694 23.5227 9.46704C23.5396 9.48679 23.5564 9.50632 23.573 9.52566C23.8409 9.83779 24.066 10.1001 24.1679 10.4317C24.27 10.7595 24.2362 11.1047 24.1953 11.5218C24.1928 11.5476 24.1902 11.5737 24.1877 11.6001L24.1876 11.6005L24.1437 12.0507C24.1437 12.0508 24.1437 12.0509 24.1436 12.051C24.0578 12.9393 23.9998 13.5508 24.0195 13.9913C24.0392 14.431 24.1321 14.5526 24.2062 14.6089C24.2714 14.6583 24.3928 14.7133 24.7884 14.5999C25.1904 14.4847 25.7247 14.2404 26.5083 13.8797L26.5085 13.8796L26.905 13.6973C26.9281 13.6867 26.951 13.676 26.9737 13.6655C27.3392 13.4962 27.6547 13.3499 28 13.3499C28.3453 13.3499 28.6608 13.4962 29.0263 13.6655C29.0489 13.676 29.0717 13.6866 29.0947 13.6972C29.0948 13.6972 29.0949 13.6973 29.0949 13.6973L29.4919 13.8795L29.4925 13.8798C30.2757 14.2404 30.8098 14.4847 31.2117 14.5998C31.6073 14.7132 31.7288 14.658 31.7945 14.6082C31.8681 14.5524 31.961 14.4311 31.9806 13.9913C32.0002 13.5508 31.9422 12.9391 31.8563 12.0507L31.8124 11.5998L31.8123 11.5995C31.8098 11.5734 31.8073 11.5476 31.8048 11.5221C31.7637 11.1035 31.7299 10.7584 31.8318 10.4298L31.8319 10.4294C31.9343 10.1 32.1583 9.83864 32.4257 9.52659C32.4427 9.50675 32.4599 9.4867 32.4772 9.46642L32.4775 9.4661L32.7667 9.12829C32.7667 9.12823 32.7668 9.12816 32.7668 9.1281C33.3364 8.46205 33.7259 8.00444 33.9568 7.63765C34.1843 7.2761 34.1834 7.11718 34.1512 7.01358L34.6287 6.86525M26.5387 4.34877L31.4399 6.07298L31.8636 6.16891C32.7006 6.35843 33.2698 6.48874 33.6597 6.64242C34.0401 6.79235 34.1205 6.91521 34.1513 7.0139L34.6287 6.86525M26.5387 4.34877C26.9692 3.57679 27.2655 3.04801 27.528 2.70526C27.7902 2.36288 27.9241 2.33325 28 2.33325C28.0759 2.33325 28.2098 2.36288 28.472 2.70526C28.7345 3.04801 29.0308 3.57679 29.4613 4.34877L29.4613 4.34883M26.5387 4.34877L29.4613 4.34883M34.6287 6.86525C34.4334 6.23811 33.6145 6.0527 31.9755 5.6816L31.974 5.68125L31.55 5.58525L33.1467 9.45325C34.2647 8.14592 34.8233 7.49192 34.6287 6.86525ZM29.4613 4.34883L29.6799 4.74065M29.4613 4.34883L29.6799 4.74065M29.6799 4.74065C29.6799 4.74071 29.68 4.74077 29.68 4.74083C29.6932 4.76441 29.7061 4.78777 29.719 4.8109M29.6799 4.74065L29.719 4.8109M29.719 4.8109C29.9195 5.17183 30.0886 5.47627 30.3606 5.6832M29.719 4.8109L30.3606 5.6832M30.3606 5.6832C30.6361 5.89275 30.9729 5.96824 31.3635 6.05582M30.3606 5.6832L31.3635 6.05582M31.3635 6.05582C31.3887 6.06146 31.414 6.06714 31.4396 6.07291L31.3635 6.05582Z" fill="#F1FF00" stroke="black"/>
<path d="M46.5387 4.34877L46.5387 4.34883L46.3201 4.74065C46.3062 4.76563 46.2924 4.79038 46.2788 4.81487C46.0798 5.17337 45.911 5.47732 45.6387 5.68372C45.3628 5.89285 45.0272 5.96821 44.6362 6.056C44.6114 6.06158 44.5863 6.0672 44.5611 6.07291C44.561 6.07292 44.561 6.07293 44.5609 6.07295L44.1371 6.16891L44.1369 6.16895C43.3 6.35811 42.7304 6.48844 42.3403 6.64218C41.9596 6.79225 41.8794 6.9152 41.8489 7.01344C41.8166 7.11754 41.8158 7.27677 42.0432 7.63815C42.2741 8.00491 42.6636 8.46239 43.2332 9.12819L43.2335 9.12847L43.5225 9.46675C43.5226 9.46685 43.5227 9.46694 43.5227 9.46704C43.5396 9.48679 43.5564 9.50632 43.573 9.52566C43.8409 9.83779 44.066 10.1001 44.1679 10.4317C44.27 10.7595 44.2362 11.1047 44.1953 11.5218C44.1928 11.5476 44.1902 11.5737 44.1877 11.6001L44.1876 11.6005L44.1437 12.0507C44.1437 12.0508 44.1437 12.0509 44.1436 12.051C44.0578 12.9393 43.9998 13.5508 44.0195 13.9913C44.0392 14.431 44.1321 14.5526 44.2062 14.6089C44.2714 14.6583 44.3928 14.7133 44.7884 14.5999C45.1904 14.4847 45.7247 14.2404 46.5083 13.8797L46.5085 13.8796L46.905 13.6973C46.9281 13.6867 46.951 13.676 46.9737 13.6655C47.3392 13.4962 47.6547 13.3499 48 13.3499C48.3453 13.3499 48.6608 13.4962 49.0263 13.6655C49.0489 13.676 49.0717 13.6866 49.0947 13.6972C49.0948 13.6972 49.0949 13.6973 49.0949 13.6973L49.4919 13.8795L49.4925 13.8798C50.2757 14.2404 50.8098 14.4847 51.2117 14.5998C51.6073 14.7132 51.7288 14.658 51.7945 14.6082C51.8681 14.5524 51.961 14.4311 51.9806 13.9913C52.0002 13.5508 51.9422 12.9391 51.8563 12.0507L51.8124 11.5998L51.8123 11.5995C51.8098 11.5734 51.8073 11.5476 51.8048 11.5221C51.7637 11.1035 51.7299 10.7584 51.8318 10.4298L51.8319 10.4294C51.9343 10.1 52.1583 9.83864 52.4257 9.52659C52.4427 9.50675 52.4599 9.4867 52.4772 9.46642L52.4775 9.4661L52.7667 9.12829C52.7667 9.12823 52.7668 9.12816 52.7668 9.1281C53.3364 8.46205 53.7259 8.00444 53.9568 7.63765C54.1843 7.2761 54.1834 7.11718 54.1512 7.01358L54.6287 6.86525M46.5387 4.34877L51.4399 6.07298L51.8636 6.16891C52.7006 6.35843 53.2698 6.48874 53.6597 6.64242C54.0401 6.79235 54.1205 6.91521 54.1513 7.0139L54.6287 6.86525M46.5387 4.34877C46.9692 3.57679 47.2655 3.04801 47.528 2.70526C47.7902 2.36288 47.9241 2.33325 48 2.33325C48.0759 2.33325 48.2098 2.36288 48.472 2.70526C48.7345 3.04801 49.0308 3.57679 49.4613 4.34877L49.4613 4.34883M46.5387 4.34877L49.4613 4.34883M54.6287 6.86525C54.4334 6.23811 53.6145 6.0527 51.9755 5.6816L51.974 5.68125L51.55 5.58525L53.1467 9.45325C54.2647 8.14592 54.8233 7.49192 54.6287 6.86525ZM49.4613 4.34883L49.6799 4.74065M49.4613 4.34883L49.6799 4.74065M49.6799 4.74065C49.6799 4.74071 49.68 4.74077 49.68 4.74083C49.6932 4.76441 49.7061 4.78777 49.719 4.8109M49.6799 4.74065L49.719 4.8109M49.719 4.8109C49.9195 5.17183 50.0886 5.47627 50.3606 5.6832M49.719 4.8109L50.3606 5.6832M50.3606 5.6832C50.6361 5.89275 50.9729 5.96824 51.3635 6.05582M50.3606 5.6832L51.3635 6.05582M51.3635 6.05582C51.3887 6.06146 51.414 6.06714 51.4396 6.07291L51.3635 6.05582Z" fill="#F1FF00" stroke="black"/>
<path d="M66.5387 4.34877L66.5387 4.34883L66.3201 4.74065C66.3062 4.76563 66.2924 4.79038 66.2788 4.81487C66.0798 5.17337 65.911 5.47732 65.6387 5.68372C65.3628 5.89285 65.0272 5.96821 64.6362 6.056C64.6114 6.06158 64.5863 6.0672 64.5611 6.07291C64.561 6.07292 64.561 6.07293 64.5609 6.07295L64.1371 6.16891L64.1369 6.16895C63.3 6.35811 62.7304 6.48844 62.3403 6.64218C61.9596 6.79225 61.8794 6.9152 61.8489 7.01344C61.8166 7.11754 61.8158 7.27677 62.0432 7.63815C62.2741 8.00491 62.6636 8.46239 63.2332 9.12819L63.2335 9.12847L63.5225 9.46675C63.5226 9.46685 63.5227 9.46694 63.5227 9.46704C63.5396 9.48679 63.5564 9.50632 63.573 9.52566C63.8409 9.83779 64.066 10.1001 64.1679 10.4317C64.27 10.7595 64.2362 11.1047 64.1953 11.5218C64.1928 11.5476 64.1902 11.5737 64.1877 11.6001L64.1876 11.6005L64.1437 12.0507C64.1437 12.0508 64.1437 12.0509 64.1436 12.051C64.0578 12.9393 63.9998 13.5508 64.0195 13.9913C64.0392 14.431 64.1321 14.5526 64.2062 14.6089C64.2714 14.6583 64.3928 14.7133 64.7884 14.5999C65.1904 14.4847 65.7247 14.2404 66.5083 13.8797L66.5085 13.8796L66.905 13.6973C66.9281 13.6867 66.951 13.676 66.9737 13.6655C67.3392 13.4962 67.6547 13.3499 68 13.3499C68.3453 13.3499 68.6608 13.4962 69.0263 13.6655C69.0489 13.676 69.0717 13.6866 69.0947 13.6972C69.0948 13.6972 69.0949 13.6973 69.0949 13.6973L69.4919 13.8795L69.4925 13.8798C70.2757 14.2404 70.8098 14.4847 71.2117 14.5998C71.6073 14.7132 71.7288 14.658 71.7945 14.6082C71.8681 14.5524 71.961 14.4311 71.9806 13.9913C72.0002 13.5508 71.9422 12.9391 71.8563 12.0507L71.8124 11.5998L71.8123 11.5995C71.8098 11.5734 71.8073 11.5476 71.8048 11.5221C71.7637 11.1035 71.7299 10.7584 71.8318 10.4298L71.8319 10.4294C71.9343 10.1 72.1583 9.83864 72.4257 9.52659C72.4427 9.50675 72.4599 9.4867 72.4772 9.46642L72.4775 9.4661L72.7667 9.12829C72.7667 9.12823 72.7668 9.12816 72.7668 9.1281C73.3364 8.46205 73.7259 8.00444 73.9568 7.63765C74.1843 7.2761 74.1834 7.11718 74.1512 7.01358L74.6287 6.86525M66.5387 4.34877L71.4399 6.07298L71.8636 6.16891C72.7006 6.35843 73.2698 6.48874 73.6597 6.64242C74.0401 6.79235 74.1205 6.91521 74.1513 7.0139L74.6287 6.86525M66.5387 4.34877C66.9692 3.57679 67.2655 3.04801 67.528 2.70526C67.7902 2.36288 67.9241 2.33325 68 2.33325C68.0759 2.33325 68.2098 2.36288 68.472 2.70526C68.7345 3.04801 69.0308 3.57679 69.4613 4.34877L69.4613 4.34883M66.5387 4.34877L69.4613 4.34883M74.6287 6.86525C74.4334 6.23811 73.6145 6.0527 71.9755 5.6816L71.974 5.68125L71.55 5.58525L73.1467 9.45325C74.2647 8.14592 74.8233 7.49192 74.6287 6.86525ZM69.4613 4.34883L69.6799 4.74065M69.4613 4.34883L69.6799 4.74065M69.6799 4.74065C69.6799 4.74071 69.68 4.74077 69.68 4.74083C69.6932 4.76441 69.7061 4.78777 69.719 4.8109M69.6799 4.74065L69.719 4.8109M69.719 4.8109C69.9195 5.17183 70.0886 5.47627 70.3606 5.6832M69.719 4.8109L70.3606 5.6832M70.3606 5.6832C70.6361 5.89275 70.9729 5.96824 71.3635 6.05582M70.3606 5.6832L71.3635 6.05582M71.3635 6.05582C71.3887 6.06146 71.414 6.06714 71.4396 6.07291L71.3635 6.05582Z" fill="#F1FF00" stroke="black"/>
<path d="M86.5387 4.34877L86.5387 4.34883L86.3201 4.74065C86.3062 4.76563 86.2924 4.79038 86.2788 4.81487C86.0798 5.17337 85.911 5.47732 85.6387 5.68372C85.3628 5.89285 85.0272 5.96821 84.6362 6.056C84.6114 6.06158 84.5863 6.0672 84.5611 6.07291C84.561 6.07292 84.561 6.07293 84.5609 6.07295L84.1371 6.16891L84.1369 6.16895C83.3 6.35811 82.7304 6.48844 82.3403 6.64218C81.9596 6.79225 81.8794 6.9152 81.8489 7.01344C81.8166 7.11754 81.8158 7.27677 82.0432 7.63815C82.2741 8.00491 82.6636 8.46239 83.2332 9.12819L83.2335 9.12847L83.5225 9.46675C83.5226 9.46685 83.5227 9.46694 83.5227 9.46704C83.5396 9.48679 83.5564 9.50632 83.573 9.52566C83.8409 9.83779 84.066 10.1001 84.1679 10.4317C84.27 10.7595 84.2362 11.1047 84.1953 11.5218C84.1928 11.5476 84.1902 11.5737 84.1877 11.6001L84.1876 11.6005L84.1437 12.0507C84.1437 12.0508 84.1437 12.0509 84.1436 12.051C84.0578 12.9393 83.9998 13.5508 84.0195 13.9913C84.0392 14.431 84.1321 14.5526 84.2062 14.6089C84.2714 14.6583 84.3928 14.7133 84.7884 14.5999C85.1904 14.4847 85.7247 14.2404 86.5083 13.8797L86.5085 13.8796L86.905 13.6973C86.9281 13.6867 86.951 13.676 86.9737 13.6655C87.3392 13.4962 87.6547 13.3499 88 13.3499C88.3453 13.3499 88.6608 13.4962 89.0263 13.6655C89.0489 13.676 89.0717 13.6866 89.0947 13.6972C89.0948 13.6972 89.0949 13.6973 89.0949 13.6973L89.4919 13.8795L89.4925 13.8798C90.2757 14.2404 90.8098 14.4847 91.2117 14.5998C91.6073 14.7132 91.7288 14.658 91.7945 14.6082C91.8681 14.5524 91.961 14.4311 91.9806 13.9913C92.0002 13.5508 91.9422 12.9391 91.8563 12.0507L91.8124 11.5998L91.8123 11.5995C91.8098 11.5734 91.8073 11.5476 91.8048 11.5221C91.7637 11.1035 91.7299 10.7584 91.8318 10.4298L91.8319 10.4294C91.9343 10.1 92.1583 9.83864 92.4257 9.52659C92.4427 9.50675 92.4599 9.4867 92.4772 9.46642L92.4775 9.4661L92.7667 9.12829C92.7667 9.12823 92.7668 9.12816 92.7668 9.1281C93.3364 8.46205 93.7259 8.00444 93.9568 7.63765C94.1843 7.2761 94.1834 7.11718 94.1512 7.01358L94.6287 6.86525M86.5387 4.34877L91.4399 6.07298L91.8636 6.16891C92.7006 6.35843 93.2698 6.48874 93.6597 6.64242C94.0401 6.79235 94.1205 6.91521 94.1513 7.0139L94.6287 6.86525M86.5387 4.34877C86.9692 3.57679 87.2655 3.04801 87.528 2.70526C87.7902 2.36288 87.9241 2.33325 88 2.33325C88.0759 2.33325 88.2098 2.36288 88.472 2.70526C88.7345 3.04801 89.0308 3.57679 89.4613 4.34877L89.4613 4.34883M86.5387 4.34877L89.4613 4.34883M94.6287 6.86525C94.4334 6.23811 93.6145 6.0527 91.9755 5.6816L91.974 5.68125L91.55 5.58525L93.1467 9.45325C94.2647 8.14592 94.8233 7.49192 94.6287 6.86525ZM89.4613 4.34883L89.6799 4.74065M89.4613 4.34883L89.6799 4.74065M89.6799 4.74065C89.6799 4.74071 89.68 4.74077 89.68 4.74083C89.6932 4.76441 89.7061 4.78777 89.719 4.8109M89.6799 4.74065L89.719 4.8109M89.719 4.8109C89.9195 5.17183 90.0886 5.47627 90.3606 5.6832M89.719 4.8109L90.3606 5.6832M90.3606 5.6832C90.6361 5.89275 90.9729 5.96824 91.3635 6.05582M90.3606 5.6832L91.3635 6.05582M91.3635 6.05582C91.3887 6.06146 91.414 6.06714 91.4396 6.07291L91.3635 6.05582Z" fill="#F1FF00" stroke="black"/>
</svg>
