<svg width="25" height="27" viewBox="0 0 25 27" fill="none" xmlns="http://www.w3.org/2000/svg">
<path d="M24.7071 19.3736C25.0976 18.9831 25.0976 18.3499 24.7071 17.9594L18.3431 11.5954C17.9526 11.2049 17.3195 11.2049 16.9289 11.5954C16.5384 11.986 16.5384 12.6191 16.9289 13.0096L22.5858 18.6665L16.9289 24.3234C16.5384 24.7139 16.5384 25.347 16.9289 25.7376C17.3195 26.1281 17.9526 26.1281 18.3431 25.7376L24.7071 19.3736ZM0 0.666504V14.6665H2V0.666504H0ZM5 19.6665H24V17.6665H5V19.6665ZM0 14.6665C0 17.4279 2.23858 19.6665 5 19.6665V17.6665C3.34315 17.6665 2 16.3234 2 14.6665H0Z" fill="#E7E7E7"/>
</svg>
