<svg width="29" height="29" viewBox="0 0 29 29" fill="none" xmlns="http://www.w3.org/2000/svg">
<path d="M21.0417 10.2709H20.5417H20.0417C20.0417 11.6515 18.9109 12.7917 17.5208 12.7917C16.1308 12.7917 15 11.6515 15 10.2709H14.5H14C14 11.6515 12.8692 12.7917 11.4792 12.7917C10.0891 12.7917 8.95834 11.6515 8.95834 10.2709H8.45834H7.95834C7.95834 11.6515 6.82756 12.7917 5.4375 12.7917C4.06773 12.7917 2.94973 11.6845 2.91739 10.3312L4.57897 3.85226L4.5794 3.85077C4.5808 3.84611 4.58352 3.8373 4.58768 3.82492C4.59604 3.80005 4.60997 3.76145 4.63028 3.71377C4.67147 3.61705 4.7357 3.49052 4.8273 3.36686C5.00737 3.12377 5.26924 2.91675 5.67917 2.91675H23.3208C23.7308 2.91675 23.9926 3.12377 24.1727 3.36686C24.2643 3.49052 24.3285 3.61705 24.3697 3.71377C24.39 3.76145 24.404 3.80005 24.4123 3.82492C24.4165 3.8373 24.4192 3.84611 24.4206 3.85077L24.421 3.85223L26.0826 10.3312C26.0503 11.6845 24.9323 12.7917 23.5625 12.7917C22.1724 12.7917 21.0417 11.6515 21.0417 10.2709ZM19.2729 21.8997H20.6165C20.3294 22.1346 19.9614 22.2651 19.5629 22.2651C19.0988 22.2651 18.6321 22.0695 18.2853 21.7349C17.6472 21.0727 17.6455 19.9977 18.3119 19.322L18.3119 19.3219C18.947 18.6776 20.0153 18.6668 20.6965 19.3007L20.6969 19.3011L20.866 19.4581L20.8959 19.4859H19.2729H18.7729V19.9859V21.3997V21.8997H19.2729ZM15.305 20.5417C15.305 21.641 15.7325 22.6655 16.5201 23.426C17.3305 24.2165 18.4163 24.6614 19.5485 24.6667H19.5508H19.575C20.6659 24.6667 21.6515 24.2696 22.378 23.5571L22.3781 23.5571L22.3852 23.5499C23.0424 22.8787 23.4583 21.884 23.4583 20.9405V20.9243C23.4584 20.6932 23.4584 20.3955 23.3877 20.0783L23.3531 19.8938L23.2766 19.4859H22.8617H21.5197L21.5619 19.4432L22.5769 18.4161L22.9503 18.0382L22.5505 17.6884L22.3626 17.5239C21.5929 16.8119 20.5791 16.4167 19.5146 16.4167H19.5025C18.394 16.4167 17.3495 16.8419 16.5663 17.6113L16.5662 17.6114C15.7635 18.4005 15.305 19.445 15.305 20.5417ZM23.5625 15.6042C24.015 15.6042 24.4559 15.5444 24.875 15.4353V24.1667C24.875 25.2198 24.0114 26.0834 22.9583 26.0834H6.04167C4.98865 26.0834 4.12501 25.2198 4.12501 24.1667V15.4348C4.803 15.6106 5.51162 15.6504 6.20957 15.5492C7.01979 15.4317 7.78983 15.1279 8.46 14.6638C9.32224 15.2556 10.3632 15.6042 11.4792 15.6042C12.6039 15.6042 13.6463 15.2567 14.5018 14.6639C15.364 15.2556 16.4049 15.6042 17.5208 15.6042C18.6448 15.6042 19.6867 15.2571 20.5419 14.665C21.3995 15.2574 22.4498 15.6042 23.5625 15.6042Z" fill="#060606" stroke="black"/>
</svg>
