<svg width="113" height="48" viewBox="0 0 113 48" fill="none" xmlns="http://www.w3.org/2000/svg">
<path opacity="0.95" d="M32.4467 24.1387H30.717V14.9342C30.717 5.18341 24.2293 0.29126 15.6524 0.29126C7.07561 0.29126 0.587891 5.1882 0.587891 14.9342V24.1387H9.22222V33.3432C9.22222 43.0939 15.7099 47.9861 24.2868 47.9861C32.8636 47.9861 39.3513 43.0891 39.3513 33.3432V24.1387H32.4467Z" fill="#F26522"/>
<path d="M59.6338 2.15039H64.4253V21.3165H59.6338V2.15039Z" fill="black"/>
<path d="M85.4553 11.7333C85.4553 17.349 81.5166 21.7189 75.8722 21.7189C70.2278 21.7189 65.7573 17.3538 65.7573 11.7333C65.7573 6.11288 70.1751 1.7478 76.0064 1.7478C78.8813 1.7478 81.3585 2.75881 83.117 4.41189L80.0025 7.81866C79.0442 6.88911 77.6307 6.27579 76.0112 6.27579C72.8679 6.27579 70.5536 8.67155 70.5536 11.7333C70.5536 14.7951 72.8679 17.1909 75.877 17.1909C78.0859 17.1909 79.6288 16.0745 80.405 14.3974H73.4286V10.4061H85.3834C85.3834 10.4061 85.4649 11.1536 85.4649 11.7381L85.4553 11.7333Z" fill="black"/>
<path d="M86.7871 2.15039H91.5786V21.3165H86.7871V2.15039Z" fill="black"/>
<path d="M106.49 6.67838H101.833V21.3213H97.0412V6.67838H92.3838V2.15039H106.495V6.67838H106.49Z" fill="black"/>
<path d="M64.6074 39.2607H64.5547V46.5821H59.7632V27.416H66.4186C70.1464 27.416 72.5422 30.1855 72.5422 33.3527C72.5422 35.5616 71.373 37.5836 69.3989 38.5707L74.6696 46.5821H69.0779L64.6074 39.2607ZM64.5499 31.5367V35.7964H65.6136C66.9169 35.7964 67.8752 34.8908 67.8752 33.669C67.8752 32.4471 66.9169 31.5415 65.6136 31.5415H64.5499V31.5367Z" fill="black"/>
<path d="M75.2012 27.4114H79.9927V46.5775H75.2012V27.4114Z" fill="black"/>
<path d="M94.6357 41.3883C94.6357 44.3446 92.3741 46.5775 88.8331 46.5775H82.125V27.4114H88.9146C92.1105 27.4114 94.1038 29.8071 94.1038 32.4712C94.1038 34.201 93.227 35.878 91.6793 36.7836C93.5432 37.6604 94.6357 39.3662 94.6357 41.3883ZM86.9165 31.2733V35.0011H87.4484C88.699 35.0011 89.4464 34.2537 89.4464 33.1372C89.4464 32.0208 88.699 31.2733 87.4484 31.2733H86.9165ZM89.9783 40.7222C89.9783 39.4956 89.2069 38.7242 87.8509 38.7242H86.9213V42.7155H87.8509C89.2069 42.7155 89.9783 41.9441 89.9783 40.7174V40.7222Z" fill="black"/>
<path opacity="0.95" d="M48.9822 2.15039H43.127V6.54422H48.9822C52.1781 6.54422 53.5102 8.61895 53.5102 11.7334C53.5102 14.8479 52.1781 16.9227 48.9822 16.9227H43.127V21.3165H48.9822C55.1872 21.3165 58.3017 17.191 58.3017 11.7334C58.3017 6.27589 55.1872 2.15039 48.9822 2.15039Z" fill="black"/>
<path opacity="0.99" d="M52.4465 27.4114H58.3017V31.8052H52.4465C49.2505 31.8052 47.9185 33.8799 47.9185 36.9944C47.9185 40.1089 49.2505 42.1836 52.4465 42.1836H58.3017V46.5775H52.4465C46.2414 46.5775 43.127 42.452 43.127 36.9944C43.127 31.5369 46.2414 27.4114 52.4465 27.4114Z" fill="black"/>
<path d="M109.653 0.765581H109.035V2.7301H108.675V0.765581H108.057V0.430176H109.648V0.765581H109.653Z" fill="black"/>
<path d="M109.959 0.430176H110.257L111.157 2.19825L112.053 0.430176H112.331V2.7349H111.986V1.24473L111.224 2.7349H111.081L110.319 1.24473V2.7349H109.969V0.430176H109.959Z" fill="black"/>
</svg>
