<svg width="22" height="22" viewBox="0 0 22 22" fill="none" xmlns="http://www.w3.org/2000/svg">
<path fillRule="evenodd" clipRule="evenodd" d="M18.5055 6.07118C20.183 6.07118 21.5428 4.7121 21.5428 3.03559C21.5428 1.35908 20.183 0 18.5055 0C16.8282 0 15.4684 1.35908 15.4684 3.03559C15.4684 4.7121 16.8282 6.07118 18.5055 6.07118Z" fill="#6D758F"/>
<path fillRule="evenodd" clipRule="evenodd" d="M18.5055 14.0355C20.183 14.0355 21.5428 12.6765 21.5428 11C21.5428 9.32342 20.183 7.96436 18.5055 7.96436C16.8282 7.96436 15.4684 9.32342 15.4684 11C15.4684 12.6765 16.8282 14.0355 18.5055 14.0355Z" fill="#6D758F"/>
<path fillRule="evenodd" clipRule="evenodd" d="M18.5055 21.9999C20.183 21.9999 21.5428 20.6408 21.5428 18.9643C21.5428 17.2878 20.183 15.9287 18.5055 15.9287C16.8282 15.9287 15.4684 17.2878 15.4684 18.9643C15.4684 20.6408 16.8282 21.9999 18.5055 21.9999Z" fill="#6D758F"/>
<path fillRule="evenodd" clipRule="evenodd" d="M10.7715 14.0355C12.449 14.0355 13.8088 12.6765 13.8088 11C13.8088 9.32342 12.449 7.96436 10.7715 7.96436C9.09416 7.96436 7.73436 9.32342 7.73436 11C7.73436 12.6765 9.09416 14.0355 10.7715 14.0355Z" fill="#6D758F"/>
<path fillRule="evenodd" clipRule="evenodd" d="M10.7715 21.9999C12.449 21.9999 13.8088 20.6408 13.8088 18.9643C13.8088 17.2878 12.449 15.9287 10.7715 15.9287C9.09416 15.9287 7.73436 17.2878 7.73436 18.9643C7.73436 20.6408 9.09416 21.9999 10.7715 21.9999Z" fill="#6D758F"/>
<path fillRule="evenodd" clipRule="evenodd" d="M3.03736 21.9999C4.71476 21.9999 6.07455 20.6408 6.07455 18.9643C6.07455 17.2878 4.71476 15.9287 3.03736 15.9287C1.35997 15.9287 0.000167847 17.2878 0.000167847 18.9643C0.000167847 20.6408 1.35997 21.9999 3.03736 21.9999Z" fill="#6D758F"/>
</svg>
