<svg width="146" height="98" viewBox="0 0 146 98" fill="none" xmlns="http://www.w3.org/2000/svg">
<path d="M35.2349 4.43018H45.2349V44.4302H35.2349V4.43018Z" fill="black"/>
<path d="M89.1249 24.4301C89.1249 36.1501 80.9049 45.2701 69.1249 45.2701C57.3449 45.2701 48.0149 36.1601 48.0149 24.4301C48.0149 12.7001 57.2349 3.59009 69.4049 3.59009C75.4049 3.59009 80.5749 5.70009 84.2449 9.15009L77.7449 16.2601C75.7449 14.3201 72.7949 13.0401 69.4149 13.0401C62.8549 13.0401 58.0249 18.0401 58.0249 24.4301C58.0249 30.8201 62.8549 35.8201 69.1349 35.8201C73.7449 35.8201 76.9649 33.4901 78.5849 29.9901H64.0249V21.6601H88.9749C88.9749 21.6601 89.1449 23.2201 89.1449 24.4401L89.1249 24.4301Z" fill="black"/>
<path d="M91.9048 4.43018H101.905V44.4302H91.9048V4.43018Z" fill="black"/>
<path d="M133.025 13.8802H123.305V44.4402H113.305V13.8802H103.585V4.43018H133.035V13.8802H133.025Z" fill="black"/>
<path d="M45.6149 81.8802H45.5049V97.1602H35.5049V57.1602H49.3949C57.1749 57.1602 62.1749 62.9402 62.1749 69.5502C62.1749 74.1602 59.7349 78.3802 55.6149 80.4402L66.6149 97.1602H54.9449L45.6149 81.8802ZM45.4949 65.7602V74.6502H47.7149C50.4349 74.6502 52.4349 72.7602 52.4349 70.2102C52.4349 67.6602 50.4349 65.7702 47.7149 65.7702H45.4949V65.7602Z" fill="black"/>
<path d="M67.7249 57.1501H77.7249V97.1501H67.7249V57.1501Z" fill="black"/>
<path d="M108.285 86.3201C108.285 92.4901 103.565 97.1501 96.1748 97.1501H82.1748V57.1501H96.3448C103.015 57.1501 107.175 62.1501 107.175 67.7101C107.175 71.3201 105.345 74.8201 102.115 76.7101C106.005 78.5401 108.285 82.1001 108.285 86.3201ZM92.1748 65.2101V72.9901H93.2848C95.8948 72.9901 97.4548 71.4301 97.4548 69.1001C97.4548 66.7701 95.8948 65.2101 93.2848 65.2101H92.1748ZM98.5648 84.9301C98.5648 82.3701 96.9548 80.7601 94.1248 80.7601H92.1848V89.0901H94.1248C96.9548 89.0901 98.5648 87.4802 98.5648 84.9202V84.9301Z" fill="black"/>
<path opacity="0.95" d="M13.0049 4.43018H0.784912V13.6002H13.0049C19.6749 13.6002 22.4549 17.9302 22.4549 24.4302C22.4549 30.9302 19.6749 35.2602 13.0049 35.2602H0.784912V44.4302H13.0049C25.9549 44.4302 32.4549 35.8202 32.4549 24.4302C32.4549 13.0402 25.9549 4.43018 13.0049 4.43018Z" fill="black"/>
<path opacity="0.99" d="M20.2349 57.1501H32.4549V66.3201H20.2349C13.5649 66.3201 10.7849 70.6501 10.7849 77.1501C10.7849 83.6501 13.5649 87.9801 20.2349 87.9801H32.4549V97.1501H20.2349C7.28491 97.1501 0.784912 88.5401 0.784912 77.1501C0.784912 65.7601 7.28491 57.1501 20.2349 57.1501Z" fill="black"/>
<path d="M139.625 1.54008H138.335V5.64008H137.585V1.54008H136.295V0.840088H139.615V1.54008H139.625Z" fill="black"/>
<path d="M140.265 0.840088H140.885L142.765 4.53008L144.635 0.840088H145.215V5.65009H144.495V2.54008L142.905 5.65009H142.605L141.015 2.54008V5.65009H140.285V0.840088H140.265Z" fill="black"/>
</svg>
