<svg width="187" height="32" viewBox="0 0 187 32" fill="none" xmlns="http://www.w3.org/2000/svg">
<path d="M26.35 0.700195H34V31.2902H26.35V0.700195Z" fill="white"/>
<path d="M67.56 16.0001C67.56 24.9701 61.27 31.9301 52.26 31.9301C43.25 31.9301 36.11 24.9601 36.11 16.0001C36.11 7.04006 43.16 0.0700684 52.47 0.0700684C57.06 0.0700684 61.01 1.68007 63.81 4.32007L58.84 9.76007C57.31 8.27007 55.06 7.30006 52.47 7.30006C47.46 7.30006 43.76 11.1201 43.76 16.0101C43.76 20.9001 47.46 24.7201 52.26 24.7201C55.79 24.7201 58.25 22.9401 59.48 20.2601H48.35V13.8901H67.43C67.43 13.8901 67.56 15.0801 67.56 16.0101V16.0001Z" fill="white"/>
<path d="M69.69 0.700195H77.34V31.2902H69.69V0.700195Z" fill="white"/>
<path d="M101.13 7.92996H93.69V31.3H86.04V7.92996H78.6V0.709961H101.12V7.92996H101.13Z" fill="white"/>
<path d="M138.86 19.6102H138.77V31.2902H131.12V0.700195H141.74C147.69 0.700195 151.51 5.12019 151.51 10.1802C151.51 13.7102 149.64 16.9402 146.5 18.5102L154.91 31.3002H145.99L138.85 19.6202L138.86 19.6102ZM138.78 7.29019V14.0902H140.48C142.56 14.0902 144.09 12.6502 144.09 10.6902C144.09 8.73019 142.56 7.29019 140.48 7.29019H138.78Z" fill="white"/>
<path d="M155.77 0.700195H163.42V31.2902H155.77V0.700195Z" fill="white"/>
<path d="M186.79 23.01C186.79 27.73 183.18 31.3 177.53 31.3H166.82V0.709961H177.65C182.75 0.709961 185.94 4.52995 185.94 8.77995C185.94 11.54 184.54 14.22 182.07 15.66C185.04 17.06 186.79 19.78 186.79 23.01ZM174.47 6.85995V12.81H175.32C177.32 12.81 178.51 11.62 178.51 9.83997C178.51 8.05997 177.32 6.86996 175.32 6.86996H174.47V6.85995ZM179.35 21.95C179.35 20 178.12 18.76 175.95 18.76H174.46V25.13H175.95C178.12 25.13 179.35 23.9 179.35 21.94V21.95Z" fill="white"/>
<path d="M9.35001 0.700195H0V7.71019H9.35001C14.45 7.71019 16.57 11.0202 16.57 16.0002C16.57 20.9802 14.45 24.2902 9.35001 24.2902H0V31.3002H9.35001C19.25 31.3002 24.22 24.7102 24.22 16.0002C24.22 7.29018 19.25 0.700195 9.35001 0.700195Z" fill="white"/>
<path d="M119.45 0.700195H128.8V7.71019H119.45C114.35 7.71019 112.23 11.0202 112.23 16.0002C112.23 20.9802 114.35 24.2902 119.45 24.2902H128.8V31.3002H119.45C109.55 31.3002 104.58 24.7102 104.58 16.0002C104.58 7.29018 109.55 0.700195 119.45 0.700195Z" fill="white"/>
</svg>
