<svg width="240" height="218" viewBox="0 0 234 218" fill="none" xmlns="http://www.w3.org/2000/svg">
<g clip-path="url(#clip0_88_590)">
<path fill-rule="evenodd" clip-rule="evenodd" d="M121.411 106.452C117.347 103.35 107.146 101.955 102.809 104.942C98.5251 107.941 98.0581 112.792 96.062 117.254C94.1787 116.364 91.0685 117.639 90.5225 119.391C89.8453 120.217 89.8149 122.539 89.3479 123.65C69.0278 126.892 65.9428 142.775 63.497 160.807C60.2614 179.104 52.9162 197.361 56.1049 216.19C55.6894 216.792 55.3618 217.378 55.0589 218.074C54.3332 219.312 55.268 221.065 56.7319 220.997C58.6267 220.83 60.5028 220.602 62.4066 220.531C67.684 220.347 72.9663 220.369 78.2457 220.437L78.9656 220.446C105.572 220.778 132.178 221.432 158.786 221.606C159.751 221.607 160.224 220.739 160.095 219.883C159.835 218.159 159.594 216.435 159.343 214.71C165.636 216.377 172.327 216.796 178.603 214.885C179.042 214.437 177.58 214.68 177.348 214.612C183.123 210.655 181.399 202.32 180.887 196.316C177.706 175.744 176.584 152.983 164.293 135.428C158.975 128.265 151.179 122.593 142.221 121.316L141.973 121.282C139.353 120.932 136.434 120.819 134.144 119.391C131.568 117.329 130.471 113.52 127.761 113.484C126.866 113.473 125.649 114.608 124.339 115.378C124.241 113.683 123.33 112.253 123.129 110.938L123.113 110.826C122.903 109.294 123.19 107.915 121.411 106.452ZM77.7407 161.35C83.4512 157.373 98.2027 159.371 98.5404 159.594C99.2839 160.084 99.6041 160.128 100.006 160.764C100.403 160.817 100.8 160.872 101.196 160.928C101.992 161.189 101.402 162.17 100.484 161.82C101.036 164.208 99.4104 165.907 98.7631 168.269C98.5529 169.036 98.7555 170.415 98.7631 171.198C98.7003 172.197 97.5987 173.377 97.7823 174.379C98.435 177.942 101.977 181.418 100.484 184.873C99.4945 186.825 96.5189 187.82 94.5406 188.483C90.4419 190.06 83.3003 188.424 80.9189 184.873C79.6486 182.979 78.177 178.202 77.4196 176.72L77.2518 174.369C76.8378 168.526 76.4695 162.236 77.7407 161.35Z" fill="white"/>
<path fill-rule="evenodd" clip-rule="evenodd" d="M128.756 113.14C128.362 112.79 127.778 113.23 128.029 113.702C128.592 114.765 129.169 115.772 129.925 116.711C130.383 117.281 130.874 117.82 131.371 118.352C130.095 119.459 129 120.833 127.967 122.121C126.645 123.769 125.395 125.486 123.912 126.993C122.449 128.479 120.831 129.519 118.874 130.211L118.479 130.349C116.514 131.041 114.414 131.975 113.306 133.84C113.088 134.208 113.527 134.663 113.897 134.433C115.822 133.238 118.084 132.998 120.179 132.208C122.203 131.446 123.967 130.272 125.526 128.774C127.082 127.278 128.389 125.577 129.752 123.911C131.1 122.264 132.551 120.858 134.145 119.464C136.605 121.124 139.414 121.846 142.269 122.555L142.581 122.632C145.44 123.342 148.284 124.166 150.966 125.402C153.331 126.491 155.657 127.792 157.583 129.565C159.628 131.447 161.219 133.85 162.676 136.199C165.934 141.457 168.225 147.217 170.242 153.046C172.339 159.11 174.094 165.295 175.51 171.554C176.23 174.737 176.815 177.944 177.296 181.172C177.528 182.727 177.733 184.285 177.914 185.847C178.106 187.515 178.151 189.231 178.661 190.834C178.88 191.521 179.396 191.806 179.913 191.782L180.018 193.099C180.158 194.855 180.288 196.611 180.331 198.377C180.404 201.315 180.371 204.244 180.16 207.175L180.131 207.574C179.965 209.714 179.595 212.117 177.99 213.683C176.329 215.306 173.774 215.816 171.534 215.845C166.318 215.913 161.297 213.442 156.681 211.275C151.927 209.042 147.304 206.564 142.791 203.877C140.492 202.508 138.219 201.094 135.974 199.638C134.873 198.924 133.779 198.197 132.694 197.459C132.072 197.036 131.483 196.573 130.85 196.198C131.16 195.908 131.299 195.453 131.039 195.056C132.868 193.463 133.63 190.622 133.719 188.323C133.791 186.467 133.519 184.617 133.304 182.778C133.195 181.851 133.061 180.926 132.922 180.003C132.867 179.638 132.825 179.248 132.761 178.864C137.701 181.585 142.78 184.01 147.994 186.163C150.666 187.267 153.373 188.26 156.117 189.169L156.673 189.353C159.273 190.206 161.935 191.012 164.622 191.5C164.766 191.526 164.883 191.313 164.729 191.245C162.11 190.086 159.4 189.109 156.741 188.042L156.305 187.863C156.355 187.861 156.407 187.854 156.461 187.841C158.02 187.463 159.567 186.882 161.097 186.392C162.516 185.938 164.11 185.653 165.437 184.967C165.539 184.914 165.482 184.772 165.383 184.765C163.892 184.661 162.273 185.097 160.811 185.353L160.262 185.45C159.342 185.612 158.401 185.787 157.486 186.015C157.453 185.708 157.281 185.399 157.038 185.218C154.355 183.226 154.627 179.203 154.34 176.237L154.128 174.034C153.753 170.18 153.357 166.326 152.756 162.5C152.724 162.296 152.409 162.355 152.407 162.548C152.376 167.29 152.733 172.01 152.912 176.745L152.94 177.522C153.039 180.443 153.117 183.477 154.952 185.725C154.695 185.575 154.348 185.575 154.14 185.823C153.885 186.128 153.737 186.47 153.742 186.806C152.084 186.109 150.432 185.393 148.789 184.664C143.506 182.317 138.334 179.691 133.299 176.85C132.757 176.544 132.242 176.784 131.974 177.188L131.935 177.182C131.929 177.181 131.922 177.181 131.915 177.18L131.877 177.179C131.876 177.179 131.874 177.179 131.873 177.179C131.164 176.788 130.198 177.066 129.59 177.636C129.572 177.653 129.557 177.672 129.541 177.69C128.771 177.343 128.052 176.875 127.399 176.282C126.064 175.069 124.933 173.569 123.947 172.064C122.131 169.293 120.589 166.212 118.136 163.931C116.143 162.078 113.672 160.924 111.08 160.2C111.091 160.124 111.062 160.043 111.009 159.989C110.876 159.852 110.781 159.805 110.609 159.888C110.595 159.895 110.587 159.904 110.582 159.914L110.329 159.48C110.191 159.245 110.049 159.009 110 158.946C109.705 158.575 109.402 158.206 109.095 157.845C108.574 157.234 107.98 156.631 107.292 156.207C105.785 155.28 104.202 155.805 102.653 156.312C101.718 156.618 100.785 156.934 99.8513 157.245L99.7549 157.277C99.0585 157.501 98.2435 157.698 97.9321 158.437C97.8088 158.73 97.7897 159.034 97.8471 159.329C91.2323 157.642 83.8853 158.417 77.4304 160.397C77.1826 160.473 76.9352 160.677 76.883 160.945C76.1434 164.748 75.814 168.648 76.1487 172.515C76.4374 175.853 77.1752 179.125 78.5655 182.181L78.6446 182.354C79.9512 185.186 82.0221 188.678 85.1848 189.566C87.0945 190.102 89.2066 189.786 91.1543 189.687C93.0472 189.592 94.982 189.578 96.857 189.28C98.5268 189.014 99.9899 188.263 101.022 186.902C101.912 185.728 102.381 184.309 102.765 182.897C102.941 182.953 103.115 183.012 103.287 183.08C104.013 183.364 104.627 183.822 105.183 184.362C106.357 185.501 107.267 186.885 108.495 187.972C109.606 188.957 110.873 189.722 112.231 190.311C115.046 191.53 118.066 192.017 121.044 192.664L121.252 192.709C123.493 193.202 125.782 193.808 127.76 194.978C127.799 195.322 127.955 195.646 128.206 195.859C127.857 196.187 127.709 196.708 128.016 197.196C128.873 198.559 130.348 199.334 131.673 200.206L131.759 200.263C133.062 201.129 134.377 201.978 135.702 202.809C138.396 204.5 141.146 206.098 143.935 207.626C148.421 210.083 153.003 212.4 157.668 214.503C157.388 215.884 157.49 217.308 157.28 218.698L157.248 218.896C157.158 219.412 157.279 219.844 157.634 220.181L157.671 220.216L157.67 220.211L157.704 220.242L157.715 220.251L157.711 220.248C157.752 220.286 157.794 220.321 157.837 220.35L157.892 220.386C158.233 220.594 158.673 220.591 159.023 220.408L159.062 220.386L159.13 220.347C159.592 220.081 159.91 219.421 159.718 218.896C159.247 217.608 159.07 216.233 158.635 214.935L158.98 215.09L159.434 215.289C164.353 217.421 169.816 219.217 175.175 217.763C177.543 217.121 179.756 215.762 180.94 213.547C182.106 211.367 182.271 208.837 182.333 206.412C182.409 203.42 182.249 200.382 181.856 197.415C181.591 195.424 181.272 193.395 180.779 191.424C181.032 191.2 181.219 190.878 181.268 190.48C181.501 188.598 181.094 186.641 180.844 184.769C180.601 182.94 180.332 181.116 180.028 179.297C179.414 175.623 178.7 171.957 177.869 168.327C176.391 161.866 174.438 155.519 172.087 149.324L171.882 148.785C169.709 143.122 167.194 137.581 163.692 132.607C162.017 130.227 160.246 128.069 157.879 126.354C155.661 124.748 153.16 123.591 150.578 122.706C147.994 121.822 145.338 121.229 142.635 120.86C139.89 120.485 136.992 120.255 134.431 119.126C134.755 118.544 134.477 117.758 133.932 117.397C132.097 116.182 130.4 114.601 128.756 113.14ZM70.0212 165.988C69.9443 165.871 69.7618 165.945 69.7955 166.083C70.6879 169.748 71.5256 173.421 72.0726 177.156C73.06 183.898 72.8784 190.728 72.7977 197.519L72.7936 197.871C72.7521 201.529 72.6945 205.187 72.5738 208.844C72.5129 210.692 72.3924 212.558 72.458 214.407C72.4937 215.41 72.7603 216.359 72.8548 217.35C72.9376 218.217 72.8639 219.097 72.8226 219.965C72.7949 220.542 73.6443 220.517 73.7021 219.965L73.776 219.25C73.872 218.346 73.9906 217.447 74.2861 216.582C74.6415 215.541 74.8121 214.519 74.9354 213.426C75.1242 211.751 75.2082 210.06 75.2811 208.373L75.3309 207.207C75.6353 200.159 75.6246 193.078 75.1319 186.038L75.0959 185.535C74.608 178.88 73.7614 171.69 70.0212 165.988ZM89.043 124.044C89.2761 123.948 89.1944 123.595 88.9363 123.657L88.4669 123.769C85.0274 124.595 81.6503 125.49 78.44 127.027C75.2275 128.564 72.5078 130.86 70.3468 133.683C66.1459 139.171 64.4001 145.84 63.022 152.503C61.4904 159.907 60.096 167.337 58.5511 174.739L58.2642 176.117C56.8347 183.011 55.4851 189.908 54.4906 196.883L54.4192 197.389C53.4163 204.562 52.8131 211.983 53.9074 219.174C54.1239 220.597 56.4854 220.243 56.3931 218.837C56.1264 214.774 55.9354 210.731 56.12 206.658C56.3047 202.585 56.6857 198.529 57.2538 194.491C57.7319 191.093 58.4445 187.737 59.0752 184.366L59.174 183.834C59.7021 180.966 60.2465 178.102 60.7897 175.237L61.6015 170.948C62.8181 164.526 64.0586 158.099 65.4603 151.717L65.5434 151.342C66.9151 145.202 68.9374 138.77 73.0519 133.895C77.2273 128.947 83.2045 126.455 89.043 124.044ZM104.215 189.167C104.114 188.943 103.763 188.968 103.655 189.167C103.232 189.95 103.185 190.949 103.105 191.833L103.097 191.924C102.995 193.002 102.905 194.084 102.85 195.165C102.745 197.218 102.695 199.268 102.702 201.324C102.708 203.43 102.75 205.534 102.864 207.638L102.894 208.201C102.998 210.029 103.171 212.068 104.038 213.666C104.352 214.247 105.209 214.076 105.391 213.489C105.989 211.565 105.682 209.284 105.529 207.314L105.41 205.777C105.292 204.239 105.18 202.701 105.09 201.162C104.968 199.056 104.868 196.948 104.771 194.841C104.739 194.157 104.705 193.472 104.669 192.788L104.614 191.761C104.566 190.903 104.57 189.961 104.215 189.167ZM171.401 191.894L171.137 191.637C170.325 190.841 169.298 189.614 168.098 189.69C167.619 189.72 167.314 190.119 167.414 190.591C167.626 191.6 168.653 192.124 169.392 192.74C170.202 193.415 170.965 194.136 171.727 194.865C172.403 195.51 173.053 196.175 173.687 196.859L173.924 197.117C174.152 197.366 175.771 198.834 175.596 199.215L175.586 199.232C175.538 199.305 175.619 199.406 175.7 199.38C176.399 199.159 176.355 198.558 176.091 197.949C175.583 196.779 174.693 195.697 173.917 194.698C173.142 193.702 172.303 192.774 171.401 191.894ZM101.681 162.558C102.222 161.277 104.214 161.304 105.345 161.38C108.192 161.573 111.274 162.295 113.807 163.63C116.434 165.013 118.204 167.23 119.787 169.681L119.861 169.796C121.405 172.202 122.891 175.049 125.307 176.702C126.538 177.545 127.976 178.314 129.469 178.647C129.571 178.828 129.738 178.971 129.955 179.023L130.057 179.046C130.482 179.14 131.143 179.245 131.713 179.182C131.71 179.462 131.713 179.74 131.705 180.005C131.685 180.765 131.677 181.528 131.677 182.289C131.676 183.882 131.762 185.479 131.696 187.072C131.637 188.481 131.438 189.954 130.763 191.214C130.268 192.138 129.615 192.749 128.826 193.333C126.886 192.148 124.692 191.425 122.466 190.882C119.773 190.225 117.016 189.786 114.385 188.896C113.118 188.467 111.9 187.905 110.797 187.143C109.626 186.334 108.732 185.238 107.812 184.167L107.668 184.001C106.729 182.921 105.704 181.888 104.377 181.302C103.234 180.798 101.728 180.708 100.728 179.928C100.206 179.52 100.162 178.927 100.107 178.32C100.747 178.412 101.425 178.265 102.063 178.19L102.393 178.151C102.996 178.079 103.585 178 104.179 177.847C104.29 177.818 104.29 177.651 104.179 177.623C103.478 177.441 102.782 177.364 102.063 177.279L101.894 177.258C101.243 177.172 100.558 177.043 99.9199 177.187C99.8053 176.75 99.6399 176.333 99.4078 175.915C99.082 175.328 98.4656 174.662 98.3823 173.976C98.3574 173.772 98.405 173.53 98.5013 173.349L98.5345 173.287C98.5749 173.215 98.6229 173.141 98.6931 173.096C98.7008 173.105 98.7172 173.115 98.753 173.127C99.2443 173.282 99.673 173.041 99.9005 172.669C100.866 172.789 101.92 172.749 102.826 172.789L103.742 172.833C104.72 172.878 105.743 172.898 106.663 172.7C106.791 172.672 106.83 172.458 106.701 172.403C105.571 171.918 104.2 171.763 102.989 171.577C102.314 171.473 101.633 171.394 100.955 171.302C100.503 171.241 100.024 171.14 99.5568 171.116C98.3842 169.653 99.016 167.344 100.648 166.714C101.242 166.976 101.777 166.824 102.426 166.768C103.074 166.712 103.724 166.674 104.375 166.677C105.679 166.683 107.061 167.027 108.353 166.879C108.563 166.854 108.758 166.574 108.549 166.403C107.561 165.594 106.144 165.331 104.889 165.158L104.629 165.123C104.208 165.068 103.696 164.987 103.166 164.939C103.046 164.705 102.83 164.527 102.507 164.483C102.411 164.47 102.314 164.462 102.218 164.454L102.219 164.444C101.43 164.406 101.465 163.071 101.681 162.558ZM155.685 187.549C155.699 187.57 155.714 187.591 155.731 187.61L155.756 187.639L155.626 187.587L155.685 187.549ZM87.9157 159.695C91.2359 159.337 94.5609 159.413 97.8911 159.509C98.1574 160.382 99.0845 161.126 99.9828 161.154C99.2792 162.228 99.2066 163.681 99.7 164.819C98.6526 165.238 97.7502 165.988 97.2023 167.058C96.4426 168.54 96.5421 170.19 97.2929 171.56C96.652 172.142 96.2739 173.086 96.3118 173.977C96.3541 174.969 96.9442 175.817 97.4346 176.639C97.9645 177.528 97.9823 178.311 98.1451 179.306C98.3832 180.763 99.3633 181.647 100.624 182.198L100.557 182.463C100.232 183.732 99.8278 185.07 98.8985 185.998C97.7031 187.192 95.8486 187.181 94.2692 187.256L94.193 187.26C92.7468 187.333 91.3012 187.418 89.8555 187.5L88.7712 187.56C87.1066 187.652 85.5081 187.663 84.1492 186.56C81.9307 184.759 80.4099 181.779 79.4472 179.14C77.4267 173.602 77.4025 167.525 78.33 161.757C81.4403 160.752 84.6676 160.045 87.9157 159.695ZM115.528 168.883L115.503 168.884C114.82 168.963 114.35 169.518 114.183 170.176C113.94 171.133 114.059 171.998 113.474 172.862C112.873 173.75 112.503 174.461 112.416 175.558C112.38 176.01 112.396 176.46 112.296 176.902L112.224 177.212C112.146 177.542 112.083 177.86 112.122 178.215C112.157 178.538 112.314 178.79 112.637 178.893C113.691 179.231 114.505 178.453 114.777 177.468C115.013 176.617 114.698 175.604 115.03 174.805C115.214 174.362 115.553 173.992 115.745 173.546C115.935 173.104 116.03 172.643 116.06 172.162C116.118 171.254 115.317 170.163 115.764 169.34C115.859 169.164 115.751 168.877 115.528 168.883ZM129.528 159.509C128.815 159.363 128.005 159.03 127.301 159.307C126.939 159.45 126.76 159.892 127.066 160.2C127.597 160.733 128.368 160.763 129.083 160.888L129.146 160.9C129.991 161.057 130.838 161.205 131.686 161.346C133.281 161.611 134.88 161.845 136.485 162.044C138.133 162.249 139.786 162.431 141.441 162.568L142.081 162.62C143.479 162.733 144.934 162.817 146.306 162.602C146.505 162.571 146.473 162.28 146.306 162.229C144.803 161.773 143.155 161.651 141.601 161.458C139.949 161.253 138.3 161.036 136.656 160.778C135.014 160.521 133.374 160.245 131.74 159.94C131.002 159.802 130.264 159.659 129.528 159.509ZM103.774 158.045C104.4 157.822 105.089 157.493 105.768 157.603C106.938 157.793 107.98 158.937 108.907 159.69L108.441 159.599C106.061 159.14 102.909 158.646 100.911 160.163C100.906 160.155 100.902 160.146 100.896 160.137C100.735 159.892 100.548 159.7 100.344 159.49C100.325 159.471 100.306 159.452 100.287 159.433L100.177 159.316L100.429 159.228C100.968 159.037 101.607 158.79 101.708 158.754L101.715 158.752C102.402 158.519 103.09 158.288 103.774 158.045ZM123.33 108.027C123.428 106.764 121.467 106.774 121.37 108.027C121.159 110.761 121.772 113.47 123.094 115.867C123.103 115.885 123.114 115.9 123.124 115.917C122.298 116.348 121.462 116.762 120.608 117.131C119.515 117.604 118.401 118.035 117.268 118.4C116.243 118.731 114.98 118.862 114.118 119.55C112.3 121.001 112.983 124.012 113.333 125.964L113.387 126.272C113.561 127.277 113.687 128.307 113.265 129.271C112.814 130.301 111.902 131.064 111.088 131.801L110.924 131.951C110.203 132.609 109.379 133.409 108.851 134.301C108.368 133.301 107.71 132.483 107.014 131.563C106.518 130.906 106.871 130.69 107.228 130.048C107.571 129.43 107.739 128.772 107.631 128.068C107.433 126.766 106.396 125.827 105.364 125.12C104.144 124.287 102.783 123.669 101.523 122.894C98.933 121.3 96.4106 119.479 94.1382 117.456C94.0755 117.4 93.9668 117.473 94.017 117.549C95.8121 120.287 97.917 122.652 100.504 124.66C101.553 125.474 102.655 126.15 103.764 126.859L104.083 127.065C104.528 127.354 105.084 127.74 105.285 128.233C105.488 128.728 105.056 129.102 104.823 129.512C104.085 130.815 104.441 132.031 105.317 133.136L105.357 133.187C106.227 134.262 106.887 135.262 107.202 136.635C107.88 139.585 106.936 142.659 105.948 145.428L105.909 145.537C105.374 147.03 104.806 148.512 104.342 150.029L104.214 150.449C103.793 151.844 103.449 153.221 103.921 154.656C104.081 155.144 104.745 155.259 105.021 154.8C105.994 153.18 106.236 151.231 106.846 149.45C107.44 147.715 108.123 146.01 108.697 144.268C109.436 142.024 109.93 139.609 109.662 137.256C109.67 137.242 109.678 137.229 109.685 137.215L109.873 136.802C110.386 135.685 110.882 134.709 111.815 133.818C112.788 132.889 113.844 132.067 114.61 130.943C116.273 128.5 115.245 125.782 115.044 123.112L115.021 122.784C114.984 122.229 114.964 121.476 115.326 121.092C115.732 120.66 116.685 120.55 117.224 120.358C118.618 119.864 119.991 119.288 121.299 118.596C122.545 117.938 123.751 117.21 124.874 116.358L125.443 115.929C126.341 115.249 127.272 114.507 127.874 113.583C127.944 113.476 127.825 113.304 127.7 113.355C126.695 113.764 125.777 114.414 124.837 114.98C124.822 114.946 124.805 114.911 124.786 114.876C123.623 112.765 123.144 110.427 123.33 108.027ZM91.2335 122.486C90.8332 121.386 89.0086 121.471 89.0814 122.778C89.1371 123.783 89.5626 124.69 89.9516 125.602L89.9931 125.7C90.3948 126.65 90.8587 127.543 91.4138 128.414C92.4744 130.079 93.7167 131.624 95.0436 133.083C96.2466 134.405 97.8256 135.214 99.6451 135.079C100.412 135.023 101.186 134.827 101.857 134.443C102.655 133.987 103.522 132.617 104.54 132.949C104.638 132.981 104.73 132.836 104.645 132.768C103.47 131.819 102.136 133.29 101.011 133.645C99.3153 134.179 97.5755 133.588 96.4843 132.214C95.345 130.78 94.2965 129.173 93.3389 127.611C92.8526 126.818 92.409 125.995 92.0258 125.146C91.6391 124.29 91.5512 123.359 91.2335 122.486ZM93.9663 115.713C94.0157 115.561 93.8274 115.416 93.6942 115.503C92.922 116.007 92.2528 116.673 91.5406 117.257C90.7503 117.904 89.9542 118.539 89.1458 119.163C87.9673 120.074 89.3341 121.751 90.3715 120.756C91.7911 119.395 93.3459 117.615 93.9663 115.713ZM98.2059 110.386C97.8922 109.173 96.0368 109.673 96.3071 110.871L96.316 110.908C96.8281 112.888 96.0987 114.904 94.5417 116.187L94.4844 116.234C93.4993 117.024 94.8949 118.406 95.8702 117.623C97.9995 115.915 98.8853 113.012 98.2059 110.386Z" fill="black"/>
<path fill-rule="evenodd" clip-rule="evenodd" d="M82.5089 80.348C82.8632 77.2263 82.4046 70.7015 82.3739 70.3051C82.1796 67.799 83.3508 57.9029 85.5649 58.8148C89.2789 55.8671 94.2257 55.2162 98.8512 54.9052C108.459 54.2593 118.681 55.7421 126.1 62.2247C129.769 65.5913 133.341 70.4877 133.054 75.586C136.387 80.4186 141.087 87.0476 136.933 92.6973C135.521 94.5023 133.277 95.1745 131.504 96.5415C127.936 99.4263 125.698 103.566 122.097 106.434C112.556 115.03 96.3553 116.825 86.9813 107.048C79.7325 99.9678 80.9046 89.3748 82.1796 80.348C83.0368 74.2792 81.8176 86.438 82.5089 80.348Z" fill="white"/>
<path fill-rule="evenodd" clip-rule="evenodd" d="M111.686 41.6673C109.117 41.1474 106.478 40.8239 103.854 40.9213L103.652 40.9292C101.677 41.0083 99.1769 41.1833 97.4545 42.3344C97.3554 42.2347 97.1961 42.1835 97.0516 42.2527C95.0048 43.2321 92.7535 43.9403 90.5984 44.644C88.4532 45.3443 86.2276 45.8065 83.9792 45.9929C83.1332 46.063 82.4093 46.9788 82.9449 47.8002C83.0723 47.9959 83.1965 48.1936 83.3201 48.3918C83.1133 48.3702 82.9066 48.3479 82.6998 48.327C82.0195 48.2583 81.3398 48.9863 81.3801 49.6504C81.4053 50.0681 81.4502 50.4809 81.5168 50.8887C81.2576 50.8832 81 50.9222 80.7511 51.0276C79.4909 51.5612 79.5786 53.0661 79.6729 54.2112C79.8036 55.8001 80.3964 57.4832 81.497 58.6724C80.6752 59.5281 80.0935 60.55 79.7465 61.7637C79.4948 62.6499 79.3547 63.5939 79.4239 64.5165L79.4459 64.7927C79.5314 65.7938 79.7014 66.9022 80.4198 67.6225C80.7885 67.9938 81.2428 68.1291 81.6759 68.0862C81.414 70.3934 81.2461 72.7138 81.0881 75.026L81.014 76.1311C80.6615 81.4749 80.3966 86.8536 80.4659 92.2062C80.5302 97.2084 81.5161 102.064 84.5762 106.125C87.3633 109.824 91.3649 112.55 95.8917 113.587C98.3313 114.146 100.822 114.186 103.291 113.829C104.488 113.656 105.693 113.39 106.829 112.971C108.086 112.506 108.99 111.821 109.836 110.794C110.236 110.307 110.044 109.271 109.247 109.368C108.042 109.515 106.941 109.691 105.786 110.049L105.62 110.101C104.47 110.471 103.278 110.746 102.075 110.864C99.6103 111.103 97.1084 110.862 94.7477 110.113C90.9039 108.891 87.5936 106.17 85.4717 102.75C82.9532 98.6971 82.6684 94.0959 82.7048 89.4353C82.7437 84.3211 82.9096 79.2039 83.1805 74.095L83.2266 73.2436C83.3698 70.6146 83.5081 67.9839 83.6297 65.3532C83.6676 64.528 83.7252 63.6963 83.8291 62.8727C84.7787 62.3149 85.6298 61.5458 86.1845 60.5969C87.2989 61.059 88.471 61.3924 89.5494 61.6581C92.0472 62.274 94.6405 62.4235 97.1829 62.0378C97.8687 62.3218 98.5682 62.5715 99.2783 62.7864C99.4702 62.8717 99.6622 62.9556 99.8539 63.0378C101.566 63.7722 103.303 64.3944 105.11 64.8499L105.554 64.9609C106.505 65.1959 107.538 65.4274 108.55 65.5001C108.717 65.5645 108.896 65.6189 109.092 65.6668C110.014 65.8912 110.97 65.9622 111.915 65.883C112.835 65.8054 113.5 64.873 112.993 63.9999C112.623 63.3629 112.249 62.7275 111.872 62.0938C113.184 62.6417 114.539 63.0972 115.905 63.4834C117.285 63.8729 118.684 64.2013 120.085 64.5033C120.834 64.6634 121.586 64.8053 122.333 64.9654C122.868 65.0793 123.69 65.1387 124.126 65.4919C124.608 65.8797 124.745 66.7841 124.928 67.3419C125.168 68.0664 125.394 68.7942 125.6 69.5303C126.009 70.9991 126.345 72.4894 126.605 73.9945C126.865 75.5013 127.04 77.0229 127.137 78.5495C127.234 80.0744 127.191 81.6093 127.348 83.1276C127.432 83.933 128.294 84.3472 128.931 83.7844C129.006 83.7184 129.081 83.6517 129.156 83.5842L129.267 83.4824C129.812 82.9873 130.34 82.4625 130.776 81.8717C130.855 81.7627 130.931 81.6489 131.002 81.5333C131.013 81.5333 131.023 81.53 131.035 81.5218L131.156 81.4306C132.487 80.4371 134.711 79.1419 136.009 80.7923C136.423 81.3181 136.635 81.9876 136.811 82.6335L137.119 83.7895C137.319 84.5441 137.506 85.303 137.616 86.0751C137.865 87.8047 137.74 89.7983 136.553 91.1846C136.079 91.7392 135.425 92.1352 134.696 92.2392C134.289 92.2953 133.888 92.226 133.484 92.1749C133.074 92.1237 132.68 92.2062 132.269 92.1666C131.618 92.1022 131.333 92.8845 131.576 93.3763C131.708 93.6404 131.863 93.8681 132.039 94.0612C131.898 94.1833 131.762 94.3154 131.632 94.454C131.247 94.5778 130.902 94.8435 130.643 95.195C130.434 95.4789 130.326 95.7875 130.307 96.1126C130.284 96.1935 130.265 96.276 130.246 96.3602L129.893 96.9348C129.816 97.0608 129.738 97.1853 129.661 97.3075C128.762 98.7268 127.764 99.9282 126.524 101.06C125.331 102.15 124.036 103.125 122.915 104.293L122.782 104.432C121.737 105.536 120.635 106.873 121.045 108.479C121.15 108.891 121.725 109.188 122.1 108.909C123.306 108.012 123.914 106.589 124.938 105.5C125.991 104.378 127.158 103.369 128.215 102.25C129.214 101.194 130.003 99.9976 130.597 98.6806C130.834 98.943 131.18 99.1295 131.659 99.2021C132.482 99.3259 133.249 98.8423 133.608 98.1277C133.838 98.23 134.074 98.3224 134.311 98.3951C135.559 98.7779 136.344 97.3867 135.873 96.3585C135.621 95.8073 135.307 95.3287 134.916 94.926C136.136 94.7577 137.378 94.1256 138.179 93.3367C140.191 91.3546 140.467 88.3757 140.014 85.7269C139.774 84.3224 139.36 82.9015 138.821 81.5829C138.727 81.3535 138.627 81.1224 138.517 80.8947C138.578 80.893 138.64 80.8666 138.68 80.8154C139.043 80.317 139.486 79.9094 139.756 79.3516C140.005 78.84 140.281 78.3217 140.477 77.7887C140.88 76.6978 141.078 75.4666 141.21 74.313C141.481 71.9514 141.376 69.6045 141.015 67.2577C140.402 63.2606 138.919 59.4354 136.734 56.0789C136.853 56.0162 136.967 55.9406 137.073 55.8511L137.126 55.8052L137.211 55.728C137.834 55.1624 137.781 54.1024 137.211 53.5296L137.031 53.3488C136.803 53.1219 136.607 52.9422 136.239 52.6951C136.185 52.6587 136.129 52.6243 136.073 52.5923C136.266 52.2355 136.332 51.8183 136.198 51.358C135.731 49.7545 133.429 49.8113 131.971 50.5106C130.357 49.0667 128.568 47.8132 126.628 46.7982C122.009 44.3821 116.786 42.6971 111.686 41.6673ZM135.563 83.9C134.701 83.6177 133.555 84.2102 132.78 84.5667C131.797 85.0189 130.961 85.6873 130.151 86.3936C129.748 86.7468 129.675 87.3244 129.776 87.8179C129.786 87.8674 129.795 87.9186 129.807 87.9697C129.914 88.4962 130.5 88.9104 131.019 88.8956C132.103 88.8659 132.62 87.9268 133.234 87.1314C133.306 87.2601 133.397 87.3789 133.509 87.468L133.585 87.5274C133.84 87.722 134.121 87.8775 134.457 87.8625C134.696 87.8509 134.925 87.7898 135.135 87.6793C135.662 87.4004 135.894 86.7171 135.751 86.1609C135.662 85.8111 135.458 85.5371 135.191 85.3473L135.291 85.2792C135.504 85.1308 135.698 84.9743 135.849 84.7435L135.883 84.6888H135.87C136.034 84.405 135.927 84.0188 135.563 83.9Z" fill="black"/>
<path fill-rule="evenodd" clip-rule="evenodd" d="M91.7186 97.152C92.2618 97.864 93.2454 98.4094 94.347 98.6702C95.3966 98.9187 96.5567 98.9086 97.5578 98.5261L97.6438 98.4918C98.3923 98.1802 99.1108 97.5508 99.3836 96.8941C99.4921 96.6329 99.5288 96.3675 99.4546 96.1199C99.3878 95.8971 99.2312 95.6921 98.9704 95.5159C98.8886 95.4606 98.7788 95.4566 98.6741 95.4751C98.5443 95.498 98.4164 95.5589 98.3392 95.6411C97.9108 96.0978 97.2894 96.5429 96.5539 96.5354C95.9865 96.5295 95.523 96.3049 95.0736 96.051L94.7578 95.8697C94.4531 95.6954 94.1441 95.5316 93.7945 95.4568C93.1686 95.3228 92.4095 95.5676 91.947 95.9715C91.7453 96.1476 91.5987 96.3547 91.5589 96.5776C91.5255 96.7649 91.5724 96.9603 91.7186 97.152ZM94.9725 84.6991C93.7294 85.4566 91.8354 87.223 93.1726 89.101C94.7467 90.7569 97.013 88.8583 98.1298 87.9997C99.1653 87.3342 100.329 89.0457 99.368 89.8228C91.2981 95.8128 88.0231 84.8972 94.3438 83.8085C95.0397 83.6885 95.2981 84.4648 94.9725 84.6991ZM108.996 73.0565L108.639 72.9583L108.275 72.8598L108.029 72.7945C106.337 72.3507 104.472 71.9601 102.794 72.1508C102.183 72.2204 101.686 72.5655 101.6 73.208C101.527 73.7501 101.876 74.4496 102.471 74.5459C104.441 74.8655 106.458 74.7618 108.437 75.0912C109.422 75.2551 110.4 75.4586 111.382 75.642C112.128 75.7816 112.9 75.8306 113.653 75.9435L113.48 75.9676C113.419 75.9758 113.434 76.078 113.494 76.0738C113.742 76.049 113.991 76.0451 114.24 76.0626L114.346 76.0714C114.509 76.0943 114.605 75.8999 114.46 75.8012C113.542 75.1772 112.764 74.5009 111.737 74.0409C110.848 73.6432 109.934 73.3153 108.996 73.0565ZM93.5983 72.0995C92.2979 70.7815 89.5324 71.288 87.9854 71.8909C87.1024 72.2351 86.2628 72.6703 85.5636 73.3214L85.4954 73.3855L85.3904 73.4867C84.9184 73.95 84.392 74.5875 84.4669 75.2555C84.4783 75.3573 84.5336 75.4736 84.6483 75.4941C85.2679 75.6042 85.8765 75.2764 86.4487 75.0792L86.8276 74.9488C87.3967 74.7545 87.9694 74.5688 88.5561 74.4347C89.2856 74.2684 90.0298 74.1722 90.7788 74.1817C91.5359 74.1916 92.3491 74.4059 93.0702 74.1045C93.8745 73.7687 94.2915 72.8022 93.5983 72.0995ZM106.446 82.7291C106.777 83.0688 107.216 83.2604 107.777 83.1464C108.215 83.0574 109.049 82.6156 109.716 81.9352C110.172 81.4698 110.553 80.8882 110.657 80.2144C110.681 80.058 110.764 79.9576 110.872 79.8945C110.958 79.8446 111.071 79.8195 111.195 79.832C111.3 79.8427 111.411 79.8807 111.497 79.9311C111.66 80.027 111.727 80.1631 111.741 80.2648C111.872 81.2457 111.494 82.219 110.905 83.0396C110.11 84.1471 108.942 84.9587 108.256 85.1486C107.082 85.4739 105.844 85.215 104.932 84.3956C104.202 83.7404 103.828 82.8868 103.481 82.009L103.415 81.8389C103.337 81.6397 103.259 81.442 103.177 81.2464C103.013 80.8544 103.065 80.5156 103.225 80.2516C103.401 79.959 103.727 79.7531 104.09 79.6898C104.426 79.6314 104.785 79.6953 105.068 79.9008C105.308 80.0743 105.501 80.3493 105.569 80.756C105.681 81.4172 105.94 82.1759 106.396 82.6764L106.446 82.7291ZM86.3095 78.9019C86.5831 78.759 86.7972 78.7159 87.1007 78.8071C87.2685 78.8576 87.4344 78.9545 87.5643 79.0847C87.693 79.2138 87.7859 79.3742 87.822 79.5523C87.9108 79.9917 88.1506 80.4029 88.4923 80.6711C88.7843 80.9002 89.153 81.0217 89.5619 80.9532C90.0031 80.8793 90.4235 80.5956 90.713 80.2611C90.7937 80.1679 90.8598 80.064 90.9237 79.959L90.9619 79.8958C91.1046 79.6597 91.2432 79.4402 91.44 79.2668C91.5145 79.2009 91.6269 79.1552 91.7358 79.1552C91.78 79.1552 91.8249 79.1624 91.8677 79.1758C92.3068 79.6177 92.3913 79.9529 92.3771 80.2854C92.3623 80.6341 92.2252 80.9872 92.0036 81.3166C91.4838 82.0892 90.4969 82.7228 89.8309 82.8663C88.9189 83.0628 88.0132 82.8269 87.287 82.3162C86.5397 81.7907 85.9861 80.9748 85.8134 80.0554C85.7719 79.834 85.7896 79.595 85.8737 79.3877C85.9559 79.1852 86.0991 79.0118 86.3095 78.9019Z" fill="black"/>
<path fill-rule="evenodd" clip-rule="evenodd" d="M91.486 103.174C93.019 101.804 94.7374 99.0517 96.9398 101.23C97.4845 101.845 97.7051 103.225 98.538 103.496C99.6442 103.855 100.741 102.682 101.117 101.781C102.66 96.7742 96.2838 95.4009 92.6514 96.2098C90.8769 96.9404 89.5699 99.8813 89.4909 101.416C89.4398 102.448 90.3106 103.964 91.486 103.174ZM79.9203 95.4567C79.9353 95.3902 79.9562 95.3301 79.9814 95.2755C80.6594 95.0185 81.1959 95.2806 81.5274 95.7701C81.5165 95.8917 81.4803 96.015 81.4575 96.1357C81.7133 96.676 81.944 97.3446 82.2907 97.8114C82.3592 97.8167 82.4301 97.8095 82.4983 97.7897C88.2454 98.3914 85.4396 92.3628 91.2687 90.8654C95.7746 90.1201 103.919 90.9738 106.044 95.6759C107.721 103.186 116.245 97.953 119.044 94.0471C122.03 90.4924 123.961 86.1487 125.823 81.9337C126.216 81.0417 127.444 81.6795 127.31 82.5354C129.031 85.9964 128.974 90.1536 129.4 93.9451C130.125 101.51 130.831 112.118 123.821 116.737C114.687 127.087 91.8788 130.74 81.3439 121.229C77.697 113.369 78.1466 103.779 79.9203 95.4567Z" fill="black"/>
<path fill-rule="evenodd" clip-rule="evenodd" d="M77.4781 80.3942C79.0475 91.0372 90.0032 92.2142 91.9497 81.6483C91.6373 81.5111 91.4126 81.2411 91.4595 80.717C91.4705 78.4144 90.7576 75.9808 88.6858 74.7002C86.5448 73.379 84.0392 73.2479 81.5617 73.2813C76.8337 73.1684 76.9331 77.1304 77.4781 80.3942ZM93.6648 75.7654C95.1486 75.7027 97.0259 75.7552 98.3551 76.6615C98.7206 75.6749 99.6701 74.6215 100.629 74.0583C97.0636 74.1629 93.393 73.811 89.8005 73.5379C90.6605 74.1256 91.4605 75.0085 91.9805 76.0293C92.463 75.7713 93.154 75.7954 93.6648 75.7654ZM100.205 81.5225C104.32 95.7215 114.59 89.5327 115.71 87.713C117.729 84.7018 118.109 77.3817 116.35 75.4246C113.832 73.6547 110.267 74.1102 107.292 74.0668C101.827 74.1408 97.9451 75.7799 100.205 81.5225ZM72.6199 74.9919C73.7378 74.8453 74.9324 74.8158 75.9718 75.3092C76.2918 73.9455 77.2964 72.8055 78.4307 72.3038C78.568 72.1311 78.5475 72.0384 79.0164 72.0643C81.8963 71.1965 85.119 71.6557 87.8864 72.5455C92.2572 72.9146 96.8428 73.2055 101.25 73.714C105.379 71.855 117.839 71.5826 118.614 76.1644C119.588 76.0184 121.246 75.2498 122.065 76.2923C128.068 75.2719 134.272 76.6901 140.301 77.3217C141.819 77.6019 142.601 80.6217 140.878 80.5805C139.909 80.3169 140.908 78.7001 139.604 78.5784C133.786 77.9414 128.096 77.0376 122.219 76.9319C122.423 77.9493 118.331 78.0155 118.271 77.4214C118.262 77.4258 118.253 77.4288 118.244 77.4327C119.255 81.2104 118.343 86.647 116.515 88.9895C113.955 92.0569 107.528 92.9369 104.678 90.9634C101.002 89.1419 97.1773 79.9986 98.2516 76.9609C96.3019 76.3414 94.3745 76.5274 92.351 76.8429C92.8143 78.1548 93.614 81.3842 92.4635 81.6643C92.6747 88.0759 86.8545 92.0765 81.4891 89.4464C76.8452 87.2608 75.2211 80.3428 75.7894 76.1438C75.2112 77.2637 70.3571 76.0445 72.6199 74.9919Z" fill="#F68333"/>
</g>
<rect x="2.5" y="2.47021" width="229" height="213" stroke="black" stroke-width="4"/>
<defs>
<clipPath id="clip0_88_590">
<rect x="0.5" y="0.470215" width="233" height="217" fill="white"/>
</clipPath>
</defs>
</svg>
