<svg width="240" height="218" viewBox="0 0 234 218" fill="none" xmlns="http://www.w3.org/2000/svg">
<g clip-path="url(#clip0_88_593)">
<path fill-rule="evenodd" clip-rule="evenodd" d="M107.647 216.281C102.965 216.296 98.4157 216.456 93.7207 216.472C74.6359 216.535 55.3754 216.443 36.2213 215.669C30.8077 215.45 29.4563 215.455 24.066 215.116C20.8834 215.105 11.3232 214.841 11.8018 210.505C12.0131 202.429 14.0121 194.386 14.6417 186.332C15.85 171.19 16.8791 155.574 22.9468 141.412C24.3513 138.03 27.3677 135.818 30.3536 133.829C33.3481 131.684 34.083 129.301 36.8467 126.878C37.4311 126.365 40.7496 126.156 42.535 124.856C45.1338 122.964 46.4226 119.866 47.3922 119.339C48.1057 118.951 48.0926 116.274 49.5226 115.326C51.4416 114.055 57.5567 113.109 59.7815 112.933C61.9169 112.763 65.631 113.119 67.6345 113.902C70.9756 115.206 72.3082 117.694 73.7796 120.9C93.2192 126.91 110.987 137.087 116.505 157.614C121.264 174.831 121.438 193.288 119.6 210.945C119.232 212.236 119.49 214.26 118.375 215.116C122.251 215.339 108.173 216.138 107.647 216.281Z" fill="white"/>
<path fill-rule="evenodd" clip-rule="evenodd" d="M19.2284 199.282C19.5963 199.098 19.9798 198.888 20.3998 198.873C21.1213 198.848 21.1223 197.725 20.3998 197.75C19.7697 197.772 19.2163 198.035 18.6618 198.312C18.0148 198.635 18.5839 199.603 19.2284 199.282ZM20.3998 167.676C19.9075 167.676 19.4112 167.739 19.0331 168.083C18.8083 168.288 18.8261 168.67 19.0331 168.877C19.2546 169.098 19.6029 169.081 19.827 168.877C19.7539 168.943 19.8263 168.878 19.8528 168.863C19.8591 168.859 19.8626 168.857 19.8643 168.855C19.8699 168.854 19.8755 168.853 19.8846 168.851C19.9433 168.836 20.0012 168.821 20.0606 168.811C20.0616 168.814 20.1859 168.802 20.2151 168.801C20.2768 168.799 20.3382 168.799 20.3998 168.799C20.7043 168.799 20.9611 168.542 20.9611 168.237C20.9611 167.934 20.7032 167.676 20.3998 167.676ZM25.6776 180.271C25.8384 180.976 26.9203 180.676 26.76 179.972C26.5268 178.95 26.5693 177.902 26.76 176.875C26.8913 176.168 25.8094 175.867 25.6776 176.577C25.4489 177.808 25.3977 179.044 25.6776 180.271ZM27.0953 139.917C27.9313 139.719 28.7581 139.695 29.6132 139.695C30.3366 139.694 30.3355 138.572 29.6132 138.572C28.6595 138.572 27.7285 138.613 26.7969 138.834C26.0933 139.002 26.3931 140.084 27.0953 139.917ZM29.8964 167.267C30.3812 167.024 30.8663 166.782 31.351 166.539C31.9981 166.216 31.4289 165.248 30.7846 165.57L29.3299 166.297C28.683 166.621 29.2521 167.589 29.8964 167.267ZM30.0984 189.379C30.7133 190.266 31.5781 190.817 32.6158 191.092C33.316 191.278 33.612 190.194 32.9142 190.009C32.1721 189.812 31.5128 189.454 31.0676 188.812C30.6583 188.222 29.6857 188.784 30.0984 189.379ZM33.977 149.846C34.1434 149.535 34.3938 149.403 34.7047 149.396C35.4271 149.38 35.4272 148.257 34.7047 148.273C33.9962 148.289 33.3464 148.645 33.0078 149.279C32.667 149.917 33.6364 150.483 33.977 149.846ZM41.0966 157.478C41.2978 157.697 41.688 157.692 41.8903 157.478C42.0142 157.347 42.1183 157.201 42.2003 157.041C42.2314 156.98 42.2607 156.918 42.295 156.859C42.3103 156.833 42.3272 156.807 42.3446 156.781C42.3505 156.776 42.3627 156.764 42.3754 156.75C42.591 156.522 42.5855 156.185 42.3754 155.956C42.174 155.737 41.7838 155.742 41.5815 155.956C41.4577 156.087 41.3535 156.233 41.2717 156.393C41.2405 156.454 41.2112 156.516 41.1768 156.575C41.1615 156.601 41.1446 156.627 41.1272 156.653C41.1213 156.658 41.1092 156.67 41.0966 156.684C40.8808 156.912 40.8862 157.249 41.0966 157.478ZM41.6951 174.058C42.4262 174.393 43.2279 174.393 43.9589 174.058C44.2357 173.931 44.3014 173.531 44.1601 173.29C43.9965 173.01 43.6678 172.962 43.3923 173.088C43.0608 173.24 42.5927 173.24 42.2616 173.088C41.9849 172.962 41.6594 173.007 41.4938 173.29C41.3516 173.533 41.4194 173.932 41.6951 174.058ZM43.6891 185.794C43.8147 186.091 44.0859 186.249 44.403 186.261C44.7171 186.273 44.951 185.994 44.9642 185.7C44.9726 185.51 44.8698 185.347 44.722 185.246C44.7219 185.236 44.7216 185.225 44.7216 185.215C44.7215 184.9 44.4646 184.667 44.1604 184.653C43.8575 184.64 43.599 184.921 43.5991 185.215C43.5993 185.413 43.6115 185.61 43.6891 185.794ZM46.5851 204.451C47.4808 204.466 48.3561 204.679 49.252 204.694C49.9758 204.706 49.9736 203.583 49.252 203.571C48.3562 203.557 47.481 203.343 46.5851 203.329C45.8612 203.317 45.8635 204.44 46.5851 204.451ZM50.31 132.497C50.8344 132.996 51.482 133.243 52.1207 133.555C52.7678 133.871 53.3362 132.902 52.6873 132.585C52.1463 132.321 51.5473 132.125 51.1036 131.703C50.5803 131.204 49.7857 131.997 50.31 132.497ZM51.7175 145.439C52.0854 145.255 52.4688 145.045 52.8888 145.03C53.6104 145.005 53.6114 143.882 52.8888 143.908C52.2588 143.93 51.7054 144.192 51.1509 144.469C50.5037 144.792 51.0729 145.761 51.7175 145.439ZM58.4651 197.382C58.6313 197.071 58.8817 196.94 59.1926 196.933C59.9151 196.916 59.9154 195.794 59.1926 195.81C58.4841 195.826 57.8343 196.182 57.4957 196.816C57.1551 197.453 58.1243 198.02 58.4651 197.382ZM60.8019 173C61.0252 172.795 61.0097 172.414 60.8019 172.206C60.5594 171.964 60.317 171.721 60.0744 171.478C59.8527 171.257 59.5048 171.273 59.2808 171.478C59.0574 171.684 59.073 172.064 59.2808 172.272C59.5234 172.515 59.7657 172.757 60.0081 173C60.2301 173.222 60.5778 173.206 60.8019 173ZM63.557 211C64.3667 210.981 65.1258 210.749 65.8883 210.495C66.5714 210.267 66.2768 209.183 65.5898 209.412C64.9271 209.633 64.2615 209.861 63.557 209.877C62.8345 209.894 62.8343 211.017 63.557 211ZM67.1938 186.989C67.9254 186.969 68.5323 186.596 69.0454 186.097C69.5644 185.592 68.7698 184.799 68.2516 185.303C67.958 185.588 67.6191 185.854 67.1938 185.866C66.4717 185.886 66.4711 187.009 67.1938 186.989ZM64.9354 156.111C64.9266 156.41 64.8003 156.73 64.6148 156.926C64.1188 157.452 64.9115 158.247 65.4085 157.72C65.8185 157.286 66.0406 156.705 66.0579 156.111C66.0787 155.387 64.956 155.39 64.9354 156.111ZM73.4973 131.656C73.7321 131.195 74.04 130.656 74.5082 130.402C75.1441 130.057 74.5768 129.087 73.9416 129.432C73.3052 129.778 72.8497 130.459 72.528 131.089C72.1997 131.732 73.1687 132.299 73.4973 131.656ZM74.9523 143.333C75.2127 143.325 75.4712 143.281 75.7223 143.213C75.8296 143.183 75.9357 143.15 76.0432 143.121C76.0892 143.108 76.2847 143.084 76.1646 143.09C76.4685 143.074 76.7258 142.846 76.7258 142.529C76.7258 142.237 76.4676 141.951 76.1646 141.967C75.748 141.99 75.3691 142.198 74.9523 142.21C74.2304 142.23 74.2298 143.353 74.9523 143.333ZM78.5891 161.28H79.8014C80.5248 161.28 80.5236 160.157 79.8014 160.157H78.5891C77.8657 160.157 77.867 161.28 78.5891 161.28ZM80.0032 210.923C80.3708 211.107 80.8041 211.281 81.1018 211.563C81.6268 212.06 82.4216 211.267 81.8955 210.769C81.5163 210.41 81.0314 210.185 80.5696 209.954C80.2975 209.818 79.963 209.879 79.8017 210.155C79.6559 210.405 79.7321 210.788 80.0032 210.923ZM82.7119 196.736C82.7589 196.723 82.8085 196.714 82.8561 196.707C83.0469 196.681 83.2466 196.69 83.4382 196.69C84.1617 196.69 84.1606 195.567 83.4382 195.567C82.869 195.568 82.2766 195.576 81.829 195.975C81.6019 196.177 81.6239 196.563 81.829 196.768C82.0521 196.992 82.3966 196.97 82.6228 196.768C82.5989 196.79 82.6807 196.745 82.7119 196.736ZM83.438 177.655C83.2749 177.319 83.2724 177.1 83.2721 176.726C83.2716 176.002 82.1491 176.004 82.1496 176.726C82.1499 177.269 82.2306 177.731 82.4687 178.222C82.6016 178.496 82.9905 178.568 83.2365 178.424C83.5123 178.262 83.57 177.928 83.438 177.655ZM86.6835 151.316C87.3345 151.538 87.9157 151.851 88.489 152.23C89.0941 152.629 89.6558 151.657 89.0556 151.26C88.4013 150.828 87.7246 150.486 86.9819 150.233C86.2952 150 86.0033 151.085 86.6835 151.316ZM90.4695 132.419C90.9531 132.432 91.4523 132.618 91.8834 132.827C92.5312 133.142 93.0996 132.173 92.4498 131.858C91.8341 131.558 91.1605 131.315 90.4695 131.296C89.7456 131.275 89.7487 132.398 90.4695 132.419ZM92.1667 182.866C92.3569 182.874 92.5195 182.771 92.6203 182.624C92.6308 182.624 92.6412 182.623 92.6516 182.623C92.9661 182.623 93.1991 182.366 93.2128 182.062C93.2264 181.759 92.9451 181.5 92.6516 181.5C92.4534 181.501 92.2569 181.513 92.0728 181.59C91.7755 181.716 91.6175 181.987 91.6054 182.304C91.5935 182.619 91.8721 182.853 92.1667 182.866ZM94.927 144.04C95.6163 144.266 95.909 143.181 95.2254 142.958C94.423 142.695 93.603 142.492 92.8007 142.23C92.1114 142.005 91.8187 143.089 92.5024 143.313C93.3046 143.575 94.1247 143.778 94.927 144.04ZM97.4443 165.234C97.6581 165.923 98.7412 165.627 98.5268 164.935C98.3197 164.267 98.3048 163.595 98.3044 162.902C98.304 162.178 97.1815 162.179 97.1819 162.902C97.1823 163.691 97.2088 164.474 97.4443 165.234ZM104.949 190.618C104.99 190.898 105.212 191.099 105.502 191.112C105.797 191.125 106.074 190.844 106.063 190.551C106.042 189.985 105.582 189.525 105.017 189.504C104.703 189.493 104.469 189.77 104.456 190.066C104.443 190.352 104.682 190.576 104.949 190.618ZM108.747 158.35C109.34 158.548 109.974 158.736 110.439 159.176C110.964 159.672 111.759 158.879 111.233 158.382C110.619 157.803 109.831 157.529 109.045 157.267C108.357 157.037 108.065 158.122 108.747 158.35ZM111.321 180.162C111.484 180.441 111.814 180.492 112.089 180.364C112.457 180.193 112.863 180.198 113.26 180.198C113.984 180.197 113.982 179.075 113.26 179.075C112.648 179.076 112.083 179.133 111.522 179.394C111.246 179.523 111.179 179.92 111.321 180.162ZM112.775 206.634C113.09 206.646 113.323 206.368 113.337 206.073C113.35 205.786 113.11 205.562 112.843 205.52C112.802 205.241 112.581 205.039 112.29 205.026C111.995 205.013 111.718 205.294 111.729 205.588C111.75 206.153 112.21 206.613 112.775 206.634ZM10.5137 210.88C10.7044 210.193 11.1408 209.639 11.4705 209.021C11.5811 208.813 11.6195 208.684 11.6794 208.531C11.7608 208.694 11.9188 208.817 12.1563 208.817C12.6121 208.817 13.1451 208.788 13.5704 208.983C13.8469 209.11 14.1727 209.065 14.3382 208.782C14.4803 208.538 14.4124 208.14 14.1368 208.013C13.5101 207.726 12.8363 207.695 12.1563 207.694C11.9884 207.694 11.8613 207.756 11.7715 207.849C11.5116 204.289 11.5181 200.728 11.7639 197.166C12.0261 193.359 12.6296 189.628 13.261 185.871C13.5667 184.049 13.9638 182.209 13.8866 180.354C13.8095 178.511 13.0195 176.793 13.5794 174.944C13.8039 174.203 14.1883 173.524 14.4381 172.791C14.7061 172.003 14.6822 171.224 14.5601 170.407C14.309 168.743 13.8924 167.1 14.5589 165.476C14.8534 164.756 15.3306 164.113 15.5605 163.369C15.8468 162.444 15.8075 161.421 15.8552 160.462C15.952 158.528 15.9773 156.582 16.1374 154.652C16.2088 153.787 16.3645 152.967 16.7195 152.174C17.0606 151.411 17.567 150.716 17.7929 149.906C18.0174 149.109 18.037 148.268 18.1577 147.453C18.284 146.591 18.4818 145.742 18.7484 144.914C19.7783 141.708 21.6654 138.828 23.895 136.331C26.2648 133.677 29.0977 131.678 32.1045 129.816C33.6857 128.836 35.2667 127.857 36.8467 126.878C36.8804 127.061 36.9976 127.23 37.2225 127.305C37.8158 127.504 38.4493 127.692 38.9145 128.131C39.4398 128.627 40.2347 127.834 39.7082 127.337C39.159 126.818 38.4689 126.545 37.7665 126.306C38.4864 125.852 39.214 125.382 40.0264 125.119C40.7379 124.889 41.7873 125.09 42.3641 124.568C42.8172 124.157 42.9605 123.394 43.1343 122.836C43.3518 122.142 43.5398 121.411 43.8162 120.738C44.0042 120.277 44.2778 119.835 44.623 119.479C44.7745 118.895 45.0525 118.361 45.5436 118.037C46.8287 117.187 48.4072 118.031 48.9726 119.244C49.4398 119.243 49.9323 119.345 50.3869 119.373C51.3214 119.432 52.2573 119.459 53.1931 119.456C55.0242 119.45 56.8566 119.331 58.6722 119.088C61.919 118.653 65.069 117.776 68.261 117.092C68.2793 117.05 68.3003 117.008 68.3256 116.966C69.0131 115.812 70.7263 116.008 71.8054 116.444C72.2683 116.631 72.7397 116.867 73.0049 117.304C73.2855 117.494 73.5283 117.724 73.6896 117.967C74.0236 118.468 74.2817 119.479 74.9594 119.563C75.4056 119.617 75.8588 119.532 76.312 119.596C76.8789 119.675 77.3868 119.874 77.9102 120.102C81.895 121.832 86.0145 123.757 90.339 124.427C91.3533 124.585 92.386 124.747 93.2671 125.316C93.9827 125.778 94.5357 126.412 95.1262 127.014C95.7015 127.601 96.1757 127.861 96.9966 127.966C97.9928 128.094 98.8557 128.369 99.5839 129.093C100.189 129.695 100.583 130.464 101.057 131.163C101.54 131.876 102.248 132.278 102.984 132.692C104.722 133.671 106.341 134.855 107.751 136.274C110.722 139.266 112.52 143.112 114.333 146.859C116.293 150.913 118.126 155.015 119.397 159.344C120.643 163.594 121.384 167.966 121.726 172.379C122.087 177.009 122.137 181.658 122.438 186.291C122.588 188.605 122.701 190.923 122.816 193.238C122.929 195.526 123.093 197.818 123.066 200.109C123.016 204.537 122.13 208.979 120.583 213.125C120.197 214.157 119.769 215.175 119.313 216.177C118.913 217.057 117.545 216.959 117.116 216.177C117.017 215.997 116.94 215.812 116.876 215.624C115.753 215.634 114.62 215.547 113.504 215.65C111.534 215.834 109.56 215.937 107.584 216.059C103.675 216.302 99.7593 216.463 95.8488 216.686C95.4694 216.708 95.09 216.73 94.7108 216.752C97.4975 208.124 97.136 198.796 97.577 189.823C97.6125 189.1 96.4898 189.104 96.4545 189.823C96.0117 198.835 96.3887 208.186 93.5035 216.829C92.3841 216.904 91.2663 216.997 90.1522 217.133C89.2516 217.241 88.3464 217.368 87.4372 217.323C86.4059 217.274 85.3985 217.039 84.3925 216.834C82.5643 216.462 80.8034 216.63 78.9681 216.859C77.0052 217.105 75.0352 217.241 73.0596 217.326C65.149 217.673 57.185 217.989 49.2771 217.46C47.3632 217.332 45.4536 217.152 43.5524 216.908C41.5937 216.657 39.656 216.234 37.6988 215.994C35.7696 215.759 33.9959 216.406 32.0891 216.525C30.1445 216.647 28.1478 216.241 26.2213 216.008C25.5929 215.932 24.9637 215.858 24.3344 215.784C25.1446 210.23 25.6052 204.633 26.0527 199.039C26.1103 198.318 24.9874 198.324 24.9302 199.039C24.4864 204.59 24.036 210.145 23.2271 215.655C19.8912 215.267 16.5521 214.874 13.251 214.269C12.311 214.098 11.3765 213.819 10.8139 212.979C10.3973 212.358 10.313 211.596 10.5137 210.88Z" fill="black"/>
<path fill-rule="evenodd" clip-rule="evenodd" d="M35.722 93.0843C36.024 90.4295 35.6331 84.8803 35.6069 84.5432C35.4413 82.4119 36.4396 73.9957 38.3268 74.7712C41.4925 72.2643 45.7089 71.7108 49.6516 71.4463C57.8412 70.897 66.5534 72.1581 72.8772 77.6712C76.0046 80.5344 79.0492 84.6986 78.8045 89.0345C81.6459 93.1444 85.6516 98.7821 82.1113 103.587C80.9079 105.122 78.9953 105.694 77.4836 106.856C74.4428 109.31 72.5351 112.831 69.4655 115.269C61.3331 122.58 47.5242 124.107 39.5341 115.792C33.3555 109.77 34.3545 100.761 35.4413 93.0843C36.172 87.9231 35.1327 98.2636 35.722 93.0843Z" fill="white"/>
<path fill-rule="evenodd" clip-rule="evenodd" d="M60.5918 60.1879C58.4015 59.7458 56.1525 59.4707 53.9158 59.5535L53.7434 59.5602C52.0605 59.6275 49.9292 59.7763 48.4611 60.7552C48.3767 60.6705 48.2408 60.6269 48.1177 60.6858C46.373 61.5188 44.4542 62.121 42.6172 62.7195C40.7887 63.315 38.8917 63.7082 36.9752 63.8666C36.2542 63.9263 35.6371 64.7051 36.0936 65.4037C36.2022 65.5701 36.308 65.7383 36.4134 65.9069C36.2372 65.8885 36.0609 65.8695 35.8847 65.8517C35.3048 65.7933 34.7255 66.4124 34.7598 66.9772C34.7813 67.3324 34.8196 67.6835 34.8763 68.0303C34.6555 68.0257 34.4359 68.0588 34.2237 68.1485C33.1495 68.6022 33.2243 69.8822 33.3047 70.8559C33.4161 72.2073 33.9214 73.6386 34.8595 74.65C34.159 75.3778 33.6632 76.2469 33.3674 77.2791C33.1529 78.0328 33.0335 78.8356 33.0924 79.6202L33.1112 79.8551C33.1841 80.7065 33.329 81.6492 33.9413 82.2617C34.2556 82.5775 34.6428 82.6926 35.012 82.6561C34.7887 84.6183 34.6456 86.5917 34.5109 88.5581L34.4478 89.4979C34.1473 94.0426 33.9215 98.6169 33.9806 103.169C34.0354 107.423 34.8757 111.553 37.4841 115.007C39.8597 118.152 43.2705 120.471 47.129 121.352C49.2084 121.828 51.3313 121.862 53.436 121.559C54.4562 121.411 55.4831 121.185 56.4514 120.829C57.5232 120.433 58.2935 119.85 59.0147 118.977C59.3558 118.563 59.1916 117.682 58.5124 117.765C57.4851 117.889 56.5474 118.04 55.5625 118.343L55.4215 118.388C54.4406 118.702 53.4247 118.937 52.3992 119.036C50.2986 119.24 48.1661 119.035 46.1539 118.398C42.8776 117.359 40.056 115.045 38.2474 112.136C36.1007 108.689 35.8579 104.776 35.8889 100.813C35.9222 96.4631 36.0636 92.1112 36.2944 87.7663L36.3337 87.0422C36.4558 84.8063 36.5736 82.5691 36.6773 80.3318C36.7096 79.63 36.7587 78.9226 36.8472 78.2222C37.6567 77.7478 38.3821 77.0938 38.8549 76.2867C39.8048 76.6797 40.8038 76.9633 41.723 77.1892C43.8521 77.713 46.0625 77.8402 48.2296 77.5122C48.8142 77.7537 49.4103 77.9661 50.0156 78.1488C50.1792 78.2214 50.3428 78.2927 50.5063 78.3626C51.9657 78.9872 53.4459 79.5163 54.9864 79.9037L55.3648 79.9981C56.1755 80.198 57.0561 80.3949 57.9189 80.4567C58.0606 80.5115 58.2135 80.5578 58.3806 80.5985C59.1662 80.7894 59.9816 80.8497 60.7868 80.7823C61.5713 80.7164 62.1381 79.9234 61.706 79.1809C61.3903 78.6391 61.0716 78.0987 60.7503 77.5598C61.8686 78.0258 63.0234 78.4131 64.1879 78.7416C65.3637 79.0728 66.5564 79.3521 67.7505 79.609C68.389 79.7451 69.03 79.8658 69.667 80.002C70.1231 80.0988 70.8232 80.1493 71.1952 80.4497C71.6061 80.7795 71.7226 81.5487 71.8785 82.0231C72.0833 82.6393 72.2755 83.2582 72.4509 83.8842C72.8002 85.1334 73.0864 86.4008 73.3081 87.6808C73.5298 88.9623 73.6786 90.2564 73.7614 91.5547C73.8441 92.8516 73.8077 94.1569 73.9409 95.4481C74.0126 96.1331 74.7477 96.4854 75.2907 96.0068C75.3544 95.9506 75.4186 95.8938 75.4822 95.8365L75.5769 95.7499C76.0415 95.3288 76.4919 94.8825 76.8635 94.38C76.9309 94.2874 76.9954 94.1905 77.0558 94.0923C77.0656 94.0923 77.074 94.0895 77.0838 94.0825L77.1869 94.0049C78.3217 93.16 80.2175 92.0584 81.324 93.4621C81.6766 93.9093 81.8571 94.4786 82.007 95.028L82.2699 96.0111C82.4399 96.6529 82.5999 97.2982 82.6936 97.9549C82.9054 99.4258 82.7988 101.121 81.787 102.3C81.3829 102.772 80.8259 103.109 80.2045 103.197C79.8578 103.245 79.5154 103.186 79.1717 103.142C78.8223 103.099 78.4857 103.169 78.1362 103.135C77.5805 103.081 77.3378 103.746 77.5455 104.164C77.6577 104.389 77.7897 104.583 77.9397 104.747C77.8192 104.851 77.704 104.963 77.5932 105.081C77.2648 105.186 76.9703 105.412 76.7499 105.711C76.5717 105.952 76.4792 106.215 76.4637 106.491C76.4442 106.56 76.4273 106.63 76.4118 106.702L76.1107 107.191C76.0445 107.298 75.9786 107.404 75.9124 107.508C75.1463 108.715 74.2959 109.736 73.2393 110.699C72.2221 111.626 71.118 112.455 70.1623 113.449L70.0498 113.567C69.1588 114.506 68.2197 115.643 68.5684 117.008C68.6582 117.359 69.148 117.612 69.4678 117.375C70.4963 116.611 71.0142 115.401 71.8867 114.475C72.7849 113.52 73.7797 112.663 74.6803 111.711C75.5321 110.813 76.2042 109.795 76.7106 108.675C76.9128 108.898 77.2073 109.057 77.6156 109.119C78.3172 109.224 78.9711 108.813 79.2769 108.205C79.4735 108.292 79.674 108.371 79.8761 108.432C80.9397 108.758 81.6088 107.575 81.2076 106.7C80.993 106.232 80.725 105.825 80.3923 105.482C81.4322 105.339 82.4901 104.801 83.1734 104.131C84.8879 102.445 85.1236 99.9115 84.7378 97.6587C84.5329 96.4643 84.1795 95.2559 83.7205 94.1344C83.6407 93.9393 83.5549 93.7428 83.4611 93.5491C83.513 93.5477 83.5663 93.5253 83.6 93.4818C83.9101 93.0579 84.2874 92.7112 84.5176 92.2368C84.7295 91.8017 84.9651 91.361 85.1322 90.9076C85.4758 89.9799 85.6442 88.9328 85.7564 87.9517C85.9879 85.9432 85.8983 83.9474 85.5908 81.9515C85.0676 78.5521 83.8037 75.2989 81.9417 72.4444C82.043 72.3911 82.1402 72.3267 82.2307 72.2507L82.2755 72.2116L82.3481 72.146C82.8795 71.665 82.8336 70.7635 82.3481 70.2763L82.1948 70.1225C82.0007 69.9296 81.8332 69.7767 81.5196 69.5666C81.4733 69.5356 81.426 69.5064 81.3782 69.4792C81.5423 69.1757 81.5993 68.8209 81.4849 68.4295C81.0865 67.0658 79.1249 67.1141 77.8816 67.7087C76.5062 66.4808 74.981 65.4148 73.3279 64.5516C69.3906 62.4968 64.9387 61.0637 60.5918 60.1879ZM80.9437 96.105C80.2085 95.865 79.2319 96.3689 78.5711 96.672C77.7334 97.0566 77.0207 97.6251 76.3303 98.2258C75.9866 98.5261 75.925 99.0174 76.0104 99.4371C76.019 99.4792 76.0273 99.5227 76.0372 99.5662C76.1284 100.014 76.6279 100.366 77.0699 100.354C77.9945 100.328 78.435 99.5297 78.9585 98.8532C79.0201 98.9627 79.0972 99.0637 79.1928 99.1395L79.2573 99.19C79.4745 99.3555 79.714 99.4877 80.001 99.475C80.2044 99.4651 80.3993 99.4132 80.5791 99.3192C81.0281 99.082 81.2257 98.5009 81.1038 98.0279C81.0281 97.7303 80.8541 97.4973 80.6268 97.3359L80.7115 97.278C80.8928 97.1517 81.0581 97.0187 81.187 96.8224L81.2161 96.7759H81.2048C81.3452 96.5345 81.2538 96.2061 80.9437 96.105Z" fill="black"/>
<path fill-rule="evenodd" clip-rule="evenodd" d="M46.3136 110.23C47.3472 110.529 48.4567 110.556 49.5102 110.247C50.4659 109.966 51.4471 109.349 52.1504 108.532C52.7752 107.806 53.1798 106.924 53.1639 105.983C53.1621 105.875 53.1237 105.785 53.0646 105.716C53.0009 105.641 52.912 105.589 52.8168 105.567C52.7189 105.544 52.6154 105.552 52.5272 105.592C52.4474 105.628 52.379 105.69 52.3363 105.78C52.2282 105.922 52.1205 106.062 52.0124 106.198C51.1433 107.272 50.3017 108.074 48.9949 108.362C48.2858 108.518 47.5777 108.448 46.9279 108.21C46.2324 107.955 45.6036 107.507 45.1109 106.933C44.8883 106.674 44.6254 106.568 44.3684 106.566C44.0771 106.564 43.7891 106.699 43.5722 106.916C43.359 107.129 43.2163 107.418 43.2033 107.72C43.192 107.985 43.2785 108.263 43.5088 108.51C44.2672 109.325 45.2501 109.921 46.3136 110.23ZM46.3455 96.7847C45.286 97.4289 43.6716 98.9311 44.8114 100.528C46.153 101.937 48.0847 100.322 49.0367 99.5916C49.9193 99.0257 50.911 100.481 50.0921 101.142C43.2136 106.236 40.4221 96.9531 45.8096 96.0272C46.4028 95.9252 46.6231 96.5854 46.3455 96.7847ZM56.2569 93.9499C56.5975 93.732 56.998 93.6572 57.442 93.8593C57.7889 94.0171 58.3974 94.5432 58.8209 95.2349C59.1106 95.708 59.3161 96.2631 59.2733 96.8413C59.2634 96.9756 59.313 97.0746 59.3912 97.1478C59.453 97.2056 59.5422 97.2481 59.6471 97.2614C59.7361 97.2727 59.8357 97.2625 59.9167 97.2372C60.0708 97.1891 60.1523 97.0891 60.1831 97.0075C60.4796 96.2198 60.3518 95.3408 60.0195 94.5478C59.5711 93.4775 58.7566 92.5811 58.223 92.2921C57.31 91.7973 56.2328 91.7745 55.3184 92.2786C54.54 92.7076 54.0533 93.4001 53.5692 94.1061C53.4663 94.2562 53.3642 94.4052 53.2587 94.5515C53.0471 94.8448 53.0261 95.1357 53.108 95.3851C53.1987 95.6614 53.4301 95.8946 53.7195 96.0166C53.987 96.1294 54.2974 96.1453 54.572 96.0294C54.8041 95.9315 55.017 95.7406 55.1518 95.4168C55.3787 94.8715 55.7568 94.2698 56.2569 93.9499ZM38.9615 95.1632C39.1947 95.2847 39.3772 95.3214 39.6359 95.2438C39.7789 95.2008 39.9203 95.1185 40.031 95.0077C40.1408 94.898 40.2199 94.7615 40.2507 94.6101C40.3264 94.2364 40.5307 93.8866 40.822 93.6586C41.0709 93.4637 41.3852 93.3604 41.7337 93.4187C42.1098 93.4815 42.4681 93.7228 42.7149 94.0072C42.7974 94.1024 42.862 94.2105 42.927 94.3179C43.0486 94.5187 43.1668 94.7054 43.3345 94.8528C43.3981 94.9089 43.4939 94.9478 43.5866 94.9478C43.6243 94.9478 43.6626 94.9417 43.6991 94.9303C44.0734 94.5545 44.1454 94.2694 44.1333 93.9866C44.1207 93.69 44.0038 93.3898 43.8149 93.1096C43.3719 92.4525 42.5307 91.9137 41.963 91.7917C41.1856 91.6245 40.4136 91.8252 39.7946 92.2595C39.1577 92.7064 38.6858 93.4002 38.5387 94.1822C38.5033 94.3705 38.5183 94.5738 38.59 94.75C38.6601 94.9222 38.7821 95.0697 38.9615 95.1632ZM54.5424 86.9437C55.0089 87.3983 55.5611 87.4688 56.1197 87.5314C56.4301 87.5666 56.6779 87.5949 56.9217 87.6499C57.5919 87.8012 58.2543 88.0292 58.8587 88.3574C59.4905 88.7005 60.1789 89.1144 60.6743 89.6445C60.792 89.7706 60.9031 89.903 61.0142 90.0357C61.1156 90.1567 61.2133 90.2731 61.3162 90.3854C61.4344 90.5144 61.5467 90.6496 61.6583 90.7844C61.7274 90.8982 61.741 90.9261 61.7549 90.9553C61.7758 90.999 61.8001 91.048 61.8279 91.1006C61.866 91.1725 61.9106 91.2513 61.9573 91.3227C62.035 91.4533 62.0767 91.4893 62.1127 91.5053C62.1725 91.532 62.2292 91.5451 62.2842 91.538C62.3357 91.5313 62.3843 91.5065 62.4323 91.466C62.6718 91.2636 62.7425 90.9313 62.7352 90.5787C62.7242 90.0435 62.5269 89.451 62.345 89.0868C61.9221 88.2405 61.3355 87.3607 60.6302 86.7291C59.8254 86.0081 58.9449 85.4622 57.9335 85.0861C57.305 84.8523 56.5773 84.6377 55.8926 84.6648C55.3997 84.6843 54.9292 84.8309 54.5407 85.1969C54.3021 85.4215 54.1875 85.7411 54.1875 86.0604C54.1875 86.3861 54.3065 86.7138 54.5424 86.9437ZM38.0127 91.1073C38.0423 91.156 38.0834 91.1895 38.1291 91.2096C38.177 91.2307 38.2305 91.2368 38.2818 91.2281C38.3329 91.2195 38.3814 91.1964 38.4199 91.161C38.4569 91.127 38.485 91.082 38.4976 91.0269C38.8073 89.6661 39.4087 88.6536 40.6924 88.0007C41.3239 87.6795 42.05 87.4754 42.7374 87.3127C42.9371 87.2654 43.1482 87.2348 43.3607 87.2038C44.0269 87.1065 44.6979 86.995 45.1322 86.4564C45.3939 86.1319 45.5037 85.717 45.4416 85.3375C45.3831 84.9801 45.1744 84.6525 44.795 84.4562C43.8503 83.9676 42.6764 84.447 41.7225 84.8554C41.6517 84.8857 41.5823 84.9154 41.5143 84.9441C40.5814 85.338 39.7306 85.858 39.0312 86.6015C38.4763 87.1914 37.9621 88.0635 37.7551 88.9606C37.5828 89.707 37.6233 90.4689 38.0127 91.1073Z" fill="black"/>
<path fill-rule="evenodd" clip-rule="evenodd" d="M43.3737 112.497C44.6804 111.332 46.1451 108.991 48.0223 110.843C48.4866 111.367 48.6746 112.54 49.3846 112.77C50.3275 113.076 51.262 112.078 51.5833 111.312C52.898 107.054 47.4632 105.886 44.3671 106.574C42.8546 107.195 41.7405 109.696 41.6732 111.002C41.6297 111.879 42.3719 113.169 43.3737 112.497ZM33.5155 105.933C33.5283 105.877 33.5461 105.826 33.5676 105.779C34.1455 105.561 34.6028 105.784 34.8854 106.2C34.8761 106.303 34.8453 106.408 34.8258 106.511C35.0438 106.97 35.2405 107.539 35.536 107.936C35.5944 107.941 35.6549 107.934 35.7129 107.918C40.6116 108.429 38.22 103.302 43.1885 102.029C47.0292 101.395 53.9709 102.121 55.7828 106.12C57.2117 112.507 64.4774 108.057 66.8629 104.735C69.4083 101.712 71.0541 98.0174 72.641 94.4327C72.9764 93.6741 74.0229 94.2166 73.9091 94.9445C75.3759 97.8879 75.3271 101.423 75.6904 104.648C76.3083 111.081 76.9104 120.103 70.935 124.031C63.1496 132.834 43.7085 135.94 34.7289 127.852C31.6205 121.167 32.0037 113.011 33.5155 105.933Z" fill="black"/>
<path fill-rule="evenodd" clip-rule="evenodd" d="M38.6292 86.3468C35.3358 86.3468 33.4564 87.0553 32.7677 87.1105L32.747 87.1119C32.4606 87.1303 32.2036 87.1542 31.934 87.2585C30.9426 87.6404 30.7811 88.6805 31.3597 89.336C31.4002 90.6924 31.2219 92.2772 31.5279 93.6379C31.9053 99.3744 34.6022 100.343 36.1352 100.696C36.9049 100.873 37.817 100.944 38.6345 100.757C40.0292 100.705 41.408 100.268 42.5877 99.5073C44.2306 98.4473 45.4508 96.8181 45.8468 94.8846C46.0345 93.963 46.1222 93.0037 46.0201 92.0669L46.0049 91.9378C46.5389 91.6823 47.1578 91.634 47.7957 91.6114C48.1004 91.6006 48.4008 91.5909 48.6926 91.6038C48.9778 91.6357 49.2596 91.6781 49.5422 91.7359C49.8509 91.829 50.1424 91.9828 50.4116 92.2263L50.4301 92.5818C50.4807 93.4697 50.5972 94.3602 50.777 95.2313C51.0423 96.5167 51.4692 97.7442 52.3777 98.6559C52.6853 99.1154 53.0658 99.5255 53.5278 99.8807C55.2059 101.173 57.4859 101.648 59.5785 101.469C63.8266 101.106 66.2821 97.7329 66.848 96.291L66.8818 96.2037C67.2906 95.1317 67.6164 93.7409 68.9081 93.5105L69.1829 93.4612C69.7723 93.3505 70.3162 93.1964 70.6618 92.6211C70.8134 92.3699 70.8913 92.0891 70.9104 91.8027C71.112 91.8182 71.3134 91.833 71.5141 91.8474C73.1148 92.186 82.7159 92.4731 83.4822 92.4731C83.4822 92.4731 84.9553 93.0933 85.5773 92.6128C86.0084 92.2786 86.1502 91.8333 85.9129 91.3287C85.5548 90.5696 83.9029 90.113 83.1693 89.9684C83.1693 89.9684 71.3321 90.0667 70.4801 89.9051C69.953 89.3614 69.0101 89.4358 68.2222 89.3498C67.5699 88.8846 66.6575 88.573 65.9367 88.3644C65.7898 88.3088 65.6444 88.2549 65.503 88.2042C64.1816 87.7335 62.8082 87.4841 61.4138 87.3503C59.9759 87.2136 58.5338 87.2754 57.1043 87.4713C56.5019 87.5531 55.9051 87.6588 55.3125 87.797C54.2515 87.9369 53.1966 88.1674 52.1352 88.4408L51.9228 88.4961C50.805 88.7892 49.6564 89.0427 48.4993 88.844C47.5574 88.6833 46.6515 88.3207 45.7829 87.9285L45.6699 87.8772C43.7602 87.005 40.7778 86.3468 38.6292 86.3468ZM55.4274 89.536C56.132 89.381 56.4329 90.4677 55.7261 90.6232C55.2255 90.7333 54.8013 90.9858 54.5146 91.4136L54.4845 91.4601C54.0999 92.0723 53.1273 91.5071 53.5146 90.891C53.9503 90.1976 54.6274 89.7119 55.4274 89.536ZM34.7897 88.8622C35.0381 88.6872 35.414 88.8171 35.5582 89.0645C35.7169 89.3368 35.6129 89.6401 35.3803 89.8183L35.3566 89.8356C35.1432 89.9861 34.9354 90.2558 34.9093 90.5321L34.907 90.5667C34.879 91.2898 33.7555 91.2935 33.7836 90.5667C33.811 89.8557 34.2225 89.2616 34.7897 88.8622Z" fill="black"/>
<path fill-rule="evenodd" clip-rule="evenodd" d="M209.444 146.879C208.221 142.135 207.096 140.124 204.923 138.475C202.891 136.932 199.925 135.637 195.597 134.691C191.089 133.903 190.961 131.559 189.831 127.793C189.501 126.661 187.867 126.359 187.161 127.175C187.062 127.068 186.958 126.97 186.851 126.881C186.947 126.341 186.161 124.793 186.187 124.277C186.461 118.885 184.698 116.178 180.297 115.172C179.34 114.953 172.839 114.824 171.906 115.082C167.826 116.21 163.81 119.791 164.425 124.106C163.144 125.78 161.891 126.802 159.915 127.341C155.518 127.899 151.122 128.396 146.724 128.821C138.115 130.171 130.044 134.728 124.527 141.375C124.018 141.989 123.871 142.821 124.32 143.476C123.968 144.983 121.988 148.638 123.546 149.671C120.984 155.8 115.089 167.646 115.078 171.03C115.031 185.248 116.567 203.754 130.595 211.622C131.156 212.174 131.237 212.785 131.48 213.606C132.097 216.195 134.336 218.045 136.788 217.894C148.864 218.162 160.561 216.689 172.638 216.617C177.964 216.586 184.369 217.381 188.995 217.91C193.622 218.44 198.292 217.972 202.732 216.617C203.106 217.207 203.863 217.55 204.631 217.381C209.234 216.466 212.956 213.629 216.198 210.529C217.188 208.727 221.057 203.591 219.519 201.804C220.913 195.91 220.841 189.577 218.364 183.964C218.715 182.936 218.075 181.805 218.364 180.743C218.573 179.974 219.108 179.656 219.378 178.895C219.757 177.823 219.345 176.386 218.918 175.293C218.743 174.748 219.24 174.162 219.378 173.606C220.033 170.983 218.533 171.215 217.451 169.461C217.467 169.456 217.749 168.205 217.747 168.211C217.913 167.317 217.498 166.173 217.136 165.427C216.892 164.923 216.368 164.607 215.847 164.665C216.371 162.885 217.034 161.404 217.747 159.689C219.008 156.667 220.604 153.772 222.415 151.036C223.156 149.916 222.16 148.618 220.96 148.542C217.077 148.295 213.236 147.736 209.444 146.879Z" fill="white"/>
<path fill-rule="evenodd" clip-rule="evenodd" d="M198.11 169.737C196.557 169.128 194.884 168.792 193.203 168.661C194.108 168.502 195.016 168.349 195.931 168.271C196.569 168.216 197.161 168.222 197.641 168.706C197.961 169.029 198.111 169.444 198.322 169.826C198.253 169.795 198.181 169.765 198.11 169.737ZM214.781 164.042C212.238 164.171 209.691 164.776 207.39 165.872C206.448 166.321 205.595 166.97 205.346 168.036C205.219 168.581 205.25 169.144 205.317 169.694C205.368 170.111 205.381 170.643 205.743 170.925C205.804 170.973 205.87 171.009 205.939 171.036C205.09 171.419 204.282 171.879 203.563 172.354C202.907 172.787 202.232 173.455 201.929 174.209C201.904 174.123 201.878 174.044 201.853 173.968C201.337 172.441 200.541 171.19 199.288 170.349C199.51 170.25 199.663 170.014 199.591 169.688C199.294 168.328 198.038 167.146 196.62 167.231C195.066 167.322 193.398 167.887 191.994 168.602C191.482 168.591 190.971 168.598 190.466 168.62C190.379 168.623 190.383 168.741 190.466 168.751C190.875 168.803 191.285 168.86 191.695 168.928C192.669 169.083 193.639 169.281 194.589 169.527C195.729 169.822 196.907 170.118 197.972 170.633C200.037 171.634 201.316 174.25 201.053 176.526C201.01 176.9 200.865 178.028 200.348 177.912C199.91 177.813 199.736 176.9 199.583 176.561C199.173 175.663 198.435 175.077 197.55 174.679C196.51 174.212 195.398 173.896 194.32 173.529C193.71 173.319 193.099 173.11 192.488 172.902C191.862 172.688 191.267 172.392 190.6 172.542C190.198 172.633 190.151 173.113 190.377 173.388C190.721 173.808 191.232 173.931 191.727 174.104C192.381 174.331 193.033 174.559 193.686 174.786C194.694 175.137 195.751 175.433 196.735 175.863L196.704 175.933C196.624 175.91 196.53 175.99 196.545 176.088C196.693 176.997 196.897 178.046 196.67 178.956C196.491 179.677 195.858 180.476 195.036 180.264C195.165 180.146 195.212 179.943 195.125 179.755C194.8 179.058 190.534 176.31 190.154 177.331C190.142 177.367 190.181 177.394 190.212 177.388C190.536 177.321 191.079 177.874 191.338 178.049C191.713 178.302 192.093 178.549 192.464 178.809C192.869 179.092 193.265 179.39 193.651 179.697C193.954 179.939 194.182 180.19 194.53 180.312C194.348 180.399 194.203 180.56 194.142 180.767C193.985 181.304 193.682 181.76 193.155 181.998C192.604 182.244 191.982 182.089 191.402 182.149C190.61 182.229 189.92 182.605 189.343 183.143C188.132 184.274 187.525 186.267 185.831 186.802C184.82 187.121 183.697 186.92 182.673 186.775C181.529 186.614 180.415 186.486 179.263 186.654C178.16 186.816 177.118 187.198 176.111 187.664C175.166 188.1 174.122 188.594 173.285 189.245C173.112 188.714 172.938 188.187 172.806 187.644C172.495 186.36 172.326 185.052 172.286 183.732C172.248 182.476 172.318 181.214 172.426 179.964C172.479 179.339 172.563 178.717 172.617 178.093C172.631 177.936 172.659 177.767 172.68 177.599C174.176 176.716 175.747 176.039 177.331 175.343C177.335 175.342 177.34 175.339 177.344 175.338C177.393 175.315 177.441 175.294 177.49 175.273C177.488 175.27 177.487 175.268 177.484 175.265C177.665 175.154 177.791 175.006 177.867 174.841C180.15 173.326 182.058 171.259 183.481 168.848C184.077 167.837 184.651 166.788 185.431 165.903C186.262 164.958 187.248 164.397 188.469 164.105C189.896 163.763 191.366 163.557 192.828 163.441C193.627 163.378 194.519 163.28 195.389 163.284C195.995 163.288 196.589 163.34 197.133 163.49C197.94 163.712 198.411 164.325 198.918 164.946C199.402 165.541 199.883 166.137 200.335 166.758C200.763 167.346 201.167 167.953 201.518 168.591C201.728 168.972 201.923 169.366 202.088 169.771C202.145 169.914 202.221 170.077 202.256 170.226C202.291 170.376 202.226 170.535 202.395 170.535C201.7 170.544 201.707 171.655 202.398 171.614C205.1 171.457 201.229 166.179 200.663 165.444C199.862 164.402 199.036 163.044 197.753 162.56C197.735 162.553 197.715 162.546 197.697 162.54C198.07 162.186 198.365 161.762 198.647 161.331C198.938 160.888 199.284 160.38 199.38 159.854C199.44 159.518 199.023 159.327 198.825 159.621C198.538 160.049 198.399 160.59 198.184 161.061C197.965 161.538 197.699 161.988 197.488 162.47C196.982 162.314 196.434 162.243 195.877 162.219C196.58 161.267 197.781 159.431 197.926 159.195C198.591 158.103 199.224 156.978 199.829 155.851C200.482 154.629 201.042 153.358 201.668 152.123C202.023 151.422 202.381 150.716 202.775 150.037C202.911 149.804 203.057 149.571 203.223 149.359C203.255 149.317 203.296 149.282 203.334 149.243C203.377 149.219 203.422 149.192 203.447 149.178C203.674 149.048 203.754 148.744 203.914 148.552C204.17 148.242 204.47 148.206 204.854 148.201C205.674 148.193 206.496 148.225 207.314 148.247C208.517 148.281 209.718 148.329 210.919 148.392C211.282 148.412 211.644 148.431 212.007 148.454C213.754 148.558 215.5 148.694 217.241 148.861C218.782 149.008 220.322 149.248 221.864 149.363C219.776 154.325 217.461 159.197 214.84 163.899C214.814 163.946 214.794 163.994 214.781 164.042ZM203.197 176.824C202.861 176.978 202.534 177.171 202.229 177.39C202.28 177.049 202.292 176.689 202.278 176.328C202.53 176.598 202.851 176.752 203.197 176.824ZM217.572 168.289C217.548 168.292 217.526 168.304 217.515 168.328C217.049 169.29 217.244 170.363 218.004 171.117C218.403 171.51 219.271 171.954 219.243 172.599C219.219 173.121 218.651 173.559 218.408 173.99C218.183 174.392 218.098 174.832 218.279 175.268C218.511 175.825 219.158 176.046 219.379 176.594C219.66 177.289 219.204 178.127 218.884 178.731C218.587 179.291 218.202 179.851 217.947 180.444C216.236 181.33 214.706 182.688 213.39 184.068C211.949 185.577 210.712 187.352 208.424 187.307C208.195 187.303 208.021 187.424 207.917 187.591C207.28 187.62 206.642 187.633 206.005 187.636C204.885 187.641 203.766 187.63 202.647 187.595C202.569 187.324 202.626 186.956 202.622 186.727C202.608 185.991 202.601 185.255 202.57 184.518C202.562 184.313 202.553 184.107 202.545 183.902C202.948 184.631 203.733 184.962 204.629 184.911C206.068 184.827 207.516 184.591 208.942 184.379C209.692 184.268 210.442 184.142 211.189 184.007C211.804 183.898 212.671 183.926 213.101 183.433C213.202 183.318 213.207 183.108 213.049 183.03C212.623 182.821 212.355 182.938 211.888 183.028C211.319 183.139 210.748 183.244 210.175 183.342C209.076 183.533 207.975 183.71 206.871 183.866C206.242 183.954 205.612 184.041 204.982 184.11C204.432 184.169 203.812 184.249 203.369 183.835C202.475 182.998 202.976 181.596 203.541 180.751C203.552 180.734 203.552 180.719 203.548 180.705C204.081 180.58 204.613 180.434 205.144 180.331C206.164 180.135 207.191 179.969 208.219 179.822C210.332 179.52 212.459 179.321 214.583 179.12C215.11 179.07 215.115 178.242 214.583 178.291C211.532 178.57 208.465 178.835 205.454 179.423C204.699 179.569 203.949 179.735 203.204 179.922C202.852 180.009 202.475 180.145 202.106 180.149C202.083 180.149 202.061 180.149 202.038 180.148C201.316 180.125 201.211 179.506 201.608 178.991C201.657 178.928 201.707 178.865 201.759 178.805C202.461 177.968 203.335 177.409 204.236 176.831C205.245 176.693 206.251 176.387 207.238 176.163C209.677 175.607 212.116 175.051 214.556 174.497C215.034 174.387 214.831 173.652 214.352 173.76C212.5 174.18 210.648 174.599 208.796 175.019L206.085 175.634C205.543 175.756 204.867 176.001 204.23 176.09C203.916 176.133 203.611 176.139 203.336 176.075C202.448 175.864 202.403 174.754 202.786 174.094C203.216 173.353 204.027 172.89 204.746 172.47C205.994 171.742 207.321 171.218 208.618 170.615C208.848 170.564 209.078 170.514 209.308 170.463C210.646 170.168 212.176 170.024 213.436 169.483C213.813 169.323 213.607 168.728 213.234 168.737C212.256 168.758 211.233 169.106 210.277 169.312C209.243 169.537 208.208 169.76 207.174 169.983C207.07 170.005 206.455 170.202 206.363 170.158C206.304 170.13 206.283 169.926 206.263 169.791C206.2 169.347 206.154 168.881 206.222 168.436C206.374 167.438 207.206 166.97 208.048 166.586C209.922 165.734 211.978 165.201 214.024 164.988C214.495 164.939 214.967 164.908 215.441 164.892C215.998 164.875 216.457 164.777 216.739 165.326C217.182 166.191 217.426 167.302 217.572 168.289ZM214.969 199.637C214.56 198.224 214.672 196.715 214.392 195.273C214.247 194.53 214.05 193.792 213.835 193.066C213.661 192.48 213.372 191.856 213.339 191.244C213.337 191.203 213.385 191.18 213.418 191.198C213.994 191.529 214.437 192.242 214.765 192.802C215.159 193.473 215.459 194.174 215.702 194.912C216.185 196.382 216.581 198.155 215.958 199.637C215.773 200.078 215.122 200.166 214.969 199.637ZM202.346 180.92C202.691 180.886 203.036 180.82 203.381 180.743C202.995 181.119 202.639 181.572 202.441 182.075C202.41 181.689 202.371 181.304 202.319 180.921C202.327 180.921 202.337 180.921 202.346 180.92ZM199.029 210.334C198.42 209.909 197.976 209.315 197.46 208.791C196.952 208.275 197.746 207.481 198.254 207.997C198.694 208.444 199.077 209.003 199.595 209.364C199.844 209.538 199.96 209.853 199.796 210.133C199.652 210.38 199.277 210.508 199.029 210.334ZM195.634 194.004C196.745 193.523 197.838 193 199.001 192.654C199.696 192.447 199.99 193.531 199.299 193.737C198.228 194.056 197.224 194.531 196.201 194.974C195.544 195.258 194.973 194.29 195.634 194.004ZM183.9 193.668C183.628 192.997 184.715 192.708 184.982 193.369C185.291 194.13 185.644 194.872 185.952 195.633C186.224 196.304 185.138 196.593 184.87 195.931C184.562 195.17 184.208 194.429 183.9 193.668ZM172.318 207.06C172.137 207.302 171.835 207.433 171.55 207.262C171.311 207.119 171.166 206.738 171.349 206.494C171.884 205.781 172.426 205.076 173.053 204.44C173.561 203.924 174.355 204.719 173.847 205.234C173.287 205.802 172.796 206.423 172.318 207.06ZM170.662 131.915C171.177 132.267 171.629 132.695 172.069 133.135C172.58 133.646 171.787 134.44 171.275 133.929C170.904 133.558 170.53 133.181 170.095 132.885C169.844 132.713 169.732 132.394 169.894 132.116C170.04 131.868 170.412 131.744 170.662 131.915ZM187.512 149.984C187.221 150.568 186.958 151.14 186.942 151.803C186.924 152.525 185.802 152.526 185.82 151.803C185.841 150.935 186.161 150.182 186.543 149.417C186.866 148.77 187.834 149.339 187.512 149.984ZM193.694 135.472C194.298 135.07 194.859 136.043 194.261 136.442C193.776 136.765 193.291 137.089 192.806 137.412C192.203 137.814 191.642 136.841 192.24 136.442C192.725 136.119 193.209 135.796 193.694 135.472ZM166.879 160.845C166.776 161.558 165.694 161.253 165.796 160.546C165.954 159.454 166.147 158.376 166.443 157.312C166.637 156.616 167.72 156.914 167.526 157.611C167.229 158.675 167.037 159.753 166.879 160.845ZM162.943 173.707C162.221 173.692 162.221 172.569 162.943 172.584C163.597 172.598 164.24 172.77 164.871 172.928C165.572 173.103 165.273 174.186 164.572 174.01C164.039 173.877 163.496 173.719 162.943 173.707ZM161.491 199.617C161.242 199.738 160.988 199.846 160.737 199.961C160.234 200.191 159.732 200.421 159.23 200.652C158.184 201.132 157.139 201.614 156.095 202.097C154.004 203.065 151.897 203.999 149.802 204.957C147.665 205.933 145.533 206.923 143.404 207.917C142.401 208.386 141.391 208.837 140.382 209.293C139.52 209.683 138.454 210.365 137.507 210.429C137.459 210.432 137.442 210.371 137.47 210.339C137.828 209.932 138.398 209.696 138.868 209.431C139.349 209.161 139.838 208.907 140.325 208.649C141.34 208.111 142.356 207.577 143.381 207.058C145.431 206.021 147.484 204.99 149.539 203.961C151.634 202.912 153.726 201.855 155.84 200.843C156.835 200.367 157.831 199.892 158.828 199.418C159.367 199.161 159.908 198.905 160.448 198.649C160.681 198.539 160.912 198.42 161.151 198.321C161.468 198.19 161.709 198.217 162.035 198.136C162.569 198.004 162.799 198.682 162.39 198.978C162.053 199.221 161.876 199.429 161.491 199.617ZM153.997 211.13C153.882 210.85 154.123 210.51 154.389 210.44C154.708 210.356 154.963 210.549 155.08 210.832C155.387 211.581 155.826 212.268 156.39 212.848C156.894 213.366 156.101 214.161 155.596 213.642C154.889 212.915 154.381 212.065 153.997 211.13ZM148.484 193.107C147.972 192.595 148.766 191.801 149.278 192.313L150.733 193.768C151.244 194.28 150.45 195.074 149.939 194.562L148.484 193.107ZM133.559 190.735C132.514 191.041 131.294 191.324 130.581 192.216C130.546 192.26 130.487 192.204 130.508 192.16C131.421 190.267 134.039 189.603 135.851 188.94C137.134 188.471 138.449 188.082 139.775 187.734C139.643 186.22 140.008 184.598 140.136 183.092C140.271 181.483 140.382 179.871 140.438 178.258C140.496 176.612 140.51 174.955 140.456 173.309C140.402 171.669 140.189 170.049 140.096 168.415C140.087 168.257 140.307 168.249 140.355 168.38C140.906 169.897 141.141 171.577 141.32 173.176C141.505 174.824 141.566 176.467 141.543 178.124C141.518 179.828 141.419 181.528 141.283 183.226C141.219 184.031 141.144 184.835 141.073 185.64C141.02 186.253 140.995 186.862 140.869 187.457C141.669 187.261 142.471 187.075 143.271 186.894C145.82 186.319 148.379 185.785 150.917 185.163C152.163 184.857 153.391 184.492 154.632 184.167C155.8 183.861 157.032 183.49 158.232 183.354C158.659 183.305 158.714 183.89 158.431 184.089C157.456 184.774 156.162 185.25 155.036 185.634C153.906 186.018 152.732 186.295 151.574 186.579C149.159 187.174 146.721 187.659 144.287 188.165C141.856 188.671 139.421 189.172 137.018 189.796C135.86 190.096 134.707 190.398 133.559 190.735ZM127.828 160.695C127.203 161.062 126.639 160.091 127.262 159.726C128.076 159.247 128.945 158.888 129.82 158.537C130.492 158.268 130.781 159.355 130.119 159.62C129.332 159.935 128.56 160.265 127.828 160.695ZM125.565 202.411C124.939 202.775 124.374 201.804 124.999 201.442C125.876 200.933 126.837 200.593 127.747 200.148C128.394 199.831 128.962 200.8 128.313 201.118C127.404 201.563 126.443 201.902 125.565 202.411ZM124.547 178.731C125.153 179.307 125.962 179.578 126.724 179.88C127.389 180.144 127.098 181.229 126.426 180.963C125.476 180.586 124.508 180.242 123.754 179.525C123.229 179.026 124.024 178.234 124.547 178.731ZM131.25 146.572C131.916 146.834 131.625 147.919 130.952 147.655C130.206 147.362 129.435 147.139 128.689 146.847C128.023 146.585 128.314 145.5 128.987 145.764C129.733 146.057 130.504 146.279 131.25 146.572ZM143.075 133.799C143.782 133.679 144.084 134.762 143.373 134.882C142.491 135.03 141.623 135.205 140.787 135.528C140.111 135.79 139.822 134.704 140.488 134.446C141.325 134.122 142.193 133.948 143.075 133.799ZM146.981 164.899C146.333 164.58 146.902 163.612 147.548 163.93C148.229 164.264 148.934 164.523 149.677 164.681C150.384 164.832 150.083 165.914 149.378 165.764C148.542 165.586 147.747 165.276 146.981 164.899ZM150.671 147.381C151.37 147.189 151.666 148.273 150.97 148.463C149.746 148.799 148.485 148.973 147.252 149.272C146.549 149.442 146.252 148.359 146.954 148.189C148.187 147.891 149.447 147.716 150.671 147.381ZM166.325 141.883C167.036 142.015 166.733 143.097 166.027 142.966C165.275 142.827 164.514 142.825 163.752 142.824C163.028 142.824 163.029 141.701 163.752 141.701C164.617 141.702 165.472 141.725 166.325 141.883ZM217.379 147.749C215.545 147.574 213.708 147.434 211.869 147.328C211.783 147.324 211.699 147.318 211.613 147.314C211.603 147.295 211.591 147.276 211.578 147.257C210.978 146.375 210.536 145.494 210.153 144.497C209.786 143.548 209.431 142.57 208.867 141.714C208.224 140.739 207.355 139.975 206.404 139.314C205.826 139.702 205.29 140.157 204.8 140.639C204.284 141.146 203.49 140.352 204.006 139.845C204.442 139.417 204.907 139.021 205.399 138.663C204.831 138.318 204.252 137.994 203.687 137.672C201.57 136.463 199.402 135.346 197.189 134.324C196.161 133.848 195.12 133.426 194.072 132.998C193.507 132.768 192.951 132.471 192.387 132.205C192.427 131.806 192.308 131.36 192.002 131.097C191.776 130.905 191.601 130.834 191.331 130.697C191.271 130.676 191.235 130.664 191.218 130.657C191.23 130.659 191.267 130.671 191.327 130.69C191.47 130.756 191.482 130.737 191.361 130.633C191.354 130.406 190.906 129.926 190.804 129.691C190.447 128.887 190.337 128.036 189.81 127.304C189.085 126.294 187.867 125.913 186.732 126.255C186.614 125.041 186.583 123.774 186.126 122.69C186.113 122.661 186.073 122.648 186.054 122.68C185.577 123.493 185.537 124.398 185.5 125.336C185.465 126.216 185.499 127.115 185.614 127.99C185.541 128.046 185.466 128.1 185.389 128.151C185.027 128.39 184.637 128.574 184.227 128.71C183.447 128.968 182.629 129.08 181.811 129.12C179.7 129.221 177.523 129.007 175.447 128.645C173.346 128.279 170.126 127.729 168.257 126.678C167.024 125.984 165.886 125.138 164.733 124.318C165.151 122.971 165.258 121.522 164.837 120.384C164.786 120.248 164.573 120.223 164.532 120.384C164.268 121.47 164.191 122.562 163.84 123.636C163.835 123.651 163.829 123.668 163.824 123.684C163.714 123.61 163.605 123.536 163.495 123.463C163.243 123.296 162.899 123.421 162.747 123.66C160.324 127.479 156.487 127.698 152.457 128.38C148.047 129.127 143.615 129.932 139.375 131.394C135.32 132.792 131.444 134.827 128.374 137.867C127.679 138.555 127.029 139.289 126.416 140.054C127.009 140.129 127.598 140.245 128.179 140.428C128.867 140.644 128.571 141.728 127.881 141.511C127.134 141.276 126.379 141.16 125.616 141.102C123.53 143.957 121.904 147.194 120.497 150.379C117.799 156.488 116.043 162.993 115.235 169.616C115.679 169.35 116.131 169.097 116.594 168.861C117.237 168.534 117.804 169.503 117.16 169.831C116.445 170.195 115.751 170.596 115.078 171.03C114.784 173.929 114.67 176.847 114.739 179.76C114.903 186.705 115.84 193.853 117.96 200.48C119 203.732 120.378 206.957 122.431 209.705C123.36 210.95 124.415 212.073 125.658 213.009C126.26 213.464 126.897 213.87 127.569 214.212C128.435 214.655 129.563 214.801 130.309 215.429C130.555 215.635 130.744 215.907 130.887 216.215C130.804 216.799 130.795 217.384 130.955 217.968C131.005 218.151 131.143 218.299 131.312 218.371C131.315 218.421 131.315 218.47 131.315 218.518C131.315 218.541 131.349 218.546 131.353 218.524C131.36 218.48 131.367 218.437 131.374 218.392C131.429 218.41 131.486 218.419 131.545 218.419C133.677 218.427 135.811 218.375 137.945 218.302C137.78 217.797 137.601 217.295 137.429 216.789C137.196 216.103 138.281 215.81 138.512 216.491C138.712 217.082 138.922 217.668 139.109 218.262C141.396 218.176 143.682 218.074 145.963 217.999C150.817 217.837 155.669 217.784 160.523 217.682C168.062 217.522 175.656 217.195 183.207 217.515C183.468 216.96 183.76 216.419 184.037 215.872C184.364 215.226 185.332 215.795 185.007 216.439C184.814 216.819 184.614 217.194 184.425 217.573C185.954 217.652 187.482 217.757 189.006 217.901C191.608 218.145 194.184 218.578 196.782 218.848C199.424 219.123 202.009 219.074 204.63 218.638C205.101 218.559 205.379 218.274 205.494 217.92C205.498 217.919 205.501 217.916 205.504 217.912C205.639 217.755 205.765 217.624 205.895 217.51C206.051 217.409 206.22 217.324 206.418 217.248C206.787 217.108 207.171 217.022 207.561 216.964C207.99 216.9 208.425 216.894 208.855 216.841C209.217 216.795 209.57 216.726 209.924 216.642C210.559 216.49 211.163 216.292 211.763 216.03C212.287 215.801 212.759 215.473 213.206 215.114C214.129 214.439 214.929 213.578 215.627 212.682C216.034 212.159 216.417 211.615 216.765 211.05C217.372 210.07 217.888 209.052 218.41 208.026C218.599 207.722 218.772 207.411 218.93 207.093C217.91 206.793 216.88 206.548 215.799 206.53C215.076 206.518 215.076 205.396 215.799 205.407C217.039 205.427 218.212 205.717 219.378 206.062C219.435 205.911 219.489 205.759 219.539 205.605C219.678 205.284 219.793 204.954 219.889 204.62C219.945 204.468 220.001 204.317 220.057 204.165C220.183 203.64 220.31 203.114 220.437 202.588C220.691 201.746 220.892 200.891 221.039 200.025C221.163 199.455 221.258 198.881 221.323 198.3C221.519 196.892 221.679 195.487 221.69 194.064C221.673 193.187 221.617 192.311 221.522 191.439C221.481 190.847 221.412 190.257 221.32 189.672C221.199 188.802 221.08 187.94 220.879 187.081C220.729 186.5 220.579 185.919 220.429 185.338C220.054 184.127 219.612 182.939 219.103 181.779C219.075 181.706 218.933 181.546 218.848 181.544C218.783 181.543 218.693 181.602 218.723 181.68C218.726 181.687 218.728 181.696 218.731 181.703C218.702 181.637 218.674 181.569 218.644 181.503C218.619 181.442 218.521 181.318 218.445 181.32C218.441 181.32 218.436 181.32 218.431 181.321C218.451 181.307 218.469 181.289 218.487 181.268C218.991 180.671 219.318 179.887 219.678 179.196C219.977 178.626 220.259 178.025 220.34 177.381C220.412 176.816 220.315 176.258 219.96 175.801C219.556 175.28 218.796 175.036 219.218 174.284C219.698 173.427 220.404 172.685 219.701 171.712C219.343 171.217 218.776 170.945 218.355 170.514C217.871 170.015 217.641 169.349 217.654 168.668C217.683 168.685 217.722 168.676 217.736 168.634C218.143 167.405 217.849 166.055 217.432 164.857C217.205 164.207 216.723 164.029 216.163 163.997C218.588 159.26 220.857 154.447 222.879 149.523C222.946 149.362 223.012 149.201 223.078 149.039C223.176 148.798 222.969 148.476 222.729 148.423C220.98 148.04 219.159 147.918 217.379 147.749Z" fill="black"/>
<path fill-rule="evenodd" clip-rule="evenodd" d="M197.152 89.079C196.818 84.7639 197.335 80.2411 195.672 76.1396C192.772 69.3344 184.64 67.0654 178.336 64.4746C175.81 63.7281 167.312 63.6238 164.355 62.6357C157.662 60.3996 156.063 57.7353 150.745 61.993C149.847 62.7203 149.285 63.5108 148.876 64.5908L148.892 64.5954C148.775 65.0457 148.901 65.495 149.164 65.8382C146.859 68.1959 145.894 71.7306 147.077 74.8691C150.938 83.0363 150.756 87.4523 149.512 96.2324C147.888 104.429 151.6 107.423 157.748 111.883C157.497 112.369 157.445 113.014 157.772 113.442C164.881 123.436 178.285 128.207 189.77 123.135C194.432 121.059 196.513 116.093 197.701 111.612C199.084 106.594 199.509 101.307 198.383 96.1958C197.929 93.8319 197.337 91.4851 197.152 89.079Z" fill="white"/>
<path fill-rule="evenodd" clip-rule="evenodd" d="M156.145 41.2711C157.008 41.1415 157.66 41.677 157.97 42.4319L157.986 42.4725C158.086 42.7294 158.196 42.9792 158.316 43.2248C160.475 42.1652 163.556 42.4374 164.923 44.5835C165.898 46.1162 165.303 47.9352 164.935 49.5605L164.694 50.6314C165.161 50.9284 165.512 51.4602 165.496 52.0108L165.494 52.0532L165.396 53.5466C165.707 53.2308 165.992 52.8869 166.246 52.5206C166.421 52.1992 166.611 51.8834 166.814 51.5774C168.011 49.7767 170.698 51.3416 169.71 53.2701C169.521 53.6421 169.308 53.9944 169.079 54.334C168.821 54.8351 168.609 55.3502 168.446 55.8793C168.913 56.0829 169.272 56.5348 169.31 57.2169C169.399 58.81 168.562 60.1391 167.232 60.9743C166.841 61.2199 166.437 61.2676 166.071 61.1764C166.006 61.2634 165.941 61.3504 165.88 61.4388C166.41 61.8697 166.889 62.361 167.3 62.9056C168.537 62.7203 169.782 62.6333 171.026 62.6305C172.547 61.8852 174.368 61.9006 176.003 62.1799C177.055 62.3596 178.066 62.7091 179.101 62.9603C180.193 63.2242 181.301 63.234 182.405 63.4136C183.797 63.6396 185.018 64.2824 185.786 65.3085C186.629 65.3337 187.516 65.679 188.251 66.1478C189.963 67.2398 191.665 68.3472 193.372 69.4461C194.027 69.8681 194.272 70.5416 194.152 71.2929L194.144 71.341L194.086 71.6525L194.221 71.8443C194.744 72.5825 195.313 73.3557 195.651 74.1705C196.277 75.073 196.842 76.019 197.343 76.9945C198.018 78.3054 198.575 79.6949 198.952 81.121C199.046 81.4817 199.14 81.8452 199.202 82.2129C199.29 82.7322 199.154 83.1351 199.08 83.6333C198.987 84.2649 198.954 84.905 198.855 85.538C198.789 85.9576 198.433 86.1639 198.06 86.1752C198.2 87.2433 198.301 88.3184 198.398 89.3851C198.534 90.9094 198.627 92.4379 198.707 93.9663C199.119 94.5657 199.962 95.0401 200.571 95.2043C201.415 95.4303 202.299 95.1846 203.096 94.8969C203.597 94.7158 204.008 95.346 203.763 95.7671C202.996 97.0893 201.354 97.0836 200.111 96.4984C199.585 96.2513 199.123 95.8934 198.781 95.4274C198.802 95.871 198.825 96.3145 198.847 96.7594L198.868 97.1624C199.121 101.869 199.666 106.737 198.782 111.397C197.252 119.469 190.574 125.615 182.417 126.092C178.136 126.343 174.571 125.078 172.799 124.373C171.026 123.667 171.715 122.229 172.946 122.64C175.066 123.348 178.96 124.404 182.445 123.948C190.659 122.874 197.624 118.767 196.908 101.08C196.806 98.5713 196.494 96.0619 196.427 93.5537C196.362 91.1017 196.386 88.6483 196.278 86.1976L196.242 85.3615C196.2 84.3845 196.155 83.403 196.081 82.4249C195.993 82.0459 195.92 81.6613 195.812 81.2894C195.519 80.2774 195.136 79.2935 194.66 78.3545C194.555 78.4345 194.437 78.4921 194.309 78.5145C193.34 78.6886 192.431 78.6395 191.523 78.2352C191.099 78.0486 190.726 77.8001 190.378 77.4928C190.212 77.3482 190.101 77.2078 190.014 77.0619C189.575 77.0689 189.136 76.9369 188.861 76.6211C188.547 76.2612 188.495 75.8894 188.618 75.5453L188.631 75.5109L188.6 75.4997C188.23 76.4583 187.492 77.3019 186.682 77.8717C185.402 78.7756 183.802 79.0367 182.267 79.0605C180.572 79.0858 178.784 78.8247 177.112 78.5581C176.67 78.4879 176.23 78.4079 175.8 78.2998C175.783 78.3166 175.766 78.3363 175.748 78.3531C174.312 79.7272 172.293 80.0809 170.472 79.2963C169.42 78.843 168.537 78.1131 167.757 77.2766C167.746 77.7145 167.723 78.1524 167.686 78.5861L167.67 78.7584C167.592 79.5661 167.443 80.4229 166.832 81.0059C165.846 81.9505 164.415 81.5715 163.277 80.9567C163.278 80.9862 163.278 81.0171 163.278 81.048C163.586 82.0922 163.894 83.1379 164.203 84.1835L164.27 84.4063C164.494 85.1487 164.74 85.8922 164.808 86.6692C164.937 88.1542 163.949 89.6209 162.299 89.1227C161.434 88.8622 160.74 88.1343 160.075 87.5512L159.656 87.1885C160.74 90.7353 161.492 94.4085 161.562 98.1096C161.567 98.3104 161.394 98.4619 161.203 98.469C160.757 98.4872 160.277 98.3988 159.828 98.2205C159.803 98.2191 159.778 98.2177 159.751 98.2135C158.985 98.1026 158.274 97.8261 157.646 97.4177C157.791 97.8767 157.855 98.3693 157.818 98.8844C157.808 99.0093 157.613 99.0528 157.585 98.9153C157.223 97.1342 155.139 95.7882 153.343 96.1292C151.415 96.4956 149.995 98.1546 149.647 100.042C149.274 102.07 149.988 104.416 151.311 105.981C151.92 106.702 152.721 107.304 153.673 107.456C154.108 107.525 154.56 107.501 154.982 107.377C155.161 107.324 155.33 107.25 155.501 107.179C155.751 107.078 156.043 107.063 156.278 106.956C156.813 106.716 157.35 107.209 157.079 107.758C156.844 108.236 156.632 108.559 156.24 108.806C156.558 109.194 156.845 109.733 156.952 109.877C157.496 110.613 158.049 111.307 158.669 111.98C159.301 112.662 159.99 113.285 160.718 113.862L161.024 114.104C161.725 114.66 162.336 115.176 162.831 115.974C163.221 116.604 162.716 117.459 161.985 117.449C159.698 117.417 158.035 115.407 156.851 113.651C156.682 113.4 156.524 113.135 156.377 112.862C156.323 112.948 156.264 113.028 156.198 113.101L156.329 113.452C156.716 114.485 155.048 115.16 154.564 114.196C154.212 113.497 153.803 112.832 153.349 112.203C153.081 112.165 152.818 112.002 152.672 111.792C152.303 111.257 151.889 110.716 151.54 110.147C151.346 109.963 151.147 109.786 150.944 109.613C150.885 109.665 150.824 109.717 150.767 109.772C150.512 110.354 150.196 110.886 149.804 111.387L149.72 111.494C148.971 112.44 147.994 113.407 146.785 113.639C146.416 113.709 146.061 113.25 146.388 112.957C147.234 112.196 148.234 111.678 149.014 110.829C149.399 110.41 149.752 109.95 150.055 109.467L150.124 109.355C150.175 109.272 150.227 109.189 150.28 109.105C149.928 108.865 149.576 108.624 149.224 108.382C148.254 109.211 146.991 109.59 145.919 110.276L145.813 110.346C144.843 110.994 143.822 109.56 144.599 108.772C145.456 107.908 146.171 106.877 146.93 105.915C146.573 105.258 146.404 104.48 146.341 103.694C146.316 103.472 146.297 103.249 146.277 103.026C145.733 103.035 145.185 102.848 144.722 102.527L144.547 102.402C143.984 102.581 143.394 102.668 142.828 102.653C141.498 102.614 140.954 101.094 141.786 100.132C142.635 99.1497 144.12 98.9349 145.298 99.4122C145.336 99.3925 145.375 99.3714 145.413 99.3504C145.357 99.0921 145.369 98.8579 145.433 98.6521L145.414 98.5266C145.156 98.1293 144.985 97.6757 144.921 97.1964C144.87 96.8167 144.88 96.4404 144.968 96.0655C144.997 95.9407 145.058 95.8115 145.104 95.6813C145.009 95.4397 144.952 95.1898 144.935 94.9386C144.908 94.9067 144.881 94.874 144.856 94.8387C144.272 94.0183 144.39 93.0297 144.946 92.3659C144.949 92.3236 144.952 92.2814 144.958 92.2394C144.926 92.1661 144.896 92.0922 144.869 92.0174C144.325 91.4693 143.927 90.8097 144.001 89.9924C144.045 89.5116 144.242 89.0787 144.541 88.7552C144.488 88.5983 144.483 88.4165 144.547 88.2648C144.07 86.9951 144.131 85.466 144.474 84.046C144.398 83.8298 144.359 83.5954 144.367 83.347C144.407 82.2929 145.319 81.3245 146.399 81.3371C146.529 81.3382 146.651 81.3552 146.768 81.3801L146.769 81.3549C146.811 81.0386 146.898 80.7462 147.025 80.4839C146.962 80.4613 146.905 80.4289 146.854 80.3858C146.162 80.7552 145.429 81.0376 144.661 81.23C144.096 81.3715 143.518 80.7294 143.869 80.1991C144.032 79.9531 144.212 79.7321 144.405 79.5303C144.13 79.5318 143.85 79.5505 143.568 79.5869C143.06 79.6528 142.493 79.3062 142.163 78.8374C141.753 79.236 141.342 79.6332 140.931 80.0304C139.89 81.0396 138.317 80.2971 138.153 78.9665C137.843 78.8837 137.554 78.7433 137.3 78.5426C135.658 79.2556 133.892 79.6472 132.086 79.7216C130.79 79.7749 130.032 78.2647 130.638 77.198C131.045 76.4822 131.55 75.8394 132.132 75.2807C131.229 75.5572 130.296 75.7566 129.343 75.8843C128.828 75.9531 128.1 75.5264 127.894 75.0534C127.105 73.2344 127.172 71.3381 128.08 69.5683C128.115 69.4981 128.155 69.4307 128.192 69.3633C128.286 69.1289 128.389 68.8974 128.5 68.67C127.383 67.505 127.286 65.773 127.888 64.3232C127.647 63.9316 127.554 63.46 127.718 63.0333C128.185 61.8052 128.859 60.6711 129.709 59.697C129.628 59.5398 129.556 59.3728 129.496 59.1931C129.017 57.7405 129.572 55.9874 130.69 54.9754C131.393 54.3382 132.201 53.9565 133.064 53.7122C133.427 53.0694 133.895 52.4897 134.439 52.0013C134.46 51.955 134.481 51.9087 134.505 51.8623C135.352 50.2651 136.896 49.4089 138.55 49.211C138.615 48.5864 139.036 47.9899 139.647 47.7962C139.816 47.2559 140.067 46.7394 140.412 46.2706C140.955 45.5323 141.857 45.1842 142.708 45.6684C143.173 45.9337 143.62 46.2383 144.038 46.5751C144.225 46.487 144.438 46.43 144.679 46.4118L144.739 46.4081L146.123 46.3379C146.702 46.0811 147.28 45.8116 147.86 45.5491C148.208 45.2614 148.596 45.0214 149.02 44.8431C149.5 44.6424 149.991 44.5287 150.484 44.4909C150.883 44.3603 151.286 44.2452 151.696 44.1554C152.658 43.9449 153.666 43.827 154.665 43.8368C154.685 43.5781 154.695 43.3164 154.693 43.0515L154.691 42.9189C154.669 42.0697 155.347 41.3918 156.145 41.2711ZM155.175 109.21C155.038 109.24 154.899 109.264 154.76 109.281C154.802 109.384 154.844 109.488 154.885 109.592C154.997 109.655 155.111 109.716 155.225 109.772C155.191 109.581 155.171 109.389 155.175 109.21ZM147.967 107.068L147.873 107.239C147.858 107.268 147.843 107.295 147.829 107.323C148.027 107.307 148.226 107.311 148.422 107.334L148.422 107.313C148.397 107.304 148.371 107.297 148.347 107.285C148.212 107.22 148.086 107.147 147.967 107.068ZM151.863 99.2283C153.104 99.3006 154.156 99.491 155.285 100.034L155.382 100.082C156.379 100.577 158.029 101.492 157.89 102.805C157.851 103.178 157.58 103.571 157.154 103.541C155.985 103.461 155.317 102.282 154.526 101.547C153.727 100.806 152.747 100.044 151.78 99.5343C151.643 99.4626 151.697 99.2355 151.846 99.2282L151.863 99.2283ZM146.234 81.9378C145.936 81.9477 146.036 82.2368 146.189 81.9954C146.201 81.9757 146.217 81.9561 146.234 81.9378ZM162.29 62.6358C159.473 62.7099 156.638 64.3738 154.527 66.0557C152.691 67.5189 151.106 69.2593 149.702 71.1352C149.341 72.0694 149.031 73.0231 148.769 73.9839C148.596 74.6183 148.488 75.2597 148.344 75.8997L148.299 76.0959C148.185 76.3082 148.101 76.5365 148.04 76.7724C148.295 77.029 148.627 77.2127 148.993 77.2999C149.11 77.328 149.208 77.3888 149.285 77.4693C149.579 76.9784 149.837 76.4602 149.986 75.9108L149.992 75.8854C150.557 74.9592 151.171 74.0618 151.829 73.1951C153.645 70.802 155.644 68.6209 158.048 66.8061C159.87 65.4306 161.908 64.3526 164.074 63.6523C163.544 63.2243 162.942 62.8858 162.29 62.6358Z" fill="black"/>
<path fill-rule="evenodd" clip-rule="evenodd" d="M187.686 114.68C186.653 114.98 185.543 115.007 184.49 114.697C183.534 114.417 182.553 113.799 181.85 112.982C181.225 112.257 180.82 111.375 180.836 110.433C180.838 110.326 180.876 110.236 180.935 110.166C180.999 110.091 181.088 110.04 181.183 110.018C181.281 109.995 181.385 110.003 181.473 110.043C181.553 110.079 181.621 110.141 181.664 110.231C181.772 110.373 181.879 110.513 181.988 110.649C182.857 111.722 183.698 112.524 185.005 112.812C185.714 112.968 186.422 112.899 187.072 112.661C187.768 112.406 188.396 111.957 188.889 111.384C189.112 111.124 189.375 111.019 189.632 111.017C189.923 111.015 190.211 111.15 190.428 111.367C190.641 111.579 190.784 111.868 190.797 112.171C190.808 112.436 190.721 112.713 190.491 112.961C189.733 113.775 188.75 114.372 187.686 114.68ZM187.655 101.235C188.714 101.88 190.328 103.382 189.189 104.979C187.847 106.387 185.915 104.773 184.963 104.042C184.081 103.476 183.089 104.932 183.908 105.593C190.786 110.687 193.578 101.404 188.19 100.478C187.597 100.376 187.377 101.036 187.655 101.235ZM177.743 98.4006C177.403 98.1827 177.002 98.1079 176.558 98.31C176.211 98.4678 175.603 98.9939 175.179 99.6856C174.889 100.159 174.684 100.714 174.727 101.292C174.737 101.426 174.687 101.525 174.609 101.599C174.547 101.656 174.458 101.699 174.353 101.712C174.264 101.723 174.164 101.713 174.083 101.688C173.929 101.64 173.848 101.54 173.817 101.458C173.52 100.67 173.648 99.7915 173.98 98.9985C174.429 97.9282 175.243 97.0318 175.777 96.7427C176.69 96.248 177.767 96.2252 178.682 96.7292C179.46 97.1582 179.947 97.8508 180.431 98.5568C180.534 98.7069 180.636 98.8559 180.741 99.0022C180.953 99.2955 180.974 99.5864 180.892 99.8358C180.801 100.112 180.57 100.345 180.28 100.467C180.013 100.58 179.703 100.596 179.428 100.48C179.196 100.382 178.983 100.191 178.848 99.8675C178.621 99.3222 178.243 98.7205 177.743 98.4006ZM195.039 99.6138C194.805 99.7354 194.623 99.7721 194.364 99.6945C194.221 99.6515 194.08 99.5691 193.969 99.4584C193.859 99.3486 193.78 99.2122 193.749 99.0608C193.674 98.6871 193.469 98.3373 193.178 98.1093C192.929 97.9144 192.615 97.8111 192.266 97.8694C191.89 97.9322 191.532 98.1734 191.285 98.4579C191.203 98.5531 191.138 98.6612 191.073 98.7686C190.951 98.9694 190.833 99.156 190.665 99.3035C190.602 99.3596 190.506 99.3985 190.413 99.3985C190.376 99.3985 190.337 99.3923 190.301 99.381C189.927 99.0051 189.855 98.72 189.867 98.4372C189.879 98.1407 189.996 97.8405 190.185 97.5603C190.628 96.9032 191.469 96.3644 192.037 96.2423C192.814 96.0752 193.586 96.2758 194.205 96.7102C194.842 97.1571 195.314 97.8509 195.461 98.6329C195.497 98.8212 195.482 99.0245 195.41 99.2007C195.34 99.3729 195.218 99.5204 195.039 99.6138ZM179.458 91.3943C178.991 91.849 178.439 91.9195 177.88 91.9821C177.57 92.0172 177.322 92.0456 177.078 92.1006C176.408 92.2519 175.746 92.4798 175.141 92.8081C174.51 93.1512 173.821 93.565 173.326 94.0952C173.208 94.2213 173.097 94.3537 172.986 94.4864C172.884 94.6073 172.787 94.7238 172.684 94.8361C172.566 94.9651 172.453 95.1002 172.342 95.2351C172.273 95.3488 172.259 95.3768 172.245 95.406C172.224 95.4497 172.2 95.4987 172.172 95.5513C172.134 95.6232 172.089 95.702 172.043 95.7734C171.965 95.904 171.923 95.9399 171.887 95.956C171.828 95.9827 171.771 95.9958 171.716 95.9887C171.664 95.982 171.616 95.9572 171.568 95.9167C171.328 95.7142 171.258 95.382 171.265 95.0294C171.276 94.4942 171.473 93.9017 171.655 93.5375C172.078 92.6912 172.664 91.8114 173.37 91.1798C174.175 90.4588 175.055 89.9129 176.066 89.5368C176.695 89.303 177.423 89.0884 178.107 89.1155C178.6 89.135 179.071 89.2816 179.459 89.6475C179.698 89.8722 179.812 90.1918 179.812 90.5111C179.812 90.8368 179.694 91.1644 179.458 91.3943ZM195.987 95.558C195.958 95.6066 195.917 95.6402 195.871 95.6603C195.823 95.6814 195.77 95.6875 195.718 95.6788C195.667 95.6702 195.619 95.647 195.58 95.6116C195.543 95.5777 195.515 95.5327 195.502 95.4776C195.193 94.1167 194.591 93.1043 193.308 92.4514C192.676 92.1302 191.95 91.9261 191.263 91.7634C191.063 91.7161 190.852 91.6855 190.639 91.6544C189.973 91.5571 189.302 91.4457 188.868 90.9071C188.606 90.5826 188.496 90.1676 188.558 89.7881C188.617 89.4308 188.826 89.1032 189.205 88.9069C190.15 88.4183 191.324 88.8977 192.277 89.3061C192.348 89.3364 192.418 89.3661 192.486 89.3948C193.419 89.7887 194.269 90.3087 194.969 91.0522C195.524 91.6421 196.038 92.5142 196.245 93.4113C196.417 94.1577 196.377 94.9196 195.987 95.558Z" fill="black"/>
</g>
<rect x="2.5" y="2.47021" width="229" height="213" stroke="black" stroke-width="4"/>
<defs>
<clipPath id="clip0_88_593">
<rect x="0.5" y="0.470215" width="233" height="217" fill="white"/>
</clipPath>
</defs>
</svg>
