<svg width="240" height="218" viewBox="0 0 234 218" fill="none" xmlns="http://www.w3.org/2000/svg">
<g clip-path="url(#clip0_88_936)">
<path fill-rule="evenodd" clip-rule="evenodd" d="M21.4559 128.396C24.0679 128.652 26.6799 128.908 29.2919 129.165C41.8015 130.12 54.3062 132.116 66.72 133.314C67.0291 132.811 67.6341 132.894 68.0014 133.244C69.2401 133.135 70.6284 132.189 71.7505 133.173C71.7869 133.168 71.8234 133.162 71.8602 133.159C73.8581 129.324 75.239 125.234 76.5794 121.139C77.4348 118.621 78.5858 116.184 80.7128 114.493C84.3427 111.973 92.6597 106.864 96.9221 107.078C96.9928 106.315 97.3485 105.529 97.9326 105.021C96.6452 102.826 101.793 101.394 102.156 101.648C101.923 94.3151 105.373 87.9469 112.978 86.4866C119.792 85.0668 129.484 84.8283 133.149 91.9492C133.551 91.9039 137.669 91.8824 138.068 91.927C138.687 91.1425 145.49 98.5768 142.702 101.165C167.629 112.192 181.802 110.876 188.702 141.876C189.635 144.788 189.703 147.974 190.687 150.821C194.192 159.004 197.034 167.716 197.741 176.62C199.449 177.057 199.646 180.069 197.667 180.505C196.911 180.672 196.279 180.899 195.728 181.331C196.159 188.627 194.394 205.293 193.282 205.242C191.015 212.457 180.903 214.493 173.744 211.958C174.978 214.28 173.744 215.739 173.744 216.98C147.984 217.955 119.818 217.393 94.0647 218.73C90.7704 218.683 87.3055 219.539 84.0563 219.046C82.0747 218.571 82.0714 215.456 84.0814 215.07L75.2989 213.163C75.4951 213.089 71.6786 210.55 68.7942 205.807C66.1093 200.5 67.9366 194.095 66.72 188.322C57.2183 187.545 47.5595 187.213 38.1618 185.604C36.8804 189.438 31.3336 184.853 29.5704 183.008C29.5726 183.005 29.5748 183.003 29.577 183C28.7238 182.766 28.0395 181.966 28.0166 181.02C27.4182 180.165 27.2926 178.96 27.8665 178.133C25.2363 162.957 21.2267 147.461 19.7774 132.142C19.2651 132.028 18.7826 131.804 18.3735 131.458L18.4067 131.425C17.7136 130.652 17.5788 129.318 18.7342 128.662C19.6662 128.132 20.4444 128.296 21.4559 128.396Z" fill="white"/>
<path fill-rule="evenodd" clip-rule="evenodd" d="M132.674 90.2954C131.898 88.3449 129.274 89.1031 129.566 91.1522C129.742 92.3796 130.414 93.6759 131.018 94.7517C131.509 95.6273 132.07 96.4819 132.831 97.1383C131.477 98.4012 130.072 99.6179 128.631 100.773C127.059 102.034 125.406 103.196 123.697 104.264C122.199 105.2 120.633 106.03 119.221 107.098C117.908 108.092 116.711 109.287 116.103 110.847C115.454 112.508 115.736 114.223 116.213 115.883L116.268 116.07C116.756 117.715 117.601 119.697 116.43 121.247C115.834 122.035 114.967 122.594 114.219 123.224C113.553 123.785 112.929 124.394 112.357 125.049C111.108 126.476 110.093 128.082 109.452 129.871L109.395 130.034C108.845 131.618 108.444 133.558 109.186 135.114C109.399 135.559 110.086 135.414 110.205 134.98C110.475 133.997 110.461 132.967 110.687 131.97C110.922 130.933 111.313 129.948 111.825 129.017C112.814 127.215 114.154 125.676 115.736 124.374L116.21 123.989C117.445 122.976 118.579 121.901 118.83 120.224C119.098 118.43 118.379 116.72 117.917 115.022C117.595 113.839 117.49 112.704 117.838 111.635C118.263 112.329 118.843 112.988 119.302 113.575C120.216 114.746 121.139 115.91 122.059 117.076C123.003 118.272 123.923 119.486 124.799 120.732C125.191 121.289 125.579 121.85 125.966 122.411C126.256 122.833 126.662 123.254 126.979 123.684C126.902 123.915 126.907 124.18 127.047 124.368C128.727 126.638 131.117 121.902 131.741 120.705C133.01 118.268 133.955 115.679 135.229 113.242C136.548 110.717 138.051 108.258 139.726 105.952C140.739 104.558 141.875 103.247 142.802 101.808C144.985 103.788 147.859 105.116 150.498 106.319C153.398 107.642 156.41 108.722 159.383 109.869L160.262 110.21C165.384 112.209 170.632 114.405 174.89 117.957C179.893 122.129 182.853 127.946 185.057 133.969C187.594 140.902 189.692 148.023 191.649 155.139C192.65 158.78 193.6 162.438 194.493 166.107C195.28 169.339 195.932 172.604 196.843 175.803C194.996 175.738 192.888 176.453 191.311 176.66C184.123 177.601 177.031 179.101 170.244 181.698C169.405 182.019 169.163 182.856 169.345 183.534C168.862 183.398 168.379 183.26 167.895 183.124C168.425 182.312 168.172 180.861 168.131 179.962L168.128 179.9C168.085 178.701 167.955 177.501 167.871 176.305C167.71 174.024 167.501 171.76 167.223 169.492L167.152 168.925C166.837 166.458 166.605 163.976 166.261 161.513L166.22 161.231C166.385 160.601 166.577 159.979 166.778 159.359C167.315 157.708 168.072 156.154 168.736 154.555C168.815 154.367 168.546 154.259 168.421 154.372C167.297 155.383 166.404 156.666 165.686 158.008C165.674 157.945 165.663 157.881 165.65 157.818L165.568 157.415C165.366 156.432 165.121 155.398 164.518 154.601C164.454 154.517 164.327 154.499 164.266 154.601C163.689 155.578 163.625 156.814 163.536 157.925C163.435 159.182 163.423 160.454 163.441 161.714C163.475 164.177 163.649 166.647 163.787 169.105C163.923 171.521 164.189 173.907 164.532 176.299L164.598 176.748C164.766 177.886 164.903 179.039 165.124 180.17L165.187 180.478C165.305 181.039 165.378 181.83 165.614 182.486C159.552 180.796 153.481 179.144 147.399 177.521C143.002 176.347 138.602 175.192 134.203 174.029C133.971 173.61 133.682 173.22 133.321 172.87C132.133 171.719 130.558 171.206 129.113 172.092C128.996 172.164 128.986 172.348 129.113 172.418C129.39 172.569 129.667 172.724 129.939 172.886L127.298 172.17C125.324 171.635 123.326 170.967 121.305 170.594C117.583 168.757 113.58 167.428 109.66 166.114L109.198 165.957C107.19 165.273 105.114 164.507 103.039 164.127C101.521 163.85 99.7387 164.185 99.1281 165.74C98.355 166.25 97.6277 166.849 96.9259 167.437C96.4184 167.863 95.9321 168.315 95.4375 168.756L95.3463 168.836C94.9419 169.187 94.6216 169.422 94.5223 169.98C94.4711 170.268 94.6544 170.658 95.0101 170.62C96.0987 170.504 96.9839 169.242 97.7221 168.488C98.2925 167.906 98.8674 167.304 99.388 166.664C99.6915 166.829 100.107 166.799 100.301 166.434C101.302 164.537 104.046 165.851 105.565 166.301L107.739 166.945C108.827 167.267 109.914 167.591 110.999 167.92C113.981 168.826 116.949 169.84 119.958 170.671C119.689 170.967 119.726 171.494 120.238 171.694C122.593 172.618 125.178 173.096 127.625 173.731C129.17 174.131 130.714 174.535 132.258 174.94C132.523 175.369 132.713 175.854 132.793 176.419C133.088 178.495 132.52 180.89 131.966 182.899L131.883 183.198C131.428 184.813 130.759 186.792 129.366 187.811C129.026 188.06 128.593 188.233 128.156 188.272C125.429 186.869 122.703 185.465 119.974 184.064C119.469 183.805 119.002 184.156 118.889 184.574C117.927 184.416 116.967 184.167 116.093 183.871C114.624 183.372 113.477 182.42 112.1 181.762C109.435 180.49 106.715 182.053 104.329 183.242L103.779 183.512C102.709 184.031 100.484 185.028 99.9704 183.609C99.474 182.235 101.044 180.767 102.057 180.149C103.266 179.412 104.673 179.018 106.038 178.689C106.818 178.502 107.608 178.349 108.402 178.237C109.302 178.11 110.233 178.129 111.1 177.837C111.531 177.692 111.597 177.008 111.1 176.895C109.765 176.591 108.172 176.922 106.778 177.261L106.05 177.44C104.647 177.785 103.23 178.217 101.951 178.904C101.022 179.404 100.04 180.163 99.3995 181.092C98.8429 180.575 98.1501 180.593 97.4285 180.784L97.0368 180.893C96.39 181.072 95.8658 181.196 95.2364 181.072C95.1523 180.614 95.067 180.156 94.9758 179.698C94.0789 175.195 93.0953 170.71 92.0101 166.249C90.1381 158.554 87.9719 150.943 85.5299 143.41L85.2848 142.657C84.7216 140.935 84.2683 139.057 83.3603 137.475C82.5014 135.978 81.1255 135.116 79.4908 134.659C77.6356 134.141 75.6862 133.87 73.7937 133.52C73.3715 133.442 72.9482 133.368 72.5257 133.292C72.8828 132.647 73.1493 131.915 73.3894 131.353L73.4315 131.256C73.9473 130.08 74.4106 128.883 74.858 127.679L75.1927 126.775C76.0005 124.596 76.8345 122.453 77.9703 120.415C79.1659 118.271 80.752 116.517 82.7292 115.066C86.7604 112.107 91.6193 110.598 95.5293 107.436C95.6895 107.306 95.4841 107.085 95.3215 107.167C92.6814 108.493 89.8313 109.395 87.0853 110.475L86.5436 110.689C84.3732 111.549 82.1689 112.486 80.2903 113.879C78.1959 115.432 76.5463 117.361 75.3064 119.655C74.0845 121.917 73.3029 124.448 72.4408 126.863L72.2102 127.507C71.8625 128.472 71.5033 129.434 71.0918 130.373C70.7651 131.119 70.1554 131.97 69.8783 132.821C69.12 132.69 68.362 132.558 67.6031 132.431C51.1645 129.687 34.5423 128.074 17.8831 127.602C17.2314 127.584 16.8943 128.206 16.9903 128.774C18.589 138.228 20.0098 147.714 21.5686 157.174C22.2491 161.303 22.9431 165.429 23.6534 169.553C24.0132 171.643 24.4291 173.724 24.7699 175.816C25.045 177.506 25.2448 179.209 25.7171 180.86C26.1407 182.34 26.7908 183.767 27.8585 184.896C29.0095 186.113 30.6159 186.703 32.2329 186.981C36.3379 187.687 40.5483 187.976 44.6865 188.447L66.7188 190.953C66.3969 193.88 66.3728 196.761 66.5205 199.721L66.6047 201.337C66.6736 202.637 66.7558 203.939 66.9426 205.226C67.1767 206.84 67.915 208.206 69.0024 209.412C70.001 210.519 71.2141 211.463 72.3942 212.368C73.619 213.308 74.8846 214.215 76.3248 214.797L76.5117 214.871C77.7751 215.364 80.1451 216.128 81.872 215.849C81.6463 216.98 81.2095 218.196 81.5967 219.315C81.7764 219.835 82.4559 220.094 82.8722 219.652C83.697 218.775 83.7614 217.618 83.9568 216.474C84.16 215.285 84.3352 214.091 84.4909 212.894C84.792 210.58 85.0263 208.245 85.0978 205.911C85.1714 203.514 85.143 201.114 85.0139 198.72C84.9475 197.491 84.8652 196.262 84.7091 195.041C84.6425 194.52 84.5745 193.998 84.4968 193.479C84.4684 193.289 84.437 193.1 84.4031 192.912L86.3806 193.135C89.4129 193.474 92.4465 193.78 95.5002 193.827C95.8618 193.833 96.14 193.668 96.3219 193.428C96.5156 193.744 96.8529 193.969 97.336 193.968C101.6 193.952 105.572 192.557 109.45 190.914C111.405 190.085 113.33 189.188 115.288 188.367C117.116 187.6 119.069 187.053 120.853 186.189L125.539 188.647C125.574 188.768 125.618 188.882 125.665 188.978C125.97 189.601 126.571 189.939 127.186 190.193C127.776 190.438 128.386 190.514 128.981 190.452C132.536 192.315 136.091 194.175 139.648 196.032L143.206 197.887C150.295 201.578 157.357 205.329 164.491 208.934L165.016 209.198C167.48 210.434 170.126 211.686 172.86 212.621C172.909 213.313 172.878 213.986 172.82 214.719L172.806 214.878C172.725 215.744 172.55 216.829 173.245 217.445C173.606 217.766 174.251 217.767 174.497 217.284C174.943 216.407 174.542 215.026 174.401 214.074C174.351 213.735 174.29 213.387 174.2 213.049C177.334 213.983 180.564 214.435 183.754 213.911C186.86 213.401 189.266 211.445 191.205 209.051C193.252 206.526 194.707 203.582 195.487 200.427C196.375 196.837 196.433 193.129 196.412 189.451C196.39 185.535 196.245 181.599 195.769 177.71C196.291 177.587 196.869 177.481 197.397 177.517C197.658 177.935 198.165 178.111 198.622 178.057C199.618 179.155 197.093 180.277 196.286 180.558C196.005 180.656 196.035 181.111 196.359 181.097L196.562 181.088C197.809 181.021 199.098 180.808 199.831 179.65C200.418 178.721 200.242 177.62 199.541 176.863C199.079 172.489 197.973 168.229 196.944 163.963C195.934 159.775 194.81 155.614 193.62 151.473L193.086 149.62C191.211 143.129 189.252 136.585 186.666 130.351C185.375 127.239 183.887 124.183 181.871 121.469C179.991 118.939 177.772 116.774 175.222 114.926C170.467 111.478 164.887 109.395 159.405 107.411L159.159 107.322C156.319 106.294 153.485 105.254 150.676 104.141C148.192 103.156 145.812 101.908 143.34 100.908C143.421 100.763 143.498 100.615 143.573 100.466L143.618 100.505C143.626 100.511 143.634 100.517 143.643 100.522C143.891 100.695 144.257 100.61 144.462 100.417C145.041 99.8709 144.845 99.265 144.459 98.6989L144.408 98.6269C143.936 97.9653 143.515 97.2658 143.079 96.5802L142.806 96.1514C142.074 95.0061 141.305 93.853 140.33 92.9064C139.878 92.4677 139.383 92.1396 138.859 91.895C138.904 91.8003 138.511 91.6066 138.4 91.704C136.739 91.0964 134.829 91.2237 133.019 91.3913M67.7849 191.074L70.0934 191.337C72.633 191.626 75.1737 191.905 77.7147 192.182L83.2339 192.782C83.248 193.096 83.2862 193.404 83.2931 193.642C83.3292 194.867 83.3561 196.092 83.3815 197.318C83.4325 199.774 83.3765 202.232 83.2148 204.684C83.0581 207.059 82.8517 209.435 82.5309 211.795L82.4652 212.266L82.4272 212.514C82.1654 212.539 81.9082 212.664 81.6944 212.919C81.2276 213.477 79.5372 212.935 78.8771 212.7C77.7914 212.314 76.7691 211.661 75.8258 211.007C74.9045 210.368 74.075 209.622 73.2779 208.837L72.6256 208.192C71.9769 207.548 71.3274 206.861 70.9299 206.05C70.3908 204.95 70.3211 203.6 70.1631 202.402C69.9684 200.929 69.7367 199.456 69.4918 197.99M134.799 175.61L135.038 175.673C143.736 177.984 152.422 180.363 161.146 182.572C165.464 183.666 169.802 184.68 174.125 185.752L174.825 185.927C178.235 186.789 181.687 187.827 184.298 190.3C184.395 190.391 184.535 190.251 184.444 190.155C181.629 187.158 177.626 185.89 173.783 184.791C173.072 184.587 172.361 184.389 171.65 184.187C176.877 182.323 182.187 180.702 187.619 179.546C189.018 179.248 190.433 179.029 191.831 178.731C192.806 178.522 193.758 178.22 194.722 177.97L195.481 177.78L195.491 180.177C195.503 183.573 195.497 186.966 195.324 190.362L195.291 190.991C195.089 194.769 194.774 198.627 193.433 202.189C192.343 205.085 190.606 207.812 188.335 209.921C187.186 210.988 185.95 211.819 184.423 212.229C183.004 212.61 181.518 212.654 180.061 212.553C173.068 212.065 166.843 208.266 160.768 205.121C150.833 199.977 140.896 194.835 130.95 189.71C131.219 189.527 131.472 189.315 131.702 189.077C133.036 187.699 133.74 185.814 134.202 183.988C134.694 182.044 134.988 179.961 135.022 177.954M122.144 191.696C122.056 191.649 121.954 191.708 121.95 191.807C121.92 192.567 122.339 193.316 122.653 194L122.686 194.073C123.067 194.921 123.485 195.757 123.916 196.581C124.779 198.225 125.675 199.852 126.61 201.456C128.491 204.683 130.582 207.774 133.053 210.584C133.611 211.219 134.529 210.405 134.171 209.721C132.444 206.427 130.431 203.316 128.359 200.233C127.321 198.689 126.285 197.144 125.237 195.607C124.8 194.966 124.357 194.327 123.903 193.697L123.629 193.321M18.9847 129.489C27.7131 129.753 36.4313 130.322 45.1182 131.214C53.1971 132.044 61.2464 133.148 69.2503 134.525C70.922 134.812 72.5917 135.111 74.2593 135.422L75.2596 135.611C76.9275 135.927 78.965 136.057 80.45 136.948C82.0156 137.887 82.4387 139.851 82.9597 141.469C83.5721 143.373 84.169 145.283 84.7497 147.196C87.056 154.796 89.1627 162.46 91.042 170.176C91.9749 174.006 92.8027 177.857 93.6748 181.701C94.4497 185.116 95.3046 188.493 96.1978 191.873C96.0877 191.788 95.9527 191.723 95.7897 191.688C91.3543 190.744 86.8267 190.334 82.325 189.813L81.8894 189.762C77.2324 189.214 72.5754 188.671 67.9157 188.147L37.0644 184.677C35.2449 184.473 33.2957 184.445 31.525 183.957C28.5145 183.126 27.8089 179.761 27.3038 177.08L27.2886 176.999C25.7658 168.901 24.5535 160.732 23.1333 152.613M95.4799 182.459C96.6777 182.38 98.317 181.283 99.2257 181.362C98.7487 182.162 98.5334 183.075 98.8083 184.05C99.5735 186.763 103.034 185.36 104.701 184.531C106.067 183.851 107.387 183.019 108.9 182.701C110.614 182.34 111.775 183.022 113.223 183.807C114.412 184.453 115.707 184.916 117.039 185.156C117.748 185.283 118.421 185.297 119.092 185.247C119.132 185.28 119.178 185.311 119.23 185.338L119.585 185.524C117.979 185.598 116.343 186.093 114.848 186.547C113.299 187.017 111.778 187.584 110.266 188.164L108.778 188.736C105.108 190.141 101.308 191.476 97.336 191.464C97.0504 191.463 96.8165 191.542 96.6323 191.671M102.181 173.958C100.998 173.813 99.9058 173.969 98.9603 174.739C97.8199 175.668 97.0539 177.208 95.4145 177.309C94.9366 177.339 94.8255 178.011 95.3006 178.151C96.5208 178.513 97.5088 177.853 98.3402 176.995L98.8991 176.411C99.7207 175.561 100.478 174.903 101.873 174.954C103.366 175.008 104.861 175.353 106.344 175.529C108.025 175.727 109.705 175.897 111.39 176.043C111.469 176.05 111.482 175.926 111.409 175.908L109.521 175.438M103.324 169.121L103.128 169.101C101.41 168.934 99.8386 168.928 98.304 169.852L98.0097 170.03C96.6261 170.871 95.1201 171.862 94.2549 173.223C94.1133 173.446 94.3473 173.708 94.5841 173.652C96.2471 173.253 97.4628 172.033 98.8612 171.119C100.431 170.095 102.052 170.264 103.841 170.423C105.574 170.577 107.306 170.789 109.021 171.078C110.633 171.349 112.251 171.777 113.879 171.913L113.879 171.91C114.065 171.91 114.171 171.63 113.981 171.536C112.329 170.71 110.415 170.32 108.617 169.943M162.162 122.396C162.165 122.261 161.973 122.21 161.907 122.327C160.789 124.294 160.204 126.705 159.609 128.872C158.985 131.142 158.481 133.436 158.029 135.746C157.113 140.423 156.624 145.074 156.591 149.841C156.587 150.522 157.696 150.703 157.804 150.005C158.524 145.368 159.214 140.726 159.94 136.09C160.305 133.758 160.73 131.436 161.137 129.111M151.094 125.822C151.176 125.551 150.782 125.46 150.681 125.709C148.437 131.216 147.677 137.458 149.118 143.268C149.338 144.157 150.64 143.772 150.474 142.894M122.153 120.929C122.164 120.726 121.901 120.694 121.801 120.833C120.738 122.331 120.297 124.337 118.432 125.112C117.501 125.498 116.453 125.431 115.63 126.084C115.08 126.52 114.658 127.209 115.071 127.871C115.204 128.084 115.577 128.191 115.758 127.959C116.021 127.621 116.161 127.216 116.519 126.962C117.025 126.605 117.706 126.583 118.286 126.415C119.035 126.197 119.696 125.817 120.237 125.252M104.392 95.9446C104.282 95.8888 104.177 95.9245 104.107 96.0192C104.007 96.1542 104.019 96.2856 104.142 96.3781C103.978 96.7127 103.784 97.5508 103.757 97.6728C103.645 98.1675 103.526 98.6591 103.401 99.1505C103.15 100.141 102.93 101.14 102.678 102.131C102.411 103.182 102.094 104.221 101.74 105.246C101.717 105.312 101.692 105.38 101.666 105.449L101.626 105.553L101.616 105.537C101.544 105.423 101.394 105.503 101.412 105.623C101.428 105.732 101.451 105.841 101.469 105.95L101.432 106.048C101.201 106.671 101.042 107.326 101.467 107.876C101.626 108.081 101.8 108.203 102.018 108.239C102.367 109.389 102.805 110.519 103.274 111.603L103.411 111.92C104.101 113.502 104.836 115.063 105.934 116.411C107.133 117.881 108.782 118.885 109.827 120.497C110.312 121.247 110.65 122.035 110.925 122.881L111.028 123.203C111.223 123.801 111.447 124.382 112.009 124.733C112.188 124.845 112.457 124.809 112.601 124.657C113.753 123.438 112.547 121.163 111.853 119.983C110.887 118.343 109.49 117.293 108.091 116.056C106.583 114.722 105.621 112.937 104.69 111.179C104.12 110.102 103.57 109.002 102.991 107.92C103.596 107.385 103.79 106.323 103.995 105.584L104.013 105.518C104.352 104.335 104.622 103.122 104.792 101.903C104.956 100.731 105.024 99.5758 104.98 98.3973L104.968 98.0971M102.141 101.522C102.275 101.339 102.054 101.131 101.87 101.17C100.755 101.4 99.664 102.075 98.6629 102.621L98.556 102.679C97.7568 103.11 96.9527 103.638 96.533 104.475C96.0766 105.385 96.1142 106.433 96.1765 107.422L96.1824 107.515C96.2587 108.701 96.2709 109.933 96.5219 111.097C96.6503 111.693 97.1901 111.861 97.6516 111.72C98.2007 113.454 99.7433 114.732 100.87 116.1C102.307 117.844 102.036 120.2 101.886 122.3C101.825 123.151 102.883 123.393 103.428 122.939L104.684 121.896C104.893 121.722 105.102 121.547 105.31 121.372C105.489 121.222 105.666 121.071 105.841 120.918L106.103 120.686C106.219 120.583 106.731 120.01 106.881 119.986C107.244 119.929 108.106 120.885 108.401 121.185L108.439 121.222C108.994 121.767 109.496 122.353 109.963 122.974C110.049 123.088 110.217 122.994 110.156 122.862C109.737 121.965 109.25 121.107 108.672 120.304L108.555 120.144C108.17 119.626 107.654 118.711 106.975 118.558C106.146 118.371 105.318 119.202 104.715 119.664L104.676 119.693C104.389 119.908 104.106 120.127 103.823 120.348C103.852 118.784 103.655 117.203 102.847 115.855C102.278 114.905 101.425 114.2 100.694 113.384C99.8818 112.474 99.4574 111.356 98.7217 110.408C98.6269 110.287 98.4963 110.221 98.3549 110.2C98.3267 109.439 98.2145 108.669 98.1278 107.916L98.1027 107.69C98.0151 106.872 97.808 105.872 98.2088 105.105C98.5873 104.381 99.456 103.87 100.099 103.379L100.624 102.972M138.344 92.8667C138.68 93.061 138.994 93.3026 139.278 93.6046C140.175 94.5556 140.816 95.7391 141.44 96.8776C141.776 97.4908 142.099 98.1107 142.438 98.7224C142.585 98.9885 142.737 99.2517 142.89 99.5146C142.961 99.6357 143.171 99.8764 143.275 100.025C143.159 100.187 143.04 100.347 142.917 100.505C142.871 100.565 139.655 104.069 138.534 105.44C136.817 107.54 135.283 109.758 133.971 112.132C132.687 114.457 131.709 116.919 130.519 119.289C129.923 120.476 129.258 121.654 128.41 122.681C128.378 122.721 128.343 122.759 128.31 122.798C127.986 121.924 127.157 120.988 126.75 120.451L126.712 120.4C125.788 119.155 124.813 117.948 123.816 116.761C122.906 115.677 121.973 114.616 121.017 113.573L120.657 113.183C119.991 112.464 119.145 111.387 118.17 110.873C118.275 110.687 118.396 110.503 118.535 110.321C119.448 109.127 120.739 108.261 122.014 107.479L122.84 106.977C125.955 105.079 129.021 103.092 131.725 100.626C133.156 99.3212 134.566 97.9543 135.769 96.4322L136.194 95.894M133.147 91.927C134.605 92.0494 136.181 92.0203 137.528 92.4955C136.33 93.6284 135.191 94.8516 134.021 96.0034C133.917 95.2244 133.704 94.4548 133.524 93.6951" fill="black"/>
<path fill-rule="evenodd" clip-rule="evenodd" d="M118.455 16.8568C110.266 16.8568 100.44 20.827 99.6042 20.9064L99.5816 20.9076C99.1421 20.9076 97.4246 22.2161 94.4291 24.8331L97.6735 31.161L97.411 31.4117C96.1546 32.6163 95.082 33.7143 94.2353 34.5798C87.3225 41.6469 86.08 69.3941 87.7091 79.0704C89.3383 88.7468 92.3557 98.2153 106.404 98.2153C120.452 98.2153 136.081 89.7685 138.488 87.1381C140.093 85.3844 141.896 84.5443 143.897 84.6177C143.979 84.5139 144.06 84.4104 144.141 84.3073L144.436 84.2656C147.205 83.8646 149.189 83.3248 150.388 82.6465C152.73 81.3215 155.304 74.356 155.304 72.8216C155.304 71.3025 159.147 60.2519 159.224 59.0824L159.225 59.05C159.225 58.0725 164.247 53.5785 164.247 52.1513C164.247 50.7242 165.259 50.8108 164.247 45.7816L163.953 44.3042C162.876 38.9496 160.768 30.0832 152.73 26.2305C143.897 21.9967 126.728 16.8568 118.455 16.8568Z" fill="white"/>
<path fill-rule="evenodd" clip-rule="evenodd" d="M154.093 26.0315C149.688 21.3557 124.678 14.1233 112.026 15.6564L111.646 15.7056C110.636 15.8336 109.641 16.0275 108.659 16.2909C105.485 17.0323 102.206 18.1549 99.5827 20.03C97.393 21.564 90.4853 24.0691 92.5212 28.082C91.7663 29.5123 91.4846 31.2793 91.9948 32.688C92.059 33.1745 92.209 33.6227 92.4009 34.0873C90.7881 36.4673 89.5111 39.1588 88.4774 41.7188C86.6711 48.1614 85.547 54.8662 85.3824 61.4395C84.8347 73.9279 86.2041 88.8453 97.0809 96.9209C103.652 102.038 113.944 102.21 121.328 95.8652C121.747 95.3693 123.718 94.0311 123.06 93.7964C122.865 94.0031 122.663 94.2043 122.458 94.4019C122.468 94.3799 122.47 94.358 122.466 94.3342L122.658 94.1597C123.021 93.824 123.491 93.3371 122.956 93.4324C122.932 93.4598 122.907 93.4836 122.881 93.511C122.768 93.5791 122.682 93.638 122.615 93.69L122.581 93.7175L122.592 93.7065C122.9 93.3776 123.085 93.0421 122.624 93.2564L122.563 93.2861C122.358 93.5019 122.15 93.7086 121.937 93.9098C121.941 93.886 121.937 93.8623 121.924 93.8366L122.122 93.6455C122.315 93.4563 122.286 93.4555 122.191 93.3025C122.602 92.7272 121.836 93.0689 121.782 93.2934C121.302 93.18 120.881 94.0799 120.573 94.1897C107.037 104.596 87.3934 95.3624 87.7115 66.3648L87.7164 65.7975C87.8094 56.5253 88.5897 46.9952 92.4248 38.6018C92.7978 37.7933 93.2151 37.0067 93.674 36.2458C93.9905 35.6751 94.3289 35.119 94.6929 34.5775C95.7119 34.4952 96.718 34.3086 97.7092 34.0196C98.0497 33.9337 98.3862 33.8385 98.7226 33.727C103.64 33.9951 108.447 34.2869 113.378 34.5635L114.918 34.6594C119.094 34.9279 123.414 35.358 126.785 37.9415C130.092 40.2935 130.107 44.9314 132.938 47.5137C136.975 50.2537 137.005 52.7244 137.782 56.7622C137.724 59.806 135.614 64.2285 139.487 65.5095C138.833 66.4411 139.744 65.9935 139.816 65.6668C139.823 65.6686 139.83 65.6705 139.836 65.6705C139.254 66.7528 140.11 66.0712 140.185 65.7235C140.231 65.7107 140.277 65.6778 140.323 65.632C139.736 66.5803 140.684 65.9163 140.628 65.7436C141.762 64.0013 144.095 63.7308 145.739 64.1925C145.759 64.2547 145.832 64.2601 145.878 64.2272C152.87 65.7425 151.066 80.2182 143.9 78.8188C143.594 78.7563 143.601 78.9035 143.54 78.9176C143.706 78.483 143.239 78.6599 143.244 78.7511L143.216 78.7498C143.193 78.7478 143.202 78.7453 143.185 78.7511C143.345 77.8623 142.445 79.1501 142.516 79.203C142.488 79.1865 142.457 79.1774 142.43 79.1737L142.461 79.0893C142.61 78.6911 142.597 78.8566 142.596 78.6286C142.709 78.3467 142.717 78.47 142.691 78.2863C142.296 77.9805 142.179 78.9083 142.048 78.9761C142.273 78.6615 142.094 78.4045 141.881 78.5754C140.267 81.97 138.182 85.1596 135.488 87.6722C135.193 87.9045 134.895 88.1332 134.586 88.349C133.44 89.3472 131.682 89.9891 130.61 90.8733C130.61 90.888 130.617 90.9063 130.628 90.9245L130.603 90.9467L130.578 90.9703L130.205 91.1495C130.095 91.2428 129.997 91.3471 129.909 91.4623C129.816 91.5703 129.733 91.6892 129.664 91.8154C129.629 91.969 129.706 92.033 129.852 91.9672C129.916 91.9452 129.98 91.9196 130.044 91.8959C130.041 91.9013 130.039 91.905 130.035 91.9087C130.014 91.9404 129.872 92.2698 130.036 92.2162L130.055 92.2086C130.145 92.1757 130.234 92.1391 130.322 92.1044C130.218 92.2343 130.123 92.3751 130.039 92.494C129.949 92.5873 129.894 92.6971 129.872 92.8214C129.876 92.8909 129.914 92.9202 129.984 92.9111C130.09 92.8763 130.194 92.8397 130.299 92.8013L130.269 92.858C130.195 93.0031 130.09 93.2466 130.277 93.1653C130.436 93.1159 130.589 93.0592 130.743 92.997C130.756 93.0227 130.781 93.0318 130.833 93.008C131.321 92.8342 131.793 92.6221 132.245 92.3715C132.642 92.0824 133.042 91.7989 133.441 91.5117C133.816 91.2867 134.178 91.0361 134.524 90.7544C136.837 89.2603 138.862 87.3623 140.469 85.2485C143.156 87.5754 148.528 85.3524 151.851 83.5309C154.79 81.9029 155.946 78.8927 156.245 75.6473C156.866 71.2781 160.436 69.7825 160.188 60.1956C160.193 60.1975 160.199 60.1975 160.206 60.1975C160.336 60.159 160.462 60.1078 160.581 60.042C160.704 59.9834 160.819 59.9139 160.927 59.8298L161.06 59.645C161.13 59.6066 161.192 59.5664 161.24 59.5261L161.264 59.558C161.342 59.6522 161.29 59.5104 161.285 59.4822L161.517 59.1668C162.067 58.4158 162.671 57.5732 163.162 56.8994L163.178 56.9268C163.189 56.9474 163.195 56.9624 163.189 56.9689C164.359 55.2882 165.459 53.2582 165.765 51.2929C166.126 49.779 165.985 48.2191 165.67 46.8168C164.32 41.9063 159.899 30.7942 154.093 26.0315ZM122.347 93.9415L122.421 93.8762L122.356 93.9569C122.323 93.9987 122.288 94.0362 122.232 94.0744C122.235 94.0616 122.235 94.0488 122.234 94.0342C122.271 94.0057 122.309 93.9745 122.347 93.9415ZM112.082 18.1238C120.662 17.3861 129.101 19.2764 137.289 21.5645L137.854 21.7269C142.51 23.0554 147.433 24.2508 151.367 27.0942C156.864 31.3045 159.703 38.0024 162.18 44.1864C164.343 48.781 163.237 53.9619 159.978 57.1701C159.638 53.982 159.06 50.8871 158.157 47.8172C157.968 47.3376 158.111 47.1804 157.704 47.1179C157.09 55.391 160.114 61.5035 154.131 71.3085C151.534 75.9349 154.54 79.32 147.208 81.7545L147.01 81.8303C145.482 82.4067 143.814 82.8616 142.318 82.5394L142.452 82.3214C142.589 82.0969 142.631 81.9879 142.432 81.8919C142.437 81.8809 142.444 81.8699 142.452 81.8571C142.613 81.5535 142.768 81.2462 142.917 80.9352C142.977 80.9554 143.037 80.97 143.099 80.9864C143.059 81.0614 143.054 81.1364 143.167 81.162C143.57 81.3003 143.984 81.3558 144.408 81.3298L144.499 81.323C144.977 81.2938 145.279 81.2065 145.549 81.1255C145.638 81.1108 145.728 81.0962 145.816 81.0779C146.684 80.8855 147.603 80.396 148.197 79.9109C154.976 76.0607 154.275 62.9546 145.92 61.7157C145.749 53.4638 141.824 39.542 135.31 31.6788C129.422 24.4459 113.348 21.311 102.165 22.4164C102.002 22.4704 101.839 22.5249 101.676 22.5799C99.9506 22.7332 98.3063 23.5019 96.5797 23.8589C97.8194 22.9299 99.2257 22.311 100.674 21.7851C103.56 20.0198 106.869 19.0646 110.066 18.3909C110.728 18.2281 111.399 18.1384 112.082 18.1238ZM146.302 68.3447C145.853 68.1007 145.904 68.3363 145.801 68.2679C142.57 68.0043 139.085 70.8336 137.279 73.1922C137.422 73.3403 137.807 72.9013 137.875 72.8318C137.884 72.8409 137.895 72.8483 137.906 72.8519L137.856 72.9229C137.124 73.9736 138.575 72.7372 138.711 72.4824C138.735 72.4952 138.759 72.5025 138.786 72.4971C138.671 72.6099 138.32 72.9042 138.259 73.1135L138.166 73.191C137.288 73.9433 137.361 74.5092 138.358 73.4409C138.334 73.4903 138.325 73.536 138.342 73.5726L138.307 73.5955C137.817 73.9382 137.414 74.8936 138.439 73.9129C138.332 74.6292 139.454 73.2447 139.49 73.2543C141.433 71.7297 144.292 70.2469 146.729 70.0477L146.812 70.0381C147.259 69.9807 147.471 69.848 147.314 69.5557C147.864 69.4247 147.736 69.1536 147.475 69.1624C147.863 68.907 147.514 68.6628 147.288 68.7581C147.443 68.3292 146.822 68.6149 146.765 68.5551C146.443 68.0577 146.356 68.4726 146.302 68.3447ZM153.076 41.7572C151.524 41.1887 146.939 42.8906 147.306 45.1445C147.524 45.662 148.244 45.9585 148.75 45.6664L149.41 45.223C150.559 44.4537 151.595 43.779 152.828 43.108C153.5 42.7749 153.789 42.0678 153.076 41.7572ZM144.245 38.4077L144.845 38.0176C148.08 35.9005 152.652 32.6927 144.543 36.0116C143.618 36.408 142.39 36.6425 141.886 37.5227C141.094 39.145 143.179 39.254 144.245 38.4077ZM143.882 28.9088C144.141 27.9237 140.912 29.0796 139.971 29.3844L139.828 29.4384C138.914 29.7792 137.865 30.0954 137.318 30.8847C136.677 31.9753 137.974 32.2012 138.778 31.7086C140.426 30.6319 142.232 29.8195 143.882 28.9088ZM135.669 24.3202C137.487 22.3349 132.621 24.2368 131.892 24.7647L131.872 24.7803C131.328 25.1631 131.438 25.9877 131.949 26.2299C133.403 26.2575 134.472 25.0459 135.669 24.3202ZM127.396 22.1451C130.286 20.068 126.479 21.0559 125.157 21.8699C124.255 22.6647 125.184 24.0065 127.396 22.1451Z" fill="black"/>
<path fill-rule="evenodd" clip-rule="evenodd" d="M104.344 76.9729C104.064 76.4851 103.418 76.0331 102.826 76.1024C100.178 76.413 100.183 79.624 101.205 81.4986C102.112 83.1608 103.989 84.1365 105.867 83.994C107.84 83.8442 109.521 82.6841 110.261 80.8382C110.75 79.6173 110.977 77.3631 109.675 76.5427C109.651 76.5273 109.611 76.5312 109.592 76.5533C108.968 77.2793 108.943 78.3694 108.397 79.1777C107.888 79.9295 107.099 80.5503 106.174 80.6462C105.483 80.7179 104.785 80.4688 104.514 79.8486C104.368 79.5132 104.385 79.3311 104.44 79.1003L104.49 78.8997C104.663 78.197 104.741 77.662 104.344 76.9729ZM103.636 62.8908C102.255 63.7304 100.15 65.6882 101.636 67.7697C103.385 69.6051 105.904 67.5007 107.145 66.549C108.296 65.8115 109.588 67.7085 108.521 68.5697C99.5533 75.2089 95.9141 63.1103 102.938 61.9036C103.711 61.7706 103.998 62.6311 103.636 62.8908ZM118.223 57.1334C117.375 55.8614 115.44 56.0487 114.973 57.5582C114.72 58.3758 115.069 59.1108 115.051 59.9274C115.036 60.6172 115.081 61.3858 115.293 62.0538C115.775 63.5772 117.145 64.6531 118.766 64.6085C120.381 64.5641 121.804 63.5415 122.481 62.1014C123.16 60.6558 123.016 59.1597 122.52 57.6897C122.497 57.6191 122.404 57.5849 122.348 57.6443C121.762 58.267 121.333 58.9244 120.889 59.6217L120.435 60.3364C120.087 60.8746 119.582 61.5621 118.933 61.5189L118.835 61.5093C118.655 61.4938 118.683 61.5296 118.543 61.2837C118.479 61.17 118.491 60.9585 118.46 60.8242L118.449 60.7789L118.455 60.7544C118.469 60.6894 118.482 60.5669 118.493 60.3543L118.496 60.3073C118.543 59.3128 118.824 58.0347 118.223 57.1334ZM96.7313 57.9803C96.8833 56.3534 94.5961 55.9921 93.8357 57.1959C93.4391 57.8237 93.3236 58.6123 93.2359 59.3594L93.1949 59.714C93.1049 60.4814 93.0692 61.2796 93.4023 61.9954C93.9269 63.1227 95.0678 63.7187 96.2985 63.6243C97.4738 63.5339 98.5461 62.8526 99.1113 61.8181C99.6152 60.8951 100.116 59.093 99.5042 58.1303C99.4673 58.0719 99.3934 58.0644 99.3427 58.1094C98.7643 58.6229 98.6701 59.5594 98.3262 60.2284C97.9715 60.9184 97.4335 61.5908 96.6183 61.6956C95.8383 61.7958 95.5403 61.3698 95.7393 60.6262C95.996 59.6663 96.6347 59.0132 96.7313 57.9803ZM117.605 47.4612L117.231 47.3179C115.95 46.8338 114.19 46.2742 113.148 47.3163C112.505 47.9589 112.383 48.9055 112.842 49.6897C113.398 50.6396 114.395 50.663 115.358 50.803C116.453 50.9621 117.567 51.2647 118.586 51.696C119.735 52.182 120.801 52.7878 121.845 53.4645C122.837 54.1074 123.827 55.1583 125.015 55.3564C125.063 55.3645 125.118 55.3436 125.131 55.2904C125.401 54.1288 124.651 52.9858 123.982 52.0796C123.172 50.9824 122.191 50.0819 121.095 49.2745C120.036 48.495 118.827 47.9318 117.605 47.4612ZM94.3253 51.5909L94.2111 51.5709C93.4339 51.4415 92.7297 51.4713 92.144 52.0868C91.6969 52.5564 91.5246 53.1649 91.7377 53.7858C91.9344 54.3585 92.3741 54.9404 93.0123 55.0604C95.167 55.4657 97.5535 55.3988 99.7189 55.0918C100.71 54.9513 101.709 54.7794 102.674 54.5083L103.118 54.3796C103.924 54.1495 104.846 53.9091 105.431 53.3166C105.642 53.1037 105.52 52.7989 105.269 52.7003C104.248 52.3005 102.848 52.5132 101.759 52.4819C100.493 52.4457 99.2243 52.3508 97.9638 52.22C96.732 52.0919 95.5401 51.8137 94.3253 51.5909Z" fill="black"/>
<path fill-rule="evenodd" clip-rule="evenodd" d="M103.71 73.4931C105.744 72.5768 109.397 73.3763 110.723 73.6943C113.806 74.4336 116.908 76.0314 117.866 78.5347C118.946 81.3559 116.791 82.244 116.474 82.0989C114.34 82.2493 111.798 80.9076 109.562 80.5613C107.746 80.2778 105.83 80.0303 104.129 79.0656C102.887 79.7488 100.082 80.1181 97.818 80.7155C95.8898 81.224 95.0544 82.3269 93.2669 82.0924C91.1246 81.8114 92.0015 77.3055 94.3891 75.4801C97.0024 73.4824 101.422 72.6723 103.71 73.4931ZM99.6816 92.7593C101.461 93.1932 101.581 89.2924 101.78 87.9142C101.936 86.8376 102.815 84.061 105.042 84.1808C107.269 84.3006 108.106 86.6269 107.993 88.0737C107.92 89.012 107.055 93.7646 109.815 94.3659C111.575 94.3596 113.61 94.2409 115.46 93.8998C117.638 93.4066 120.469 91.68 121.217 95.0804C121.486 96.3041 111.894 99.94 107.638 100.269C103.321 101.144 98.2708 99.7986 95.1975 96.4964C94.4983 95.7451 92.5291 92.6269 92.3888 91.8629C92.094 90.2578 92.7766 89.2249 94.7627 89.7906C96.1657 90.5399 98.5371 92.4802 99.6816 92.7593Z" fill="black"/>
</g>
<rect x="2.5" y="2.47021" width="229" height="213" stroke="black" stroke-width="4"/>
<defs>
<clipPath id="clip0_88_936">
<rect x="0.5" y="0.470215" width="233" height="217" fill="white"/>
</clipPath>
</defs>
</svg>
